<svg xmlns="http://www.w3.org/2000/svg" width="21.306" height="25.756" viewBox="0 0 21.306 25.756"><defs><style>.a{fill:#737373;}.b{fill:none;stroke:#737373;stroke-linecap:round;stroke-linejoin:round;stroke-width:3px;}.c{fill:#fff;}</style></defs><g transform="translate(0 2.048)"><path class="a" d="M89.134,207.092a1.49,1.49,0,0,1,1.49,1.49v6.39a1.49,1.49,0,0,1-2.979,0v-6.39a1.49,1.49,0,0,1,1.489-1.489Z" transform="translate(-81.842 -192.753)"/><path class="a" d="M69.3,133.645c0,.056-.009.114-.009.171V143.5a1.86,1.86,0,0,0,1.847,1.88h9.845a1.86,1.86,0,0,0,1.847-1.88v-9.681c0-.058,0-.115-.007-.171Z" transform="translate(-65.403 -126.989)"/><path class="a" d="M46.177,86.8a1.49,1.49,0,0,1,1.49,1.49v6.39a1.49,1.49,0,0,1-2.979,0v-6.39A1.49,1.49,0,0,1,46.177,86.8ZM33.654,79.984a1.49,1.49,0,0,1,1.489,1.49v6.39a1.49,1.49,0,1,1-2.979,0v-6.39a1.49,1.49,0,0,1,1.49-1.49Zm18.327,0a1.49,1.49,0,0,1,1.489,1.49v6.39a1.49,1.49,0,1,1-2.979,0v-6.39a1.49,1.49,0,0,1,1.49-1.49Zm-15.88-1.5c.041-2.974,2.637-5.412,5.969-5.733h1.5c3.332.321,5.927,2.76,5.969,5.733Z" transform="translate(-32.164 -72.466)"/><path class="b" d="M74.743,70.009l1.571,2.722m10.827-2.722L85.57,72.731" transform="translate(-70.289 -70.009)"/><path class="c" d="M101.684,95.626a.771.771,0,0,1-1.541,0v0a.771.771,0,0,1,1.541,0Zm5.752,0a.771.771,0,0,1-1.541,0v0a.771.771,0,0,1,1.541,0Z" transform="translate(-93.032 -92.27)"/></g></svg>