<svg xmlns="http://www.w3.org/2000/svg" width="153" height="47.705" viewBox="0 0 153 47.705">
  <g id="Cleverit_logo" transform="translate(-59.812 -50.849)">
    <path id="Trazado_1" data-name="Trazado 1" d="M458.795,50.849H435.9a7.616,7.616,0,0,0-7.616,7.616V90.939a7.616,7.616,0,0,0,7.616,7.616h22.892a7.616,7.616,0,0,0,7.616-7.616V58.465A7.616,7.616,0,0,0,458.795,50.849ZM441.457,88.294h-3.783V67.413h3.783ZM441.4,62.665a2.484,2.484,0,0,1-1.832.729,2.519,2.519,0,0,1-1.832-.709,2.324,2.324,0,0,1-.729-1.733,2.39,2.39,0,0,1,.729-1.753,2.484,2.484,0,0,1,1.832-.729,2.564,2.564,0,0,1,1.832.689,2.265,2.265,0,0,1,.729,1.714A2.437,2.437,0,0,1,441.4,62.665Zm15.976,25.491a8.562,8.562,0,0,1-2.521.374,6.7,6.7,0,0,1-4.886-1.694,6.467,6.467,0,0,1-1.733-4.846V70.525h-3.546V67.413h3.546v-4.57h3.782v4.57H458v3.113h-5.989V81.833a3.665,3.665,0,0,0,.847,2.6,3.153,3.153,0,0,0,2.423.906,4.558,4.558,0,0,0,2.955-.985l1.182,2.719A5.644,5.644,0,0,1,457.374,88.156Z" transform="translate(-253.599)" fill="#371a9f"/>
    <g id="Grupo_1" data-name="Grupo 1" transform="translate(59.812 59.06)">
      <path id="Trazado_2" data-name="Trazado 2" d="M67.12,107.562a7.471,7.471,0,0,1,3.684-.906,6.969,6.969,0,0,1,3.23.749,6.432,6.432,0,0,1,2.443,2.246l2.876-1.852a8.147,8.147,0,0,0-3.447-3.31,10.933,10.933,0,0,0-5.063-1.143,11.734,11.734,0,0,0-5.693,1.359,9.964,9.964,0,0,0-3.92,3.782,11.359,11.359,0,0,0,0,10.992,10.1,10.1,0,0,0,3.92,3.8,11.592,11.592,0,0,0,5.693,1.379,10.774,10.774,0,0,0,5.063-1.162,8.262,8.262,0,0,0,3.447-3.329l-2.876-1.812a6.423,6.423,0,0,1-2.443,2.245,6.962,6.962,0,0,1-3.23.749,7.464,7.464,0,0,1-3.684-.906,6.448,6.448,0,0,1-2.561-2.581,7.883,7.883,0,0,1-.926-3.88,7.8,7.8,0,0,1,.926-3.842A6.457,6.457,0,0,1,67.12,107.562Z" transform="translate(-59.812 -95.191)" fill="#371a9f"/>
      <rect id="Rectángulo_1" data-name="Rectángulo 1" width="3.782" height="29.234" transform="translate(23.167)" fill="#371a9f"/>
      <path id="Trazado_3" data-name="Trazado 3" d="M175.847,104.705a10.45,10.45,0,0,0-5.339-1.359,10.663,10.663,0,0,0-5.378,1.359,9.737,9.737,0,0,0-3.743,3.8,11.069,11.069,0,0,0-1.359,5.476,10.9,10.9,0,0,0,1.4,5.516,9.691,9.691,0,0,0,3.96,3.8,13.3,13.3,0,0,0,10.579.492,9.147,9.147,0,0,0,3.526-2.521L177.4,118.83a7.745,7.745,0,0,1-6.028,2.522,7.906,7.906,0,0,1-5.142-1.674,6.554,6.554,0,0,1-2.423-4.433h16.941a10.88,10.88,0,0,0,.079-1.143,11.583,11.583,0,0,0-1.32-5.594A9.553,9.553,0,0,0,175.847,104.705Zm-12.036,7.821a6.667,6.667,0,0,1,2.147-4.333,7.052,7.052,0,0,1,9.1.02,6.717,6.717,0,0,1,2.147,4.314Z" transform="translate(-128.785 -95.191)" fill="#371a9f"/>
      <path id="Trazado_4" data-name="Trazado 4" d="M238.5,120.723l-7.171-16.744h-3.94l9.141,20.881h3.861l9.14-20.881h-3.7Z" transform="translate(-175.144 -95.626)" fill="#371a9f"/>
      <path id="Trazado_5" data-name="Trazado 5" d="M314.354,104.705a10.449,10.449,0,0,0-5.338-1.359,10.663,10.663,0,0,0-5.378,1.359,9.739,9.739,0,0,0-3.743,3.8,11.072,11.072,0,0,0-1.359,5.476,10.9,10.9,0,0,0,1.4,5.516,9.687,9.687,0,0,0,3.96,3.8,13.3,13.3,0,0,0,10.579.492A9.145,9.145,0,0,0,318,121.273l-2.088-2.443a7.746,7.746,0,0,1-6.028,2.522,7.9,7.9,0,0,1-5.142-1.674,6.556,6.556,0,0,1-2.423-4.433H319.26a10.881,10.881,0,0,0,.079-1.143,11.587,11.587,0,0,0-1.32-5.594A9.554,9.554,0,0,0,314.354,104.705Zm-12.036,7.821a6.67,6.67,0,0,1,2.147-4.333,7.052,7.052,0,0,1,9.1.02,6.719,6.719,0,0,1,2.147,4.314Z" transform="translate(-224.111 -95.191)" fill="#371a9f"/>
      <path id="Trazado_6" data-name="Trazado 6" d="M382.536,107.05v-3.507h-3.625v20.881h3.782v-10.4a7.251,7.251,0,0,1,1.753-5.22,6.363,6.363,0,0,1,4.826-1.832,7.558,7.558,0,0,1,.867.039v-3.664a10.578,10.578,0,0,0-4.689.946A6.453,6.453,0,0,0,382.536,107.05Z" transform="translate(-279.429 -95.191)" fill="#371a9f"/>
    </g>
  </g>
</svg>
