<svg xmlns="http://www.w3.org/2000/svg" width="69.714" height="69.714" viewBox="0 0 69.714 69.714">
  <g id="dt_Logo" opacity="0.42">
    <path id="Trazado_1552" data-name="Trazado 1552" d="M7.347,38.071A30.727,30.727,0,1,1,38.074,68.8,30.726,30.726,0,0,1,7.347,38.071" transform="translate(-3.216 -3.216)" fill="none"/>
    <path id="Trazado_1553" data-name="Trazado 1553" d="M55.947,0a34.979,34.979,0,0,0-7.765.869l1.045,4.573a30.167,30.167,0,1,1-.007,58.828l-1.046,4.572A34.86,34.86,0,1,0,55.947,0" transform="translate(-21.09)" fill="#737373"/>
    <path id="Trazado_1554" data-name="Trazado 1554" d="M4.689,35.534A30.178,30.178,0,0,1,28.136,6.119L27.092,1.546a34.865,34.865,0,0,0-.008,67.973l1.046-4.572A30.178,30.178,0,0,1,4.689,35.534" transform="translate(0 -0.677)" fill="#737373"/>
    <path id="Trazado_1555" data-name="Trazado 1555" d="M42.042,31.441a7.99,7.99,0,0,1,4.121,3.068,10.749,10.749,0,0,1,1.724,3.9,18.733,18.733,0,0,1,.46,4,16.062,16.062,0,0,1-1.937,8.169A8.742,8.742,0,0,1,38.3,55.1H27.874V30.916H38.3a12.718,12.718,0,0,1,3.743.525m-9.264,3.675V50.9h4.666A5.038,5.038,0,0,0,42.44,47.37a12.417,12.417,0,0,0,.772-4.61,11.336,11.336,0,0,0-1.158-5.668q-1.159-1.977-4.609-1.977Z" transform="translate(-12.203 -13.535)" fill="#737373"/>
    <path id="Trazado_1556" data-name="Trazado 1556" d="M80.873,30.916V35.2H73.639V55.1H68.553V35.2H61.286V30.916Z" transform="translate(-26.83 -13.535)" fill="#737373"/>
    <path id="Trazado_1557" data-name="Trazado 1557" d="M33.115,80.368a1.361,1.361,0,0,1,.7.524,1.827,1.827,0,0,1,.294.667,3.2,3.2,0,0,1,.079.684,2.746,2.746,0,0,1-.331,1.4,1.493,1.493,0,0,1-1.385.771H30.694V80.278h1.781a2.171,2.171,0,0,1,.64.09M31.533,81v2.7h.8a.861.861,0,0,0,.853-.6,2.118,2.118,0,0,0,.132-.788,1.939,1.939,0,0,0-.2-.968A.836.836,0,0,0,32.331,81Z" transform="translate(-13.437 -35.145)" fill="#737373"/>
    <path id="Trazado_1558" data-name="Trazado 1558" d="M38.783,80.97h-.81v-.737h.81Zm-.81.364h.81v3.055h-.81Z" transform="translate(-16.624 -35.125)" fill="#737373"/>
    <path id="Trazado_1559" data-name="Trazado 1559" d="M42.48,82.063l.069,0v.819c-.051-.006-.1-.01-.134-.011l-.1,0a.661.661,0,0,0-.647.314,1.226,1.226,0,0,0-.093.544v1.46h-.8V82.134h.762v.532a1.711,1.711,0,0,1,.323-.418.876.876,0,0,1,.583-.188l.038,0" transform="translate(-17.851 -35.926)" fill="#737373"/>
    <path id="Trazado_1560" data-name="Trazado 1560" d="M46.565,82.191a1.245,1.245,0,0,1,.528.452,1.5,1.5,0,0,1,.243.631,3.923,3.923,0,0,1,.026.607H45.138a.732.732,0,0,0,.319.644.812.812,0,0,0,.44.115.621.621,0,0,0,.608-.35h.815a1,1,0,0,1-.3.552,1.483,1.483,0,0,1-1.149.446,1.668,1.668,0,0,1-1.076-.376,1.481,1.481,0,0,1-.466-1.223,1.656,1.656,0,0,1,.421-1.218,1.473,1.473,0,0,1,1.092-.423,1.738,1.738,0,0,1,.719.143m-1.195.69a.831.831,0,0,0-.213.473h1.376a.666.666,0,0,0-.213-.482.7.7,0,0,0-.474-.165.63.63,0,0,0-.477.174" transform="translate(-19.408 -35.92)" fill="#737373"/>
    <path id="Trazado_1561" data-name="Trazado 1561" d="M52.131,83.231a.709.709,0,0,0-.115-.308.484.484,0,0,0-.419-.185.55.55,0,0,0-.553.4,1.668,1.668,0,0,0-.079.564,1.529,1.529,0,0,0,.079.539.534.534,0,0,0,.539.381.474.474,0,0,0,.4-.152.751.751,0,0,0,.143-.392h.815a1.33,1.33,0,0,1-.264.689,1.282,1.282,0,0,1-1.114.525,1.3,1.3,0,0,1-1.086-.437,1.763,1.763,0,0,1-.348-1.133,1.79,1.79,0,0,1,.385-1.223,1.339,1.339,0,0,1,1.06-.437,1.6,1.6,0,0,1,.941.257,1.2,1.2,0,0,1,.433.911h-.817Z" transform="translate(-21.946 -35.926)" fill="#737373"/>
    <path id="Trazado_1562" data-name="Trazado 1562" d="M57.81,83.231a.7.7,0,0,0-.115-.308.484.484,0,0,0-.418-.185.55.55,0,0,0-.553.4,1.668,1.668,0,0,0-.079.564,1.529,1.529,0,0,0,.079.539.534.534,0,0,0,.539.381.476.476,0,0,0,.4-.152.746.746,0,0,0,.143-.392h.816a1.33,1.33,0,0,1-.264.689,1.282,1.282,0,0,1-1.114.525,1.3,1.3,0,0,1-1.086-.437,1.763,1.763,0,0,1-.348-1.133,1.79,1.79,0,0,1,.385-1.223,1.339,1.339,0,0,1,1.06-.437,1.6,1.6,0,0,1,.941.257,1.2,1.2,0,0,1,.433.911H57.81Z" transform="translate(-24.433 -35.926)" fill="#737373"/>
    <path id="Trazado_1563" data-name="Trazado 1563" d="M62.625,80.97h-.81v-.737h.81Zm-.81.364h.81v3.055h-.81Z" transform="translate(-27.062 -35.125)" fill="#737373"/>
    <path id="Trazado_1564" data-name="Trazado 1564" d="M67.033,83.9a1.683,1.683,0,0,1-2.348,0,1.9,1.9,0,0,1,0-2.295,1.665,1.665,0,0,1,2.348,0,1.9,1.9,0,0,1,0,2.295m-.639-.441a1.426,1.426,0,0,0,0-1.415.709.709,0,0,0-1.077,0,1.415,1.415,0,0,0,0,1.415.707.707,0,0,0,1.077,0m.421-3.49-.852.838h-.577l.538-.838Z" transform="translate(-28.149 -35.01)" fill="#737373"/>
    <path id="Trazado_1565" data-name="Trazado 1565" d="M73.335,82.311a1.012,1.012,0,0,1,.3.823v2.057h-.819V83.333a.852.852,0,0,0-.064-.37.45.45,0,0,0-.445-.235.551.551,0,0,0-.554.345,1.2,1.2,0,0,0-.078.466v1.653h-.8V82.142h.774v.446a1.357,1.357,0,0,1,.29-.339,1.006,1.006,0,0,1,.622-.185,1.168,1.168,0,0,1,.772.247" transform="translate(-31.029 -35.927)" fill="#737373"/>
    <path id="Trazado_1566" data-name="Trazado 1566" d="M81.406,81.408a.974.974,0,0,1,.35.338V80.289h.81v4.125H81.79v-.423a1.125,1.125,0,0,1-.39.4,1.1,1.1,0,0,1-.544.123,1.136,1.136,0,0,1-.9-.433,1.663,1.663,0,0,1-.366-1.111,1.911,1.911,0,0,1,.36-1.23,1.172,1.172,0,0,1,.963-.448.977.977,0,0,1,.494.121m.2,2.176a1.115,1.115,0,0,0,.177-.653,1,1,0,0,0-.283-.8.608.608,0,0,0-.4-.146.562.562,0,0,0-.514.265,1.429,1.429,0,0,0,0,1.334.564.564,0,0,0,.506.254.59.59,0,0,0,.516-.252" transform="translate(-34.843 -35.15)" fill="#737373"/>
    <path id="Trazado_1567" data-name="Trazado 1567" d="M87.979,82.191a1.243,1.243,0,0,1,.527.452,1.5,1.5,0,0,1,.243.631,3.853,3.853,0,0,1,.026.607H86.552a.732.732,0,0,0,.319.644.812.812,0,0,0,.44.115.676.676,0,0,0,.444-.14.668.668,0,0,0,.164-.21h.815a1,1,0,0,1-.3.552,1.483,1.483,0,0,1-1.149.446,1.668,1.668,0,0,1-1.076-.376,1.481,1.481,0,0,1-.466-1.223,1.656,1.656,0,0,1,.421-1.218,1.473,1.473,0,0,1,1.092-.423,1.739,1.739,0,0,1,.719.143m-1.2.69a.831.831,0,0,0-.213.473h1.376a.666.666,0,0,0-.213-.482.7.7,0,0,0-.474-.165.632.632,0,0,0-.477.174" transform="translate(-37.539 -35.92)" fill="#737373"/>
    <rect id="Rectángulo_754" data-name="Rectángulo 754" width="0.798" height="4.131" transform="translate(51.658 45.133)" fill="#737373"/>
    <path id="Trazado_1568" data-name="Trazado 1568" d="M47.326,92.529v.731H46.09v3.4h-.869v-3.4H43.979v-.731Z" transform="translate(-19.253 -40.508)" fill="#737373"/>
    <path id="Trazado_1569" data-name="Trazado 1569" d="M51.846,94.315l.069,0v.819c-.05-.006-.1-.01-.134-.011l-.1,0a.663.663,0,0,0-.648.314,1.227,1.227,0,0,0-.092.544v1.46h-.8V94.386H50.9v.532a1.712,1.712,0,0,1,.322-.418.877.877,0,0,1,.583-.188l.038,0" transform="translate(-21.951 -41.289)" fill="#737373"/>
    <path id="Trazado_1570" data-name="Trazado 1570" d="M55.177,95.583a1.248,1.248,0,0,0,.319-.07.24.24,0,0,0,.172-.227.268.268,0,0,0-.132-.259.84.84,0,0,0-.388-.071.507.507,0,0,0-.406.141.58.58,0,0,0-.114.281h-.771a1.169,1.169,0,0,1,.225-.659,1.311,1.311,0,0,1,1.092-.4,1.948,1.948,0,0,1,.9.2.764.764,0,0,1,.391.751v1.4c0,.1,0,.215.006.353a.446.446,0,0,0,.047.213.285.285,0,0,0,.117.093v.118h-.869a.858.858,0,0,1-.05-.174c-.01-.054-.017-.116-.022-.185a1.627,1.627,0,0,1-.383.305,1.159,1.159,0,0,1-.586.148,1.013,1.013,0,0,1-.689-.237.842.842,0,0,1-.272-.671.871.871,0,0,1,.437-.816,1.956,1.956,0,0,1,.706-.2Zm.488.372a.843.843,0,0,1-.155.077,1.358,1.358,0,0,1-.215.055l-.182.034a1.2,1.2,0,0,0-.367.11.364.364,0,0,0-.188.339.354.354,0,0,0,.115.3.439.439,0,0,0,.281.091.835.835,0,0,0,.482-.151.642.642,0,0,0,.229-.552v-.3Z" transform="translate(-23.536 -41.29)" fill="#737373"/>
    <path id="Trazado_1571" data-name="Trazado 1571" d="M62.393,93.977a1.757,1.757,0,0,1,.342,1.121,1.963,1.963,0,0,1-.338,1.18,1.227,1.227,0,0,1-1.555.317,1.205,1.205,0,0,1-.3-.314v.384h-.788V92.541h.8v1.468a1.172,1.172,0,0,1,.336-.325,1,1,0,0,1,.553-.141,1.138,1.138,0,0,1,.95.433m-.668,1.861a1.127,1.127,0,0,0,.173-.656,1.459,1.459,0,0,0-.085-.538.59.59,0,0,0-.594-.4.6.6,0,0,0-.6.4,1.466,1.466,0,0,0-.085.544,1.131,1.131,0,0,0,.175.65.6.6,0,0,0,.534.257.553.553,0,0,0,.483-.25" transform="translate(-26.16 -40.514)" fill="#737373"/>
    <path id="Trazado_1572" data-name="Trazado 1572" d="M67.09,95.583a1.248,1.248,0,0,0,.319-.07.24.24,0,0,0,.172-.227.268.268,0,0,0-.132-.259.84.84,0,0,0-.387-.071.509.509,0,0,0-.406.141.58.58,0,0,0-.114.281h-.771A1.169,1.169,0,0,1,66,94.718a1.312,1.312,0,0,1,1.092-.4,1.948,1.948,0,0,1,.9.2.764.764,0,0,1,.391.751v1.4c0,.1,0,.215.006.353a.438.438,0,0,0,.048.213.281.281,0,0,0,.117.093v.118h-.869a.862.862,0,0,1-.051-.174c-.009-.054-.016-.116-.022-.185a1.638,1.638,0,0,1-.383.305,1.158,1.158,0,0,1-.586.148,1.013,1.013,0,0,1-.689-.237.844.844,0,0,1-.272-.671.87.87,0,0,1,.437-.816,1.956,1.956,0,0,1,.706-.2Zm.489.372a.843.843,0,0,1-.155.077,1.365,1.365,0,0,1-.214.055l-.182.034a1.2,1.2,0,0,0-.367.11.365.365,0,0,0-.189.339.354.354,0,0,0,.116.3.439.439,0,0,0,.281.091.835.835,0,0,0,.482-.151.642.642,0,0,0,.229-.552v-.3Z" transform="translate(-28.751 -41.29)" fill="#737373"/>
    <path id="Trazado_1573" data-name="Trazado 1573" d="M71.1,97.226l.1.007.05,0a.247.247,0,0,0,.178-.058.31.31,0,0,0,.06-.223V93.6h.8v3.369a1.064,1.064,0,0,1-.182.684.9.9,0,0,1-.715.222c-.024,0-.06,0-.108,0l-.178-.006Zm1.183-4h-.8v-.737h.8Z" transform="translate(-31.128 -40.489)" fill="#737373"/>
    <path id="Trazado_1574" data-name="Trazado 1574" d="M76.958,97.048a1.684,1.684,0,0,1-2.349,0,1.895,1.895,0,0,1,0-2.294,1.665,1.665,0,0,1,2.349,0,1.895,1.895,0,0,1,0,2.294m-.639-.441a1.426,1.426,0,0,0,0-1.415.709.709,0,0,0-1.077,0,1.419,1.419,0,0,0,0,1.415.707.707,0,0,0,1.077,0" transform="translate(-32.494 -41.27)" fill="#737373"/>
  </g>
</svg>
