<svg xmlns="http://www.w3.org/2000/svg" width="117.687" height="58.249" viewBox="0 0 117.687 58.249">
  <g id="Falabella" opacity="0.42">
    <path id="Trazado_1437" data-name="Trazado 1437" d="M312.24,263.172c.694-3.693,1.337-6.915,3.72-9.612a8.025,8.025,0,0,1,6.015-2.932,12.609,12.609,0,0,1,1.445.1l-.167,1.391a5.81,5.81,0,0,0-1.962,0,4.153,4.153,0,0,0-2.209,1.545c-1.24,1.464-1.686,3.178-2.478,7.162l-2.511,13.194h6.274l-.382,1.758h-6.227l-3.913,20.556c-.695,3.69-1.339,6.914-3.72,9.609a8.026,8.026,0,0,1-6.051,2.932l-.776-.021.415-1.5a4.122,4.122,0,0,0,.716-.036,3.811,3.811,0,0,0,2.8-1.84c1.175-1.775,1.456-2.814,2.251-6.8l4.359-22.9h-6.173l.383-1.758h6.124l2.065-10.848Z" transform="translate(-299.298 -250.627)" fill="#737373"/>
    <path id="Trazado_1438" data-name="Trazado 1438" d="M476.813,290.366l-.284,1.357h-.084a3.507,3.507,0,0,0-3.366-1.756c-4.071,0-6.4,3.374-7.088,6.609-.98,4.628.41,7.277,4.258,7.277a6.044,6.044,0,0,0,4.563-1.925l.712,1.507h1.671l2.485-13.07Zm-6.158,12.3c3,0,4.285-3.756,4.6-4.825s1.834-6.561-1.681-6.561c-2.893,0-4.2,3.864-4.474,4.905s-2.036,6.481,1.555,6.481Z" transform="translate(-366.876 -266.605)" fill="#737373" fill-rule="evenodd"/>
    <path id="Trazado_1439" data-name="Trazado 1439" d="M459.4,267.209s-4.089,21.159-4.434,23.206c-.542,3.21,1.119,3.67,2.01,3.8a7.53,7.53,0,0,0,2.716-.029l.168-1.072a3.029,3.029,0,0,1-1.339.072c-1.04-.188-1.167-.791-.907-2.5.31-2.035,4.466-23.48,4.466-23.48Z" transform="translate(-362.479 -257.362)" fill="#737373"/>
    <path id="Trazado_1440" data-name="Trazado 1440" d="M426.644,290.047a7.589,7.589,0,0,0-7.515,6.231c-1.262,6.437,3.514,7.673,5.527,7.673a6.776,6.776,0,0,0,4.118-1.366l-.91-1.059a4.789,4.789,0,0,1-2.511.773c-3.331,0-3.8-2.834-3.628-4.817h9.569c.979-3.255-.077-7.434-4.649-7.434Zm2.164,5.921h-6.82c.456-1.756,1.9-4.515,4.412-4.515,2.733,0,2.808,2.759,2.409,4.515Z" transform="translate(-347.882 -266.637)" fill="#737373" fill-rule="evenodd"/>
    <path id="Trazado_1441" data-name="Trazado 1441" d="M342.534,290.366l-.284,1.357h-.086a3.5,3.5,0,0,0-3.366-1.756c-4.07,0-6.4,3.374-7.088,6.609-.981,4.628.41,7.277,4.258,7.277a6.044,6.044,0,0,0,4.562-1.925l.713,1.507h1.67l2.484-13.07Zm-6.158,12.3c3,0,4.285-3.756,4.6-4.825s1.833-6.561-1.681-6.561c-2.893,0-4.2,3.864-4.473,4.905s-2.036,6.481,1.555,6.481Z" transform="translate(-312.339 -266.605)" fill="#737373" fill-rule="evenodd"/>
    <path id="Trazado_1442" data-name="Trazado 1442" d="M402.511,280.667a6.2,6.2,0,0,0-4.523,2.153l3.033-15.774h-2.691s-4.1,21.836-5.262,27.086h1.69l.954-1.5a3.891,3.891,0,0,0,3.748,1.925c3.848,0,6.361-2.649,7.341-7.278.686-3.234-.217-6.608-4.289-6.608Zm1.026,7.875c-.282,1.07-1.576,4.824-4.269,4.824-3.223,0-2.155-5.438-1.887-6.48.434-1.69,1.383-4.785,4.05-4.785,3.633,0,2.386,5.372,2.106,6.441Z" transform="translate(-337.382 -257.295)" fill="#737373" fill-rule="evenodd"/>
    <path id="Trazado_1443" data-name="Trazado 1443" d="M491.246,308.542a1.849,1.849,0,1,1,1.849,1.849,1.848,1.848,0,0,1-1.849-1.849Z" transform="translate(-377.257 -273.398)" fill="#737373"/>
    <path id="Trazado_1444" data-name="Trazado 1444" d="M379.365,290.366l-.285,1.357h-.085a3.506,3.506,0,0,0-3.365-1.756c-4.071,0-6.4,3.374-7.089,6.609-.98,4.628.41,7.277,4.259,7.277a6.045,6.045,0,0,0,4.563-1.925l.713,1.507h1.67l2.485-13.07Zm-6.158,12.3c3,0,4.285-3.756,4.6-4.825s1.833-6.561-1.681-6.561c-2.893,0-4.2,3.864-4.474,4.905s-2.036,6.481,1.555,6.481Z" transform="translate(-327.297 -266.605)" fill="#737373" fill-rule="evenodd"/>
    <path id="Trazado_1445" data-name="Trazado 1445" d="M447.014,267.209s-4.089,21.159-4.434,23.206c-.542,3.21,1.119,3.67,2.009,3.8a7.534,7.534,0,0,0,2.716-.029l.168-1.072a3.03,3.03,0,0,1-1.339.072c-1.039-.188-1.168-.791-.907-2.5.31-2.035,4.466-23.48,4.466-23.48Z" transform="translate(-357.449 -257.362)" fill="#737373"/>
    <path id="Trazado_1446" data-name="Trazado 1446" d="M361.952,267.209s-4.089,21.159-4.434,23.206c-.542,3.21,1.119,3.67,2.01,3.8a7.534,7.534,0,0,0,2.716-.029l.167-1.072a3.029,3.029,0,0,1-1.339.072c-1.039-.188-1.168-.791-.907-2.5.309-2.035,4.465-23.48,4.465-23.48Z" transform="translate(-322.901 -257.362)" fill="#737373"/>
  </g>
</svg>
