<svg xmlns="http://www.w3.org/2000/svg" width="108.683" height="35.741" viewBox="0 0 108.683 35.741">
  <g id="Forus" opacity="0.42">
    <path id="Trazado_1447" data-name="Trazado 1447" d="M56.973,104.218H74.428V108.8H62.016v4.879H72.954v4.585H62.016v8.875H56.973Z" transform="translate(-55.772 -103.61)" fill="#737373"/>
    <path id="Trazado_1448" data-name="Trazado 1448" d="M271.28,104.218h10.48a9.136,9.136,0,0,1,6.681,2.325,7.2,7.2,0,0,1,1.965,5.24v.066a7.12,7.12,0,0,1-4.912,7.107l5.6,8.187H285.2l-4.912-7.336h-3.963v7.336H271.28Zm10.152,11.134c2.456,0,3.864-1.31,3.864-3.242v-.065c0-2.161-1.506-3.275-3.962-3.275h-5.011v6.582Z" transform="translate(-224.329 -103.61)" fill="#737373"/>
    <path id="Trazado_1449" data-name="Trazado 1449" d="M374.369,117.317v-13.1h5.043v12.968c0,3.733,1.867,5.665,4.945,5.665s4.945-1.867,4.945-5.5V104.218h5.043v12.935c0,6.943-3.9,10.348-10.054,10.348S374.369,124.063,374.369,117.317Z" transform="translate(-305.41 -103.61)" fill="#737373"/>
    <path id="Trazado_1450" data-name="Trazado 1450" d="M475.465,122.594l2.98-3.57a10.516,10.516,0,0,0,6.844,2.784c2.063,0,3.308-.819,3.308-2.161v-.066c0-1.277-.786-1.932-4.617-2.915-4.618-1.179-7.6-2.456-7.6-7.008v-.065c0-4.159,3.34-6.91,8.023-6.91a13.271,13.271,0,0,1,8.515,2.914l-2.62,3.8a10.755,10.755,0,0,0-5.96-2.259c-1.932,0-2.947.884-2.947,2v.066c0,1.507.983,2,4.945,3.013,4.65,1.212,7.27,2.882,7.27,6.877v.066c0,4.552-3.471,7.107-8.416,7.107A14.589,14.589,0,0,1,475.465,122.594Z" transform="translate(-384.924 -102.403)" fill="#737373"/>
    <g id="Grupo_1417" data-name="Grupo 1417" transform="translate(0 30.565)">
      <path id="Trazado_1451" data-name="Trazado 1451" d="M51.349,247.146v-.014a2.533,2.533,0,0,1,2.581-2.588,2.609,2.609,0,0,1,1.959.779l-.565.651a1.991,1.991,0,0,0-1.4-.622,1.68,1.68,0,0,0-1.651,1.766v.014a1.692,1.692,0,0,0,1.651,1.78,1.962,1.962,0,0,0,1.437-.651l.565.572a2.583,2.583,0,0,1-2.031.887A2.517,2.517,0,0,1,51.349,247.146Z" transform="translate(-51.349 -244.543)" fill="#737373"/>
      <path id="Trazado_1452" data-name="Trazado 1452" d="M84.78,247.146v-.014a2.617,2.617,0,0,1,5.234-.014v.014a2.617,2.617,0,0,1-5.234.014Zm4.312,0v-.014a1.715,1.715,0,0,0-1.7-1.78,1.691,1.691,0,0,0-1.687,1.766v.014a1.715,1.715,0,0,0,1.7,1.78A1.691,1.691,0,0,0,89.092,247.146Z" transform="translate(-77.643 -244.543)" fill="#737373"/>
      <path id="Trazado_1453" data-name="Trazado 1453" d="M123.671,244.944h.815l2.681,3.461v-3.461h.865v5.005H127.3l-2.76-3.561v3.561h-.865Z" transform="translate(-108.232 -244.858)" fill="#737373"/>
      <path id="Trazado_1454" data-name="Trazado 1454" d="M157.939,248.957l.529-.629a2.3,2.3,0,0,0,1.58.651c.543,0,.887-.25.887-.629v-.014c0-.358-.2-.551-1.13-.765-1.065-.257-1.666-.572-1.666-1.494v-.015a1.531,1.531,0,0,1,1.709-1.451,2.773,2.773,0,0,1,1.816.629l-.472.665a2.275,2.275,0,0,0-1.359-.515c-.515,0-.815.264-.815.593V246c0,.386.229.558,1.187.786,1.058.257,1.609.636,1.609,1.466v.015c0,.937-.736,1.494-1.788,1.494A3.084,3.084,0,0,1,157.939,248.957Z" transform="translate(-135.184 -244.595)" fill="#737373"/>
      <path id="Trazado_1455" data-name="Trazado 1455" d="M189.963,247.826v-2.882h.88v2.846c0,.93.479,1.43,1.265,1.43s1.259-.472,1.259-1.394v-2.882h.879v2.839a2,2,0,0,1-2.152,2.245A1.973,1.973,0,0,1,189.963,247.826Z" transform="translate(-160.372 -244.858)" fill="#737373"/>
      <path id="Trazado_1456" data-name="Trazado 1456" d="M225.068,244.944H226l1.523,2.367,1.523-2.367h.937v5.005h-.879V246.36l-1.58,2.36H227.5l-1.566-2.345v3.575h-.865Z" transform="translate(-187.982 -244.858)" fill="#737373"/>
      <path id="Trazado_1457" data-name="Trazado 1457" d="M263.523,244.944h3.711v.787H264.4v1.3h2.509v.786H264.4v1.344h2.867v.787h-3.747Z" transform="translate(-218.228 -244.858)" fill="#737373"/>
      <path id="Trazado_1458" data-name="Trazado 1458" d="M295.347,244.944h2.231a2.016,2.016,0,0,1,1.444.5,1.512,1.512,0,0,1,.415,1.08v.014a1.5,1.5,0,0,1-1.194,1.516l1.351,1.895h-1.037l-1.23-1.745h-1.1v1.745h-.88Zm2.166,2.481c.629,0,1.03-.329,1.03-.837v-.014c0-.536-.386-.83-1.037-.83h-1.28v1.68Z" transform="translate(-243.258 -244.858)" fill="#737373"/>
      <path id="Trazado_1459" data-name="Trazado 1459" d="M348.373,244.944H352.1v.8h-2.846v1.366h2.524v.8h-2.524v2.038h-.88Z" transform="translate(-284.964 -244.858)" fill="#737373"/>
      <path id="Trazado_1460" data-name="Trazado 1460" d="M377.241,244.777h.815l2.2,5.041h-.929l-.508-1.209h-2.367l-.515,1.209h-.9Zm1.258,3.053-.865-2-.858,2Z" transform="translate(-305.937 -244.727)" fill="#737373"/>
      <path id="Trazado_1461" data-name="Trazado 1461" d="M412.891,244.944h.815l2.681,3.461v-3.461h.865v5.005h-.737l-2.76-3.561v3.561h-.865Z" transform="translate(-335.709 -244.858)" fill="#737373"/>
      <path id="Trazado_1462" data-name="Trazado 1462" d="M448.926,244.777h.815l2.2,5.041h-.93l-.508-1.209H448.14l-.515,1.209h-.9Zm1.259,3.053-.865-2-.858,2Z" transform="translate(-362.319 -244.727)" fill="#737373"/>
      <path id="Trazado_1463" data-name="Trazado 1463" d="M481.474,245.759h-1.587v-.815h4.061v.815h-1.587v4.19h-.886Z" transform="translate(-388.402 -244.858)" fill="#737373"/>
      <path id="Trazado_1464" data-name="Trazado 1464" d="M512.882,244.944h.88v5.005h-.88Z" transform="translate(-414.354 -244.858)" fill="#737373"/>
      <path id="Trazado_1465" data-name="Trazado 1465" d="M531.607,247.146v-.014a2.533,2.533,0,0,1,2.581-2.588,2.608,2.608,0,0,1,1.959.779l-.565.651a1.991,1.991,0,0,0-1.4-.622,1.68,1.68,0,0,0-1.652,1.766v.014a1.693,1.693,0,0,0,1.652,1.78,1.961,1.961,0,0,0,1.437-.651l.565.572a2.583,2.583,0,0,1-2.031.887A2.517,2.517,0,0,1,531.607,247.146Z" transform="translate(-429.081 -244.543)" fill="#737373"/>
    </g>
    <path id="Trazado_1466" data-name="Trazado 1466" d="M161.232,119.788a7.2,7.2,0,1,1-.475-12.881,1.068,1.068,0,0,0,1.2-.222l2.03-2.043a1.074,1.074,0,0,0-.226-1.689,12.1,12.1,0,1,0,.745,20.562,1.076,1.076,0,0,0,.109-1.707l-2.173-1.887A1.066,1.066,0,0,0,161.232,119.788Z" transform="translate(-125.542 -101.37)" fill="#737373"/>
    <path id="Trazado_1467" data-name="Trazado 1467" d="M230.195,120.109l-2.115,2.129a.956.956,0,0,0-.063,1.272,7.2,7.2,0,0,1,.311,8.522.955.955,0,0,0,.157,1.262l2.265,1.967a.955.955,0,0,0,1.4-.158,12.089,12.089,0,0,0-.551-14.944A.953.953,0,0,0,230.195,120.109Z" transform="translate(-190.135 -115.886)" fill="#737373"/>
  </g>
</svg>
