<svg xmlns="http://www.w3.org/2000/svg" width="160.582" height="209.252" viewBox="0 0 160.582 209.252"><defs><style>.a{fill:#52ddd4;}.b{fill:#371a9f;}.c{fill:#737373;}.d{fill:#545454;}</style></defs><g transform="translate(0 0)"><path class="a" d="M1553.123,320.385c2.717-6.207.025-7.9-1.77-17.6a46.9,46.9,0,0,0-4.836-13.885l-108.764,28.519a50.665,50.665,0,0,0,.374,11.916c2.069,13.138,9.847,29.242,14.908,36.1s7.529,11.891,7.753,16.4c.673,13.013-2.144,25.652-10.2,44.9,0,0,67.059,0,72.992.025a22.262,22.262,0,0,1-2.842-9.249,44.5,44.5,0,0,1,1.795-17.45c1.022-3.091,4.736-5.235,8.326-5.285,5.883-.1,11.168,1.745,20.317.05,4.736-.873,4.487-7.9,3.29-12.838-1.172-4.911,2.717-5.958,2.668-7.977-.025-1.122.449-1.969-2.368-3.665,5.16-2.792,3.365-5.385,2.443-7.454-3.365-7.354.4-7.329,1.895-7.9,1.5-.6,5.534-1.346,5.958-4.612.449-3.291-4.512-9.448-8.4-14.658C1552.774,330.481,1550.929,325.471,1553.123,320.385Z" transform="translate(-1404.51 -217.504)"/><path class="a" d="M1322.913,10.677c-8.75,8.127-13.586,19.943-16.852,35.324-3.091,14.534.424,30.313,8.775,40.933,5.185,6.606,14.284,12.34,23.383,15.481l-.1-99.915A34.322,34.322,0,0,0,1322.913,10.677Z" transform="translate(-1304.953 -2.5)"/><g transform="translate(81.357 12.352) rotate(30)"><path class="b" d="M17.7,0A17.7,17.7,0,0,0,0,17.7a17.952,17.952,0,0,0,2.368,8.825C6.706,34.352,7.852,38.739,8.576,43c.6,3.565,1.421,4.387,4.113,4.387H22.71c2.692,0,3.515-.823,4.113-4.387.7-4.263,1.87-8.65,6.207-16.478A18.223,18.223,0,0,0,35.4,17.7,17.719,17.719,0,0,0,17.7,0Z" transform="translate(0 0)"/><path class="c" d="M13.586,0H.947A.947.947,0,0,0,0,.947V1.57a.947.947,0,0,0,.947.947H13.586a.947.947,0,0,0,.947-.947V.947A.947.947,0,0,0,13.586,0Z" transform="translate(10.42 48.661)"/><path class="c" d="M13.586,0H.947A.947.947,0,0,0,0,.947v.623a.947.947,0,0,0,.947.947H13.586a.947.947,0,0,0,.947-.947V.947A.947.947,0,0,0,13.586,0Z" transform="translate(10.42 52.774)"/><path class="d" d="M0,0H9.473c0,1.895-2.518,3.166-4.737,3.166S0,1.895,0,0Z" transform="translate(12.963 56.563)"/></g></g></svg>