<svg xmlns="http://www.w3.org/2000/svg" width="169.932" height="169.933" viewBox="0 0 169.932 169.933"><defs><style>.a{fill:#52ddd4;}.a,.b{fill-rule:evenodd;}.b{fill:#371a9f;}</style></defs><g transform="translate(0 0)"><g transform="translate(0 0)"><g transform="translate(0 0)"><g transform="translate(0 0)"><path class="a" d="M85.758,69.288a3.035,3.035,0,0,1-6.069,0V57.15a3.035,3.035,0,1,1,6.069,0ZM139.1,7.967c-2.224,1.153-4.242,2.78-6.512,3.924a57.178,57.178,0,0,1-7.438,3.077,95.318,95.318,0,0,1-15.534,3.626,169.379,169.379,0,0,1-55.92-.361,90.193,90.193,0,0,1-14.648-3.7c-4.312-1.538-9.48-3.562-12.79-6.831-.686,3.438-1.59,6.876-2.385,10.3q-2.872,12.367-5.75,24.737Q14.6,57.906,11.073,73.075q-3.15,13.541-6.3,27.083-1.743,7.488-3.484,14.978c-.064.276-.127.549-.191.825,9.474-6.369,25.229-10.942,43.229-13.6.413-.061.825-.127,1.244-.185,11.343-1.636,22.677-2.115,34.114-2.543V87.5a3.035,3.035,0,0,1,6.069,0s0,12.138-.006,12.162c.137-.668,15.549.592,17.03.7a216.382,216.382,0,0,1,35.212,5.241A115.865,115.865,0,0,1,153,110.223c2.085.816,4.139,1.711,6.139,2.719.865.437,4.983,2.063,5.207,3.016q-1.256-5.412-2.519-10.824-3.018-12.982-6.036-25.963Q152.146,63.5,148.5,47.813,145.357,34.3,142.218,20.8q-.988-4.251-1.975-8.5a17.655,17.655,0,0,0-1.138-4.33Z" transform="translate(2.242 15.679)"/><path class="b" d="M157.794,67.449H145.656a3.035,3.035,0,0,1,0-6.069h12.138a3.035,3.035,0,0,1,0,6.069m-30.345,0H115.311a3.035,3.035,0,1,1,0-6.069h12.138a3.035,3.035,0,0,1,0,6.069m-30.345,0H84.966a3.032,3.032,0,0,1-3.035-3.035V52.276a3.034,3.034,0,1,1,6.069,0v9.1h9.1a3.035,3.035,0,0,1,0,6.069m72.2-5.659c-3.211-7.007-13.34-10.481-19.979-12.775-13.276-4.582-27.347-6.676-41.287-7.893-28.7-2.5-60.056-1.584-87.518,7.923C13.889,51.339,3.842,54.807.592,61.838A6.462,6.462,0,0,0,0,64.414C0,75.9,34.894,88.69,84.966,88.69S169.932,75.9,169.932,64.414a6.328,6.328,0,0,0-.628-2.625" transform="translate(0 81.243)"/><g transform="translate(30.345)"><path class="b" d="M45.326.054,17.879,27.5c3.39.695,7.1,1.287,11.121,1.751L57.992.261C54.972.109,51.862,0,48.591,0c-1.114,0-2.179.036-3.265.055" transform="translate(6.029 0)"/><path class="b" d="M33.192,1.756,12.524,22.136a58.918,58.918,0,0,0,9.343,3.42L47.29.133c-5.122.346-9.811.913-14.1,1.623" transform="translate(-4.865 0.272)"/><path class="b" d="M10,12.188c0,1.241.825,2.582,2.367,3.933L27.224,1.467C16.181,4.568,10,8.744,10,12.188" transform="translate(-10 2.986)"/><path class="b" d="M35.861,29.781c.27,0,.519-.012.786-.012L64.826,1.937C61.284,1.269,57.443.7,53.261.277L24.136,29.405c3.708.24,7.617.376,11.725.376" transform="translate(18.76 0.565)"/><path class="b" d="M60.052,8.5c0-1.639-1.417-3.444-4.063-5.222l-16.9,16.9C52.475,17.028,60.052,12.316,60.052,8.5" transform="translate(49.19 6.672)"/><path class="b" d="M44.615,26.092,66.409,4.3A67.558,67.558,0,0,0,57.524,1.34l-26.33,26c4.8-.252,9.307-.674,13.422-1.25" transform="translate(33.118 2.728)"/></g></g></g></g></g></svg>