<svg xmlns="http://www.w3.org/2000/svg" width="825.721" height="599.716" viewBox="0 0 825.721 599.716">
  <g id="illus-portada" transform="translate(-639.127 173.713)">
    <path id="Trazado_1" data-name="Trazado 1" d="M1421.509,55.552c-1.847-.005-3.931-.44-5.865-.627-2.227-.215-4.457-.389-6.688-.555q-5.792-.436-11.588-.789-12.365-.758-24.746-1.207-25.515-.948-51.057-.752c-8.822.078-17.642.281-26.455.66h-.015l-.233.011a1.718,1.718,0,0,0-1.664,1.555q-4.511,8.046-8.891,16.167a1.627,1.627,0,0,0-.568,1.055q-10.054,18.673-19.409,37.713-13.852,28.216-26.12,57.174c-4.387,10.357-8.882,20.843-10.621,32.03-5.57.025-11.139-.009-16.708-.139-16.538-.389-33.017-1.975-49.552-2.419a396.444,396.444,0,0,0-55.819,2.46,1.8,1.8,0,0,0-1.75,1.75,1.759,1.759,0,0,0,1.75,1.75,396.827,396.827,0,0,1,49.773-2.576c16.552.191,33.035,1.767,49.571,2.357,33.183,1.184,66.346-1.156,99.517-1.692a503.008,503.008,0,0,1,55.651,1.734,1.538,1.538,0,0,0,1.621-2.03l1.221-2.91,3.769-8.983,5.55-13.227,6.806-16.221,7.419-17.684,7.527-17.939q2.021-4.826,4.049-9.651c3.847-7.765,7-15.858,10.254-23.884a225.352,225.352,0,0,1,14.787-30.5,1.766,1.766,0,0,0-1.513-2.635Zm-77.7-.389q25.3.311,50.564,1.739,6.551.38,13.1.855c2.347.173,4.7.348,7.039.559,1.382.124,2.762.263,4.14.429-2.853,4.977-5.462,10.072-7.877,15.265-16.153-1.244-32.346-1.867-48.539-2.264-16.311-.4-32.626-.587-48.936-1.016q-12.465-.328-24.922-.908,3.834-7.069,7.769-14.085c15.878-.657,31.778-.768,47.666-.576Zm-83.172,142.113c-9.839.324-19.683.6-29.527.688,1.609-9.459,5.159-18.432,8.857-27.251q6.024-14.359,12.46-28.542,12.9-28.464,27.35-56.182,3.337-6.4,6.762-12.749c16.053.806,32.119,1.157,48.192,1.457,16.309.3,32.621.567,48.918,1.244q12.671.525,25.323,1.447l-.524,1.25-3.769,8.983-5.55,13.227q-2.081,4.959-4.162,9.919c-.1.2-.187.389-.285.587-2.274,4.54-4.91,8.885-6.858,13.584-1.967,4.744-3.473,9.672-5.285,14.476-3.535,9.377-7.508,18.576-11.5,27.764-4.367,10.058-8.71,20.129-12.546,30.408C1325.95,194.634,1293.241,196.2,1260.638,197.276Z" transform="translate(-103.283 -40.74)" fill="#371a9f"/>
    <path id="Trazado_2" data-name="Trazado 2" d="M1680.962,554.932l-1.463.69c-1.919-4.409-5.169-7.97-7.724-11.977-4.946-7.75-10.234-15.284-15.452-22.857-2.963-4.3-5.506-8.9-9.1-12.754-.078-.916-1.212-1.47-.864-2.53a24.313,24.313,0,0,0,7.544-4.8c.573-.5,1.011-1.141,1.722.078,3.119,5.355,6.922,10.25,10.449,15.335,4.833,6.972,9.474,14.077,14.2,21.125,2.511,3.746,4.878,7.6,7.605,11.183,1.153,1.514.492,1.687-.573,2.523C1685.318,552.511,1682.564,552.807,1680.962,554.932Z" transform="translate(-223.882 -140.436)" fill="#371a9f"/>
    <path id="Trazado_3" data-name="Trazado 3" d="M1310.94,338.159c4.787-13.7-2.955-26.483-3.9-27.99-4.964-7.918-15.354-16.668-20.173-21.919-2.076-2.262-4.051-4.621-6.26-6.754a70.512,70.512,0,0,0-8.01-6.476c-10.489-7.51-18.939-12.856-29.662-13.939a41.565,41.565,0,0,0-22.576,4.488,25.628,25.628,0,0,0-14.232,19.092q-.078.537-.135,1.089c-1.075,10.383,4.145,18.2,6.455,21.659,2.456,3.678,4.613,5.536,10.242,10.705q16.949,15.563,34.547,30.4c3.012,2.534,6.091,5.845,11.5,8.045a32.51,32.51,0,0,0,15.059,2.167C1294.555,357.62,1306.7,350.291,1310.94,338.159Z" transform="translate(-125.976 -87.266)" fill="#007aff"/>
    <g id="Grupo_1" data-name="Grupo 1" transform="translate(1188.742 158.672)">
      <path id="Trazado_4" data-name="Trazado 4" d="M1610.493,357.705a136.227,136.227,0,0,0-11.1-39.984,125.433,125.433,0,0,0-16.015-26.235,141.946,141.946,0,0,0-13.933-15.049,140.514,140.514,0,0,0-24.528-18.521,117.2,117.2,0,0,0-33.967-13.628,110.441,110.441,0,0,0-19.849-2.562,140.9,140.9,0,0,0-44.791,5.918,135.559,135.559,0,0,0-35.828,16.2,78.341,78.341,0,0,0-12.247,9.69,43.337,43.337,0,0,0-4.666,5.354c.093-.089.181-.182.273-.271a1.112,1.112,0,0,1,.735-.323,1.079,1.079,0,0,1,.915.323c.1.095.193.191.292.285,2.237,2.125,4.421,4.312,6.629,6.467l13.177,12.852,17,16.587,17.874,17.434,16.064,15.669,11.3,11.025c2.269,2.213,4.477,4.425,6.65,6.734,10.956,11.642,22.095,23.065,34.33,33.38,5.956,5.022,11.881,10.039,17.036,15.906,4.049,4.609,7.466,9.655,11.084,14.592a131.081,131.081,0,0,0,27.847,27.67,1.48,1.48,0,0,1,.49.635,34.375,34.375,0,0,0,2.632-2.383c2.614-2.623,4.959-5.509,7.3-8.371,2.743-3.351,5.381-6.779,7.834-10.35a122.039,122.039,0,0,0,10.1-17.414,90.127,90.127,0,0,0,7.086-25.773A139.556,139.556,0,0,0,1610.493,357.705Z" transform="translate(-1356.446 -241.663)" fill="#ff2d55"/>
      <path id="Trazado_5" data-name="Trazado 5" d="M1564.656,468.324a1.483,1.483,0,0,0-.49-.635,131.072,131.072,0,0,1-27.847-27.67c-3.621-4.937-7.035-9.983-11.084-14.592-5.155-5.867-11.079-10.883-17.036-15.906-12.235-10.315-23.373-21.738-34.33-33.38-2.173-2.309-4.382-4.522-6.65-6.734l-11.3-11.025-16.063-15.669-17.873-17.434-17-16.587L1391.8,295.839c-2.208-2.155-4.392-4.342-6.629-6.467-.1-.093-.194-.19-.292-.285a1.079,1.079,0,0,0-.915-.323,1.112,1.112,0,0,0-.735.323c-.093.089-.18.182-.273.271a106.65,106.65,0,0,0-9.13,10.022,128.577,128.577,0,0,0-15.053,23.5,123.683,123.683,0,0,0-11.41,35.541A128.161,128.161,0,0,0,1391.9,476.474a124.974,124.974,0,0,0,80.389,29.18,133.5,133.5,0,0,0,43.53-7.247,138.624,138.624,0,0,0,39.83-21.522q4.526-3.5,8.759-7.366A1.036,1.036,0,0,0,1564.656,468.324Z" transform="translate(-1345.835 -252.131)" fill="#fc0"/>
    </g>
    <path id="Trazado_6" data-name="Trazado 6" d="M1326.521,452.009l-77.19,6.448c6.268-13.45,13.594-26.375,20.911-39.284l13.566-23.932a216.156,216.156,0,0,0,18.121,23.128q3.2,3.683,6.038,7.658Z" transform="translate(-135.642 -117.13)" fill="#4cd964"/>
    <g id="Grupo_5" data-name="Grupo 5" transform="translate(1022.845 -173.713)">
      <g id="Grupo_2" data-name="Grupo 2" transform="translate(0 7.919)">
        <path id="Trazado_7" data-name="Trazado 7" d="M1164.435-45.691c-.009,3.277-.019,9.184-.03,12.461l-.09,29.85q-.052,17.184-.1,34.368l-.085,28.419q-.02,5.951-.036,11.9L1162.28,69.5c8.667-1,17.377-1.567,26.1-1.83,15.281-.461,30.57-.028,45.846.43l46.867,1.407c2.327.07,2.33,3.69,0,3.62l-26.444-.794c-30.734-.924-61.73-2.747-92.365.786a1.818,1.818,0,0,1-1.809-1.811V71.1c-.2-4.8.03-9.66.045-14.466l.09-29.849q.051-17.184.1-34.368l.085-28.42.036-11.9a1.83,1.83,0,0,1,1.809-1.811c8.665.491,17.307-.316,25.937-1.017,15.212-1.235,30.386-.716,45.623-.346l46.864,1.138a1.841,1.841,0,0,1,1.809,1.811v.21c.21,4.831,0,9.718,0,14.552q0,14.866.007,29.73l.008,34.525V71.317a1.811,1.811,0,0,1-3.62,0v-.21c-.21-4.831,0-9.718,0-14.552V26.825L1279.262-7.7V-48.13l1.811,1.809-26.437-.642c-15.327-.371-30.672-.99-46.008-1.014-7.692-.012-15.336.475-22.993,1.107Z" transform="translate(-1160.391 51.509)" fill="#ff2d55"/>
      </g>
      <g id="Grupo_3" data-name="Grupo 3" transform="translate(59.288 55.974)">
        <path id="Trazado_8" data-name="Trazado 8" d="M1223.168,4.727h-16.9a1.809,1.809,0,0,1-1.809-1.809h0V-13.977a1.809,1.809,0,0,1,1.808-1.811h0a1.811,1.811,0,0,1,1.811,1.811V1.107h15.084a1.81,1.81,0,0,1,0,3.62Z" transform="translate(-1204.463 15.788)" fill="#371a9f"/>
      </g>
      <path id="Trazado_9" data-name="Trazado 9" d="M1256.361-57.4l-78.573.406,2.155,20.147,76.565.011Z" transform="translate(-1154.385 57.396)" fill="#007aff" opacity="0.5"/>
      <g id="Grupo_4" data-name="Grupo 4" transform="translate(31.406 39.735)">
        <path id="Trazado_10" data-name="Trazado 10" d="M1204.7-25.142h0C1205-25.188,1204.633-25.135,1204.7-25.142Z" transform="translate(-1176.502 28.791)" fill="#371a9f"/>
        <path id="Trazado_11" data-name="Trazado 11" d="M1245.7,1.1a33.352,33.352,0,0,0-5.954-16.681,29.371,29.371,0,0,0-15.906-10.9,30.923,30.923,0,0,0-15.3-.749,33.594,33.594,0,0,0-16.329,8.923,30.373,30.373,0,0,0-8.13,25.614c1.544,10.967,8.526,21.828,18.834,26.394.089.039.179.073.269.11a28.663,28.663,0,0,0,5.712,1.809,29.12,29.12,0,0,0,6.134.457,31.482,31.482,0,0,0,16.432-5.381,33.271,33.271,0,0,0,11-11.253A32.847,32.847,0,0,0,1245.7,1.1Zm-4.439,11.416c-1.4,5.638-4.871,9.713-9.255,13.31a29.42,29.42,0,0,1-15.709,6.624c-.413.032-.826.044-1.239.056a24.814,24.814,0,0,1-5.194-.385,24.839,24.839,0,0,1-5.681-1.9,30.077,30.077,0,0,1-15.3-18.119,27.983,27.983,0,0,1,2.7-23.9,28.05,28.05,0,0,1,14.7-11.039,33.277,33.277,0,0,1,5.614-1.372h.036c-.066,0,.3-.046,0,0,.118-.013.238-.032.358-.04.155-.009.308-.03.464-.036a31.519,31.519,0,0,1,5.025.269,27.677,27.677,0,0,1,16.412,7.474c7.439,7.4,9.542,19.095,7.063,29.055Z" transform="translate(-1183.737 27.859)" fill="#371a9f"/>
      </g>
    </g>
    <g id="Grupo_16" data-name="Grupo 16" transform="translate(641.731 -76.68)">
      <g id="Grupo_6" data-name="Grupo 6" transform="translate(0 11.769)">
        <path id="Trazado_12" data-name="Trazado 12" d="M738.234,20.893c-.009,3.277-.019,9.185-.03,12.463l-.09,29.849q-.051,17.184-.1,34.368l-.085,28.42-.036,11.9-1.809-1.811c8.666-1,17.375-1.567,26.1-1.83,15.281-.461,30.57-.027,45.845.43l46.867,1.407c2.329.07,2.331,3.69,0,3.62l-26.444-.794c-30.734-.923-61.729-2.747-92.364.786a1.817,1.817,0,0,1-1.811-1.809v-.211c-.2-4.8.03-9.66.044-14.464l.09-29.85q.051-17.184.1-34.368.042-14.21.086-28.419.016-5.951.035-11.9a1.83,1.83,0,0,1,1.811-1.809c8.665.49,17.306-.316,25.936-1.017,15.212-1.236,30.385-.716,45.623-.346l46.864,1.137a1.842,1.842,0,0,1,1.809,1.811v.21c.21,4.832,0,9.718,0,14.553q0,14.864.007,29.73V137.9a1.811,1.811,0,0,1-3.62,0v-.211c-.21-4.831,0-9.718,0-14.552V18.458l1.811,1.811-26.436-.643c-15.328-.371-30.672-.99-46.008-1.014-7.692-.012-15.336.476-22.992,1.107Z" transform="translate(-734.191 -15.075)" fill="#fc0"/>
      </g>
      <path id="Trazado_13" data-name="Trazado 13" d="M828.922,6.327l-78.254,7.246,3.9,19.886L830.86,26.8Z" transform="translate(-728.502 -6.327)" fill="#007aff" opacity="0.5"/>
      <g id="Grupo_7" data-name="Grupo 7" transform="translate(23.181 35.148)">
        <path id="Trazado_14" data-name="Trazado 14" d="M769.368,61.9,754.3,61.633a2.051,2.051,0,0,0-2.018,2.018q-.428,15.7-.856,31.393a1.782,1.782,0,0,0,.663,1.513,1.832,1.832,0,0,0,1.355.5l14.223-.249a2.043,2.043,0,0,0,2.018-2.018c-.374-10.318.845-20.611,1.7-30.879A2.039,2.039,0,0,0,769.368,61.9Zm-2.19,4a257.88,257.88,0,0,0-1.567,26.919l-10.1.176q.373-13.643.745-27.286Z" transform="translate(-751.423 -22.379)" fill="#371a9f"/>
        <path id="Trazado_15" data-name="Trazado 15" d="M788.4,44.125H773.959a2.05,2.05,0,0,0-2.018,2.018L771.4,103.06a1.852,1.852,0,0,0,.5,1.333,1.8,1.8,0,0,0,1.522.685l13.139-.252a2.058,2.058,0,0,0,2.018-2.018l1.832-56.668A2.042,2.042,0,0,0,788.4,44.125Zm-2.082,4.036q-.851,26.336-1.7,52.67l-9.148.175q.248-26.42.5-52.842Z" transform="translate(-744.525 -28.424)" fill="#371a9f"/>
        <path id="Trazado_16" data-name="Trazado 16" d="M809.843,34.96a2.062,2.062,0,0,0-2.018-2.018l-14.19-.488a2.043,2.043,0,0,0-2.018,2.018l-.134,73.11a1.829,1.829,0,0,0,.725,1.53,1.887,1.887,0,0,0,1.293.488l13.823.183a2.055,2.055,0,0,0,2.018-2.018Q811.04,71.384,809.843,34.96Zm-4.454,70.761-9.869-.135q.065-34.516.135-69.031l10.212.351Q806.925,71.318,805.388,105.721Z" transform="translate(-737.592 -32.454)" fill="#371a9f"/>
      </g>
    </g>
    <g id="Grupo_17" data-name="Grupo 17" transform="translate(1342.271 -135.386)">
      <g id="Grupo_9" data-name="Grupo 9">
        <g id="Grupo_8" data-name="Grupo 8" transform="translate(0 9.803)">
          <path id="Trazado_17" data-name="Trazado 17" d="M1586.809,1.011c-.01,3.277-.02,9.184-.029,12.461l-.09,29.85q-.052,17.182-.1,34.368-.043,14.21-.086,28.419-.018,5.951-.036,11.9l-1.81-1.809c8.668-1,17.377-1.567,26.1-1.831,15.282-.46,30.571-.027,45.845.43q23.434.7,46.868,1.409c2.327.07,2.33,3.69,0,3.62l-26.445-.8c-30.734-.923-61.729-2.747-92.364.787a1.82,1.82,0,0,1-1.811-1.811v-.21c-.2-4.8.028-9.66.043-14.466l.09-29.849q.053-17.184.1-34.369.042-14.208.086-28.419.018-5.951.036-11.9a1.831,1.831,0,0,1,1.81-1.811c8.665.491,17.307-.316,25.935-1.017,15.214-1.235,30.386-.716,45.623-.346l46.864,1.138a1.841,1.841,0,0,1,1.811,1.809v.211c.21,4.831,0,9.718,0,14.552q0,14.864.007,29.73,0,17.261.008,34.525v40.429a1.811,1.811,0,0,1-3.62,0v-.21c-.21-4.831,0-9.718,0-14.553V73.525L1701.634,39q0-14.273-.006-28.544V-1.43L1703.437.38,1677-.261c-15.328-.373-30.672-.99-46.008-1.014C1623.3-1.288,1615.657-.8,1608-.168Z" transform="translate(-1582.765 4.807)" fill="#4cd964"/>
        </g>
        <path id="Trazado_18" data-name="Trazado 18" d="M1677.721-11.085,1599.1-12.094l1.794,20.2L1677.5,9.492Z" transform="translate(-1577.126 12.094)" fill="#007aff" opacity="0.5"/>
      </g>
      <g id="Grupo_10" data-name="Grupo 10" transform="translate(14.896 43.944)">
        <path id="Trazado_19" data-name="Trazado 19" d="M1639.538,45.415a2.032,2.032,0,0,0-1.41,2.482c.163.414-.252.546-.778.643a5.252,5.252,0,0,1-2.518-.118c-1.441-.5-1.832-2.352-2.166-3.662a2.034,2.034,0,0,0-3.892,0,5.546,5.546,0,0,1-1.749,3.437c-.966.712-3.887,1.48-4.181-.225a2.032,2.032,0,0,0-2.482-1.408,2.063,2.063,0,0,0-1.41,2.482c.729,4.238,6.172,4.6,9.323,3.085a6.754,6.754,0,0,0,2.422-1.952,6.439,6.439,0,0,0,4.488,2.395,7.653,7.653,0,0,0,5.057-.9,4.208,4.208,0,0,0,1.775-4.843A2.078,2.078,0,0,0,1639.538,45.415Z" transform="translate(-1585.188 -12.718)" fill="#371a9f"/>
        <path id="Trazado_20" data-name="Trazado 20" d="M1622.464,40.717a1.918,1.918,0,1,0-1.846-1.846A1.916,1.916,0,0,0,1622.464,40.717Z" transform="translate(-1584.592 -14.94)" fill="#371a9f"/>
        <path id="Trazado_21" data-name="Trazado 21" d="M1632.824,39.977a1.917,1.917,0,1,0-1.866-1.866A1.918,1.918,0,0,0,1632.824,39.977Z" transform="translate(-1581.022 -15.195)" fill="#371a9f"/>
        <path id="Trazado_22" data-name="Trazado 22" d="M1683.229,57.993q-4.264-.646-8.535-1.251a21.148,21.148,0,0,0,.233-9.273c-.079-.4-.185-.786-.29-1.176,2.152-1.069,4.3-2.173,6.4-3.347,2.266-1.269.234-4.756-2.037-3.486-1.909,1.067-3.848,2.076-5.8,3.058-.186-.373-.371-.744-.576-1.106a35.165,35.165,0,0,1-3.164-5.756c-1.488-4.39.713-9.116-.588-13.611a2.04,2.04,0,0,0-2.96-1.211,83.143,83.143,0,0,0-12.668,9.686,35.179,35.179,0,0,0-28.52-.051,79.7,79.7,0,0,0-16.376-6.62,2.039,2.039,0,0,0-2.482,2.482c.9,4.018,1.865,8.029,2.691,12.062.4,1.99-.354,3.787-.919,5.674-.261.869-.538,1.739-.794,2.611l-9.756-3.295c-2.467-.834-3.524,3.063-1.076,3.891l9.9,3.343c-.027.174-.069.343-.09.517a16.82,16.82,0,0,0,1.22,8.545q-5.844,1.086-11.717,2.006a2.031,2.031,0,0,0-1.408,2.482,2.066,2.066,0,0,0,2.482,1.41q6.35-.991,12.667-2.187c.092.135.172.269.269.4,4.16,5.4,10.667,8.409,17.109,10.178a58.906,58.906,0,0,0,21.714,1.739,37.336,37.336,0,0,0,19.753-8.058,20.771,20.771,0,0,0,5.418-7.076q4.417.634,8.83,1.3a2.083,2.083,0,0,0,2.482-1.41A2.032,2.032,0,0,0,1683.229,57.993Zm-16.208,4.926c-4.2,4.609-10.845,7.4-16.874,8.475a52.171,52.171,0,0,1-19.454-.538c-5.977-1.251-13.017-3.529-17.22-8.308q2.665-.539,5.322-1.1c2.538-.538,1.465-4.439-1.076-3.892q-3.3.7-6.6,1.345a13.092,13.092,0,0,1-1.333-6.971l8.408,2.841c2.466.833,3.524-3.063,1.076-3.892l-8.633-2.917c.336-1.1.71-2.2,1.035-3.282a13.791,13.791,0,0,0,.839-7.088c-.418-2.033-.906-4.055-1.357-6.081q-.311-1.392-.623-2.783a71.17,71.17,0,0,1,8.782,3.48q1.372.656,2.716,1.367a6.338,6.338,0,0,0,2.621,1.148,7.543,7.543,0,0,0,2.564-.983,29.992,29.992,0,0,1,2.881-1.009,30.935,30.935,0,0,1,22.5,1.924,2.093,2.093,0,0,0,2.446-.316,77.876,77.876,0,0,1,10.33-8.326c.033,2.65-.611,5.345-.351,8,.363,3.7,2.514,6.521,4.255,9.671.108.2.2.4.3.6-2.6,1.211-5.228,2.364-7.9,3.417a2.079,2.079,0,0,0-1.41,2.482,2.031,2.031,0,0,0,2.482,1.408c2.759-1.087,5.479-2.265,8.168-3.508a16.972,16.972,0,0,1-.2,8.1q-4.454-.624-8.912-1.222a2.028,2.028,0,0,0-2.018,2.018A2.069,2.069,0,0,0,1661.794,59c2.446.324,4.887.666,7.33,1.008A16.251,16.251,0,0,1,1667.021,62.92Z" transform="translate(-1593.838 -20.572)" fill="#371a9f"/>
      </g>
    </g>
    <path id="Trazado_23" data-name="Trazado 23" d="M1233.484,521.721c12.847-14.776,30.965-8.488,43.124,2.927,12.088,11.349,38.4,24.226,45.2-7.551" transform="translate(-132.119 -143.322)" fill="none" stroke="#ff9500" stroke-miterlimit="10" stroke-width="13.297"/>
    <path id="Trazado_24" data-name="Trazado 24" d="M1397.479,352.128a18.233,18.233,0,0,0-2.9-.156c-.089,0-.179.016-.268.022-.069,0-.138.016-.207.023h-.021a19.236,19.236,0,0,0-3.245.794,15.516,15.516,0,0,0-10.061,20.2,17.385,17.385,0,0,0,8.845,10.475,13.045,13.045,0,0,0,6.286,1.321c.239-.007.478-.015.716-.033a17,17,0,0,0,9.081-3.829,14.4,14.4,0,0,0,5.351-7.7c1.433-5.755.221-12.521-4.082-16.8A16.007,16.007,0,0,0,1397.479,352.128Z" transform="translate(-164.663 -107.51)" fill="#371a9f"/>
    <path id="Trazado_27" data-name="Trazado 27" d="M1052.481,509.434c3.553-2.5,8-6.014,10.374-8a6.024,6.024,0,0,1,1.128-.794,31.556,31.556,0,0,1-4.357-2.908c-5.441-4.351-9.168-10.365-12.8-16.206a447.5,447.5,0,0,1-21.835-39.391c-3.294-6.719-6.384-13.531-9.381-20.388-2.962-6.776-5.929-13.566-9.532-20.033q-.784-1.406-1.611-2.789a150.236,150.236,0,0,1-13.841,9.791q-5.891,3.682-12.113,6.8c.219.271.429.549.652.817,1.277,1.545,2.618,3.032,3.994,4.486a9.627,9.627,0,0,1,2.72,4.85c.754,3.507,1.325,7.03,2.233,10.506q1.343,5.14,3.166,10.139a116.243,116.243,0,0,0,21.287,36.193,124.783,124.783,0,0,0,15.245,14.593c5.082,4.179,10.705,8.773,12.563,15.372C1046.52,512.656,1050.217,511.029,1052.481,509.434Z" transform="translate(-75.441 -117.949)" fill="#5ac8fa"/>
    <path id="Trazado_28" data-name="Trazado 28" d="M1141.955,536.98a6.48,6.48,0,0,0-4.389-4,17.433,17.433,0,0,0-6.131-.467c-7.86.4-15.679,1.506-23.547,1.672s-15.92-.659-23.076-3.934c-1.212-.557-2.568-1.195-3.828-.757a2.749,2.749,0,0,0-.325.142,6.1,6.1,0,0,0-1.127.794c-2.372,1.982-6.821,5.492-10.373,8-2.265,1.595-5.961,3.222-12.108,3.04-.133,0-.26,0-.4-.009a27.811,27.811,0,0,0-2.805,8.474c-1.006,6.348.548,11.043,2.044,15.564,1.6,4.82,2.975,6.342,4.49,6.96a9.175,9.175,0,0,0,3.6.467c14.355-.185,28.4-4.665,41.229-11.109s24.573-14.825,36.164-23.3a1.6,1.6,0,0,0,.612-.659A1.379,1.379,0,0,0,1141.955,536.98Z" transform="translate(-92.117 -146.94)" fill="#371a9f"/>
    <path id="Trazado_30" data-name="Trazado 30" d="M692.444,347.1c1.94-3.39,8.752-8.648,11.316-10.032a4.33,4.33,0,0,0,1.2-.866,1.822,1.822,0,0,0,.477-.942,2.855,2.855,0,0,0-.275-1.422q-1.822-4.8-3.643-9.6c-1.271-3.345-2.814-7-6.043-8.535a9.365,9.365,0,0,0-7.814.306,24.617,24.617,0,0,0-6.444,4.8,146.207,146.207,0,0,0-15.944,17.827c-1.744,2.306-3.424,4.667-5.335,6.834-1.8,2.043-3.8,3.9-5.736,5.819-7.339,7.276-14.063,16.1-15.009,26.389a3.229,3.229,0,0,0,.488,2.469,2.755,2.755,0,0,0,1.768.769,11.42,11.42,0,0,0,6.415-1.3c3.48-1.956,21.118-9.779,45.655-20.6l-.018-.041C690.641,352.617,691.288,349.122,692.444,347.1Z" transform="translate(0 -99.291)" fill="#371a9f"/>
    <path id="Trazado_29" data-name="Trazado 29" d="M785.117,386.937a67.214,67.214,0,0,1-6.919-12.244c-2.591-1.756-5.3-3.546-8.053-5.215a91.344,91.344,0,0,0-10.617-5.6c-3.788-1.665-7.723-3.067-11.527-4.423-6.569-2.338-14.014-4.988-20.262-9.461a33.523,33.523,0,0,1-7.05-6.667c-.268-.346-.523-.7-.77-1.063a4.346,4.346,0,0,1-1.2.865c-2.563,1.384-9.375,6.642-11.316,10.032-1.156,2.02-1.8,5.515,1.059,11.887a21.079,21.079,0,0,1,3.6,1.9c.262.161.523.321.785.478,1.613.969,3.239,1.975,4.834,2.991a213.469,213.469,0,0,1,18.752,13.425,216.244,216.244,0,0,1,17.167,15.345c2.519,2.507,4.967,5.171,7.335,7.746,2.572,2.8,5.232,5.69,8,8.4,4.581,4.487,10.783,9.84,18.156,11.412a16.914,16.914,0,0,0,3.522.386,11.682,11.682,0,0,0,6.678-1.905c2.7-1.855,4.423-4.708,6.09-7.47.264-.436.526-.871.79-1.3l5.088-8.223q-.919-.49-1.823-1.007A70.856,70.856,0,0,1,785.117,386.937Z" transform="translate(-14.958 -105.354)" fill="#5ac8fa"/>
    <path id="Trazado_1-2" data-name="Trazado 1" d="M917.467,57.11" transform="translate(-61.872 -41.967)" fill="#fc0" stroke="#fc0" stroke-miterlimit="10" stroke-width="1"/>
    <path id="Trazado_2-2" data-name="Trazado 2" d="M1022.823,87.273a7.9,7.9,0,0,0-2.71-1.94,26.625,26.625,0,0,1,2.643,1.885Z" transform="translate(-84.689 -48.241)" fill="#917a1a"/>
    <path id="Trazado_3-2" data-name="Trazado 3" d="M1177.848,188.726c-4.925-1.219-14.615-3.363-21.726,0-3.737,1.768-9.941,5.162-15.9,5.85a14.832,14.832,0,0,1-4.185-.135l-48.025-8.164c-18.168-3.088-26.852-7.1-31.915-13.241-4.786-5.806-4.32-10.036-7.684-13.456-.133.116-.271.226-.408.33a155.55,155.55,0,0,0-25.026,23.628c8.114,6.4,18.208,12.7,22.592,17.884a15.526,15.526,0,0,0,5.948,4.466,14.237,14.237,0,0,0,4.107.97q29,2.78,58.178,2.927c12.05.059,31.154-3.333,42.322-7.859a71,71,0,0,1,7.407-2.539,25.789,25.789,0,0,1,9.624-.766c12.881,1.065,20.123,6.891,21.615,6.692C1198.957,204.6,1192.021,192.238,1177.848,188.726Z" transform="translate(-85.325 -64.745)" fill="#007aff"/>
    <path id="Trazado_4-2" data-name="Trazado 4" d="M1046.217,142.442c-3.186-6.152-4.862-13.212-9.119-18.677-8.348-10.718-10.119-23.992-13.982-31.526a9.234,9.234,0,0,1-.192,2.46c-3.679,21.266-7.379,42.587-11.9,63.7q2.442,3,4.606,6.219c1.2,1.784,2.336,3.609,3.394,5.479.425-.513.865-1.013,1.3-1.522a155.554,155.554,0,0,1,25.026-23.628c.137-.1.275-.214.408-.33a1.792,1.792,0,0,0,.683-1.051A1.88,1.88,0,0,0,1046.217,142.442Z" transform="translate(-82.668 -49.776)" fill="#ff9500"/>
    <path id="Trazado_5-2" data-name="Trazado 5" d="M1025.7,90.328a6.392,6.392,0,0,0-2.108-2.5,15.049,15.049,0,0,1,2.314,3.43A3.686,3.686,0,0,0,1025.7,90.328Z" transform="translate(-85.463 -48.795)" fill="#fc0"/>
    <path id="Trazado_6-2" data-name="Trazado 6" d="M980.53,352.615q-10.008-15.35-19.039-31.3-9.064-16.023-17.1-32.6c-2.052-4.233-4.011-8.507-5.984-12.776a18.669,18.669,0,0,1-6.906,6.037c-4.7,2.283-10.257,2.05-15.331.811s-9.868-3.412-14.866-4.926c-15.465-4.685-32.02-2.888-48.178-2.712-6.6.072-14.357-.771-17.722-6.447-.161-.272-.3-.552-.436-.835q-2.915,4.739-5.551,9.647a183.318,183.318,0,0,0-9.92,21.938c-3.01,8.023-5.1,16.431-8.808,24.181-3.587,7.506-9.1,14.711-17.11,17.773a1,1,0,0,0-.669,1.177,62.638,62.638,0,0,0,4.508,15.569,67.186,67.186,0,0,0,6.919,12.243,70.837,70.837,0,0,0,22.309,20.293q.9.52,1.822,1.008a65.662,65.662,0,0,0,12.06,4.989,60.649,60.649,0,0,0,7.327,1.712c2.639.446,5.719,1.086,8.187-.294,2.447-1.368,3.466-4.319,4.571-6.716q2.258-4.891,4.515-9.783,4.475-9.7,8.952-19.4l14.875-32.231q5.219,17.271,10.539,34.513,3.209,10.4,6.463,20.778.8,2.552,1.6,5.1a15.983,15.983,0,0,0,1.541,4.093c1.838,2.762,5.215,1.162,7.7.349a148.45,148.45,0,0,0,20.445-8.431q6.21-3.119,12.113-6.8a150.41,150.41,0,0,0,13.838-9.787,147.489,147.489,0,0,0,14.128-12.776q1.55-1.6,3.052-3.244A.979.979,0,0,0,980.53,352.615Z" transform="translate(-34.179 -88.816)" fill="#371a9f"/>
    <path id="Trazado_7-2" data-name="Trazado 7" d="M981.219-5.846c.918,2.613.221,5.269-.778,7.758a5.841,5.841,0,0,0-2.051-2.545,4.721,4.721,0,0,0-5.673.454.847.847,0,0,0,.032,1.192.864.864,0,0,0,1.192-.032,3.008,3.008,0,0,1,3.7-.084,5.184,5.184,0,0,1,1.771,3.591h0c.086.757,1.217,1.189,1.586.369,1.566-3.486,3.178-7.372,1.831-11.2C982.473-7.365,980.858-6.874,981.219-5.846Z" transform="translate(-74.102 -27.737)" fill="none"/>
    <path id="Trazado_8-2" data-name="Trazado 8" d="M1039.851,5.749a3,3,0,0,0-3.6,2.237l0,.006a3,3,0,0,0,5.844,1.359v0l0-.009A3,3,0,0,0,1039.851,5.749Z" transform="translate(-88.257 -30.532)" fill="none"/>
    <path id="Trazado_9-2" data-name="Trazado 9" d="M965.458,78.133c-3.37,8.287-7.044,10.8-10.635,11.216-2.5.291-4.967-.436-7.259-.94C941.985,87.181,927.776,64.7,927.776,64.7c.04-.107.086-.212.128-.319a28.583,28.583,0,0,0-3.684-1.474,33.131,33.131,0,0,0-17.664-.089,10.8,10.8,0,0,0-5.095,2.9c-2.451,2.629-2.575,6.061-2.752,6.824-5.586,24-20.252,44.873-28.11,68.224-6.709,19.932-8.476,41.691-18.639,60.1-1.908,3.455-4.11,6.79-5.372,10.53-1.16,3.44-1.424,7.376.107,10.627.133.283.275.563.436.835,3.366,5.676,11.124,6.52,17.723,6.447,16.158-.177,32.713-1.973,48.178,2.712,5,1.514,9.793,3.687,14.866,4.926s10.634,1.471,15.331-.811a18.67,18.67,0,0,0,6.906-6.037c2.671-3.679,4.486-8.2,6.016-12.533a531.579,531.579,0,0,0,18.108-65.972c4.523-21.109,8.224-42.43,11.9-63.7a9.238,9.238,0,0,0,.192-2.46,15.053,15.053,0,0,0-2.314-3.43l-.067-.055a26.627,26.627,0,0,0-2.643-1.885c-4.03-2.569-9.51-5.127-12.894-7.7-.313.466-.628.96-.946,1.518A36.051,36.051,0,0,0,965.458,78.133Z" transform="translate(-45.903 -42.976)" fill="#fc0"/>
    <path id="Trazado_10-2" data-name="Trazado 10" d="M1034.207-4.593c.012-.065.016-.131.024-.2-3.235-.412-7.548-1.753-13.47-2.967a75.32,75.32,0,0,0-21.855-1.413c-.708,1.569-1.5,3.738-3.057,6.919-2.794,5.7-5.268,10.743-7.157,10.521-2.535-.3-1.486-9.78-3.374-17.606-1.828-.172-4.308-.442-7.783-.876-6.828-.856-12.538-1.576-17.19-2.283a16.35,16.35,0,0,0-1.757,15.05c2.711,6.554,10.029,5.692,11.228,10.837.961,4.129-2.918,7.336-7.93,14.485-1.069,1.526-2.271,3.353-3.529,5.471A93.68,93.68,0,0,0,951.383,47.9c-.041.107-.088.212-.128.319,0,0,14.209,22.481,19.788,23.709,2.292.5,4.756,1.231,7.259.94,3.591-.417,7.265-2.93,10.635-11.216a36.042,36.042,0,0,1,2.03-4.247c.317-.558.632-1.052.946-1.518,3.092-4.592,5.972-4.931,7.573-4.616a13.065,13.065,0,0,0,4.779.143c6.969-1.23,22.124-6.744,23.663-31.353,3.48.825,4.993.317,5.671-.49,1.983-2.354-3.125-7.152-2.211-15.606C1031.9-.739,1033.843-2.692,1034.207-4.593ZM969.223-.261a.864.864,0,0,1-1.192.032A.847.847,0,0,1,968-1.422a4.721,4.721,0,0,1,5.673-.454A5.841,5.841,0,0,1,975.722.67c1-2.489,1.7-5.145.778-7.758-.362-1.028,1.254-1.519,1.613-.5,1.347,3.83-.265,7.716-1.831,11.2-.369.82-1.5.389-1.586-.369h0a5.184,5.184,0,0,0-1.771-3.591A3.008,3.008,0,0,0,969.223-.261Zm53.993,5.569,0,.009v0a3,3,0,0,1-5.844-1.359l0-.006a3,3,0,0,1,5.844,1.359Z" transform="translate(-69.383 -26.495)" fill="#5ac8fa"/>
    <path id="Trazado_33" data-name="Trazado 33" d="M980.836-47.366c.185-1.528.4-3.052.663-4.565C981.237-50.417,981.021-48.893,980.836-47.366Z" transform="translate(-75.958 -17.728)" fill="none"/>
    <path id="Trazado_36" data-name="Trazado 36" d="M1002.631-51.857q.31-1.839.515-3.692Q1002.941-53.7,1002.631-51.857Z" transform="translate(-80.803 -16.924)" fill="none"/>
    <path id="Trazado_38" data-name="Trazado 38" d="M1056.416-34.642a47.134,47.134,0,0,0,1.284-5.748A47.134,47.134,0,0,1,1056.416-34.642Z" transform="translate(-92.759 -20.294)" fill="none"/>
    <path id="Trazado_39" data-name="Trazado 39" d="M1058.064-41.226q.23-1.454.369-2.924Q1058.295-42.68,1058.064-41.226Z" transform="translate(-93.125 -19.458)" fill="none"/>
    <path id="Trazado_41" data-name="Trazado 41" d="M969.047,12.744c-1.2-5.145-8.514-4.281-11.227-10.837a16.347,16.347,0,0,1,1.757-15.051A76.91,76.91,0,0,1,948.54-15.41a27.99,27.99,0,0,0-.51,10.021,16.534,16.534,0,0,0,.785,3.276c1.716,3.976,5.328,4.355,3.918,13.382C951.014,22.282,957.59,32.7,957.59,32.7h0c1.258-2.121,2.459-3.945,3.529-5.47C966.13,20.08,970.008,16.872,969.047,12.744Z" transform="translate(-68.614 -25.847)" fill="#371a9f"/>
    <path id="Trazado_42" data-name="Trazado 42" d="M998.426,9.174c1.888.222,4.363-4.823,7.156-10.521,1.56-3.181,2.349-5.35,3.057-6.919-2.724.128-5.568.245-8.948.143-.87-.026-2.145-.077-4.641-.311C996.942-.606,995.893,8.877,998.426,9.174Z" transform="translate(-79.118 -27.397)" fill="#371a9f"/>
    <path id="Trazado_43" data-name="Trazado 43" d="M1057.917-2.39h0c.094-.051.176-.11.266-.166-.082-.009-.163-.017-.245-.028A1.934,1.934,0,0,1,1057.917-2.39Z" transform="translate(-93.092 -28.698)" fill="#2d2b2f"/>
    <g id="Grupo_15" data-name="Grupo 15" transform="translate(887.642 -85.51)">
      <path id="Trazado_44" data-name="Trazado 44" d="M960.974-47.976a50.421,50.421,0,0,1,3.991-14.432,18.535,18.535,0,0,0-2.062,2.1q-1.114,1.34-2.175,2.695a68.436,68.436,0,0,0-2.054,9.92A17.461,17.461,0,0,1,960.974-47.976Z" transform="translate(-958.674 70.11)" fill="#ff9500"/>
      <path id="Trazado_45" data-name="Trazado 45" d="M974.7-68.062c-2.9,5.949-3.873,12.617-4.31,19.259.564.124,1.142.272,1.712.422.169.044.331.077.5.123.007-.1.015-.205.021-.309.463-7.132,1.561-14.294,5.18-20.5A32.576,32.576,0,0,0,974.7-68.062Z" transform="translate(-961.279 71.591)" fill="#ff9500"/>
      <path id="Trazado_46" data-name="Trazado 46" d="M986.669-71a4.577,4.577,0,0,1-.762.171,42.9,42.9,0,0,0-2.343,5.635c-.488,1.443-.906,2.911-1.268,4.4s-.668,2.986-.927,4.5-.478,3.036-.662,4.565q-.084.693-.158,1.386-.175,1.6-.311,3.21c.713.237,1.443.483,2.181.732q.173-2.083.405-4.166c.827-7.336,2.369-14.586,6.056-21.018A11.5,11.5,0,0,0,986.669-71Z" transform="translate(-963.467 72.152)" fill="#ff9500"/>
      <path id="Trazado_47" data-name="Trazado 47" d="M993.707-72.1a102.188,102.188,0,0,1-2.525,21.141c-.461,2.041-.976,4.071-1.561,6.082.706.222,1.42.443,2.15.66q.974-3.333,1.721-6.722c.013-.055.027-.11.039-.165q.763-3.471,1.289-6.99a104.383,104.383,0,0,0,1.141-14.16C995.161-72.213,994.409-72.166,993.707-72.1Z" transform="translate(-965.553 72.299)" fill="#ff9500"/>
      <path id="Trazado_48" data-name="Trazado 48" d="M1004.788-68.46q-.055-1.892-.214-3.78c-.777-.035-1.527-.057-2.263-.072q.082.931.138,1.863.11,1.865.115,3.731t-.095,3.729q-.1,1.862-.3,3.716t-.515,3.691c-.275,1.641-.619,3.265-1.02,4.878a64.641,64.641,0,0,1-2.425,7.7q1.08.266,2.2.51a68.036,68.036,0,0,0,2.283-7.223c.072-.267.128-.535.194-.8.233-.958.451-1.922.642-2.888q.367-1.855.631-3.731a67.953,67.953,0,0,0,.632-7.538q.026-.946.026-1.892T1004.788-68.46Z" transform="translate(-967.461 72.312)" fill="#ff9500"/>
      <path id="Trazado_49" data-name="Trazado 49" d="M1013.767-71.506l-.234-.03c-.688-.082-1.367-.155-2.041-.222a67.888,67.888,0,0,1-1.827,21.941A66.794,66.794,0,0,1,1007-41.5q1.121.176,2.283.321a69.989,69.989,0,0,0,2.609-8.292A69.66,69.66,0,0,0,1013.767-71.506Z" transform="translate(-969.416 72.189)" fill="#ff9500"/>
      <path id="Trazado_50" data-name="Trazado 50" d="M1022.736-69.97c-.7-.186-1.479-.367-2.337-.541,1.2,7.419.236,14.94-1.614,22.239-.669,2.64-1.45,5.253-2.3,7.822.672.037,1.349.072,2.039.085.1,0,.191,0,.285,0,.791-2.444,1.521-4.921,2.15-7.422C1022.793-55.063,1023.748-62.541,1022.736-69.97Z" transform="translate(-971.526 71.912)" fill="#ff9500"/>
      <path id="Trazado_51" data-name="Trazado 51" d="M1030.924-67.1c-.725-.314-1.491-.677-2.417-1.056a51.683,51.683,0,0,1,.646,9q-.028,1.806-.18,3.605-.076.9-.183,1.8-.214,1.792-.551,3.567t-.795,3.521c-.04.149-.085.3-.125.445-.275,1.013-.576,2.02-.912,3.015q-.578,1.711-1.277,3.383,1.253-.022,2.45-.072a54.259,54.259,0,0,0,1.912-5.789A54.753,54.753,0,0,0,1030.924-67.1Z" transform="translate(-973.446 71.389)" fill="#ff9500"/>
      <path id="Trazado_52" data-name="Trazado 52" d="M1040.864-63.471a20.11,20.11,0,0,0-2.354-1.148,61.863,61.863,0,0,1-1.663,21.117c-.349,1.363-.727,2.717-1.169,4.054q1.233-.1,2.4-.2c.327-1.043.623-2.1.9-3.153.231-.889.447-1.783.642-2.68q.314-1.473.561-2.961.49-2.974.7-5.985A62.879,62.879,0,0,0,1040.864-63.471Z" transform="translate(-975.791 70.602)" fill="#ff9500"/>
      <path id="Trazado_53" data-name="Trazado 53" d="M1050.031-56.872c-.67-.6-1.476-1.335-2.393-2.1a54.223,54.223,0,0,1-1.854,19.409c-.072.246-.129.495-.2.74.471-.034.913-.056,1.366-.083.331-.019.677-.046,1-.06A56.2,56.2,0,0,0,1050.031-56.872Z" transform="translate(-977.993 69.347)" fill="#ff9500"/>
      <path id="Trazado_54" data-name="Trazado 54" d="M1057.7-42.065a47.111,47.111,0,0,1-1.284,5.748,15.4,15.4,0,0,1,2.191.488,49.362,49.362,0,0,0,1.29-5.706,29.955,29.955,0,0,0-1.64-6.39q-.048,1.475-.188,2.941T1057.7-42.065Z" transform="translate(-980.4 66.891)" fill="#ff9500"/>
    </g>
    <path id="Trazado_55" data-name="Trazado 55" d="M1028.069-40.525c-.039.149-.084.3-.125.445h0C1027.985-40.229,1028.031-40.376,1028.069-40.525Z" transform="translate(-86.43 -20.264)" fill="#3445c5"/>
    <path id="Trazado_56" data-name="Trazado 56" d="M1030.071-52.98q.152-1.8.18-3.605Q1030.223-54.779,1030.071-52.98Z" transform="translate(-86.902 -16.694)" fill="#3445c5"/>
    <path id="Trazado_57" data-name="Trazado 57" d="M1029.128-46.072q.336-1.773.551-3.566Q1029.465-47.847,1029.128-46.072Z" transform="translate(-86.693 -18.238)" fill="#3445c5"/>
    <path id="Trazado_58" data-name="Trazado 58" d="M1028.1-41.532q.459-1.748.8-3.521Q1028.563-43.281,1028.1-41.532Z" transform="translate(-86.465 -19.257)" fill="#3445c5"/>
    <path id="Trazado_59" data-name="Trazado 59" d="M1027.684-39.953h0c-.275,1.013-.576,2.02-.912,3.015C1027.109-37.933,1027.409-38.94,1027.684-39.953Z" transform="translate(-86.169 -20.391)" fill="#3445c5"/>
    <path id="Trazado_60" data-name="Trazado 60" d="M994.65-47.058q.762-3.471,1.288-6.99Q995.412-50.531,994.65-47.058Z" transform="translate(-79.029 -17.258)" fill="#3445c5"/>
    <path id="Trazado_61" data-name="Trazado 61" d="M1041.471-45.522q.491-2.974.7-5.985Q1041.964-48.5,1041.471-45.522Z" transform="translate(-89.436 -17.823)" fill="#3445c5"/>
    <path id="Trazado_62" data-name="Trazado 62" d="M1040.566-40c-.192.9-.409,1.792-.643,2.68h0C1040.156-38.212,1040.373-39.106,1040.566-40Z" transform="translate(-89.092 -20.38)" fill="#3445c5"/>
    <path id="Trazado_63" data-name="Trazado 63" d="M1039.673-36.558c-.275,1.058-.571,2.11-.9,3.153C1039.1-34.448,1039.4-35.5,1039.673-36.558Z" transform="translate(-88.837 -21.146)" fill="#3445c5"/>
    <path id="Trazado_64" data-name="Trazado 64" d="M1005.048-49.069q.366-1.855.63-3.731Q1005.416-50.928,1005.048-49.069Z" transform="translate(-81.34 -17.535)" fill="#3445c5"/>
    <path id="Trazado_66" data-name="Trazado 66" d="M1004.864-48c-.191.967-.41,1.93-.642,2.888h0C1004.454-46.073,1004.673-47.036,1004.864-48Z" transform="translate(-81.156 -18.602)" fill="#3445c5"/>
    <path id="Trazado_67" data-name="Trazado 67" d="M1004.166-44.289h0c-.065.268-.125.536-.193.8C1004.041-43.753,1004.1-44.021,1004.166-44.289Z" transform="translate(-81.101 -19.427)" fill="#3445c5"/>
    <g id="Grupo_12" data-name="Grupo 12" transform="translate(882.128 -85.526)">
      <path id="Trazado_68" data-name="Trazado 68" d="M1018.938-70.714c-1.3-.262-2.787-.507-4.519-.72a69.666,69.666,0,0,1-1.88,22.041,70.13,70.13,0,0,1-2.61,8.292q2.46.306,5.1.452c.844-2.568,1.625-5.181,2.294-7.822C1019.173-55.775,1020.136-63.293,1018.938-70.714Z" transform="translate(-964.553 72.133)" fill="#371a9f"/>
      <path id="Trazado_69" data-name="Trazado 69" d="M1027.253-68.527a30.65,30.65,0,0,0-3.852-1.284c1.015,7.428.059,14.908-1.769,22.189-.628,2.5-1.356,4.979-2.15,7.422,1.52.035,2.983.035,4.4.01q.7-1.671,1.277-3.383c.337-1,.637-2,.912-3.015.04-.149.086-.3.125-.446q.459-1.748.795-3.521t.551-3.567q.106-.9.183-1.795.152-1.8.18-3.605A51.726,51.726,0,0,0,1027.253-68.527Z" transform="translate(-966.676 71.772)" fill="#371a9f"/>
      <path id="Trazado_70" data-name="Trazado 70" d="M1036.868-65.1a15.5,15.5,0,0,0-2.71-.843,12.6,12.6,0,0,1-2.535-.855,54.757,54.757,0,0,1-1.433,21.418,54.286,54.286,0,0,1-1.912,5.789c2.031-.079,3.947-.2,5.757-.339.443-1.337.82-2.692,1.169-4.054A61.857,61.857,0,0,0,1036.868-65.1Z" transform="translate(-968.631 71.103)" fill="#371a9f"/>
      <path id="Trazado_71" data-name="Trazado 71" d="M1001.152-70.456q-.056-.932-.138-1.863c-1.593-.03-3.081-.011-4.442.051a104.353,104.353,0,0,1-1.142,14.159q-.525,3.514-1.288,6.991c-.012.054-.026.11-.039.165q-.749,3.387-1.722,6.721c1.454.428,2.962.844,4.527,1.229a64.741,64.741,0,0,0,2.425-7.7c.4-1.613.744-3.239,1.02-4.878q.31-1.837.515-3.691t.3-3.717q.1-1.861.095-3.728T1001.152-70.456Z" transform="translate(-960.652 72.333)" fill="#371a9f"/>
      <path id="Trazado_72" data-name="Trazado 72" d="M1061.739-32.922c-.207-1.13-.442-2.4-.7-3.852-.189-1.07-.356-2.043-.52-2.943a49.365,49.365,0,0,1-1.29,5.706A12,12,0,0,1,1061.739-32.922Z" transform="translate(-975.512 65.083)" fill="#371a9f"/>
      <path id="Trazado_73" data-name="Trazado 73" d="M1046.127-59.9a31.378,31.378,0,0,0-4.576-3.242,62.861,62.861,0,0,1,.021,9.049q-.209,3.007-.7,5.985-.246,1.486-.562,2.961c-.193.9-.41,1.792-.642,2.68q-.411,1.587-.9,3.153c1.887-.159,3.65-.319,5.3-.439.072-.245.132-.494.2-.74A54.2,54.2,0,0,0,1046.127-59.9Z" transform="translate(-970.964 70.29)" fill="#371a9f"/>
      <path id="Trazado_74" data-name="Trazado 74" d="M1048.627-38.37a31.421,31.421,0,0,1,6.058.2,47.134,47.134,0,0,0,1.284-5.748q.23-1.454.37-2.924t.187-2.941a12.636,12.636,0,0,0-4.428-5.3c-.361-.274-.828-.689-1.384-1.191A56.232,56.232,0,0,1,1048.627-38.37Z" transform="translate(-973.155 68.763)" fill="#371a9f"/>
      <path id="Trazado_75" data-name="Trazado 75" d="M968.443-48.518c.437-6.64,1.411-13.307,4.311-19.258a23.6,23.6,0,0,0-7.133,4.172,50.379,50.379,0,0,0-3.991,14.432A24.98,24.98,0,0,1,968.443-48.518Z" transform="translate(-953.816 71.32)" fill="#371a9f"/>
      <path id="Trazado_76" data-name="Trazado 76" d="M1010.171-71.862c-1.717-.17-3.381-.289-4.965-.362q.161,1.89.214,3.78.027.947.027,1.893t-.026,1.893a67.955,67.955,0,0,1-.633,7.537q-.265,1.872-.63,3.731c-.191.967-.41,1.93-.642,2.889-.065.268-.125.536-.193.8a68.021,68.021,0,0,1-2.283,7.223c1.492.327,3.034.621,4.636.871a66.657,66.657,0,0,0,2.669-8.319A67.894,67.894,0,0,0,1010.171-71.862Z" transform="translate(-962.577 72.309)" fill="#371a9f"/>
      <path id="Trazado_77" data-name="Trazado 77" d="M989.5-71.7c-3.687,6.432-5.229,13.682-6.056,21.018q-.234,2.081-.405,4.166c1.636.551,3.339,1.121,5.12,1.681.585-2.011,1.1-4.042,1.561-6.082a102.2,102.2,0,0,0,2.525-21.141C991.217-71.965,990.291-71.846,989.5-71.7Z" transform="translate(-958.575 72.272)" fill="#371a9f"/>
      <path id="Trazado_78" data-name="Trazado 78" d="M978.438-69.415c-3.619,6.209-4.716,13.368-5.179,20.5-.007.1-.015.205-.021.308,1.744.473,3.549,1.048,5.44,1.677q.139-1.6.311-3.21.072-.693.158-1.386c.184-1.528.4-3.052.663-4.565s.567-3.014.927-4.5.781-2.951,1.268-4.395a42.9,42.9,0,0,1,2.343-5.635A55.01,55.01,0,0,0,978.438-69.415Z" transform="translate(-956.397 71.951)" fill="#371a9f"/>
      <path id="Trazado_79" data-name="Trazado 79" d="M957.1-46.319a68.553,68.553,0,0,1,2.055-9.92,55.777,55.777,0,0,0-7.569,12.04c.338-.21.68-.417,1.044-.6A17.1,17.1,0,0,1,957.1-46.319Z" transform="translate(-951.583 68.755)" fill="#371a9f"/>
    </g>
    <path id="Trazado_80" data-name="Trazado 80" d="M1037.677-32.461a11.322,11.322,0,0,0-1.926-1.386,12.011,12.011,0,0,0-2.506-1.083,15.4,15.4,0,0,0-2.191-.488,31.417,31.417,0,0,0-6.057-.2c-.32.014-.666.04-1,.06-.453.027-.9.049-1.366.083-1.652.12-3.414.279-5.3.439q-1.17.1-2.4.2c-1.81.138-3.725.261-5.756.339-.8.031-1.615.056-2.45.072-1.412.025-2.876.025-4.4-.01-.1,0-.191,0-.285,0-.69-.017-1.367-.049-2.039-.086-1.762-.094-3.46-.248-5.1-.452q-1.161-.142-2.283-.321c-1.6-.25-3.144-.544-4.637-.871q-1.119-.244-2.2-.51-2.347-.579-4.527-1.23c-.73-.214-1.445-.437-2.15-.659-1.783-.561-3.483-1.131-5.12-1.681-.739-.249-1.468-.494-2.181-.732-1.892-.629-3.7-1.2-5.44-1.677-.169-.046-.331-.079-.5-.123h0c-.576-.15-1.151-.3-1.712-.422a24.979,24.979,0,0,0-6.814-.652,17.454,17.454,0,0,0-2.3.285,17.085,17.085,0,0,0-4.47,1.52c-.365.183-.705.39-1.044.6-6.452,3.994-8.223,12.583-6.711,16.762.428,1.184,1.919,2.125,4.51,2.955a76.8,76.8,0,0,0,11.036,2.267h0c4.651.707,10.362,1.426,17.19,2.283,3.474.434,5.954.7,7.783.876,2.5.235,3.769.285,4.641.311,3.381.1,6.224-.018,8.948-.143a75.236,75.236,0,0,1,21.855,1.413c5.921,1.213,10.235,2.556,13.47,2.967.083.011.163.019.245.028h0c2.447.278,4.266-.005,5.688-1.346C1042.41-17.078,1043.747-27.034,1037.677-32.461Z" transform="translate(-67.393 -19.518)" fill="#ff2d55"/>
    <path id="Trazado_81" data-name="Trazado 81" d="M1039.851,5.752a3,3,0,0,0-1.373,5.838h.006a3,3,0,0,0,1.373-5.838Z" transform="translate(-88.257 -30.533)" fill="#371a9f"/>
    <path id="Trazado_82" data-name="Trazado 82" d="M981.219-5.846c.918,2.613.222,5.269-.778,7.758a8.489,8.489,0,0,1,.661,2.51l-1.584-.371c.313-.7.63-1.411.923-2.139A5.843,5.843,0,0,0,978.39-.634a4.721,4.721,0,0,0-5.673.454.849.849,0,0,0,.032,1.192.865.865,0,0,0,1.193-.032,3.008,3.008,0,0,1,3.7-.084,5.186,5.186,0,0,1,1.77,3.591c.082.757,1.217,1.189,1.585.371,1.566-3.486,3.179-7.372,1.831-11.2C982.473-7.365,980.856-6.874,981.219-5.846Z" transform="translate(-74.102 -27.737)" fill="#371a9f"/>
    <path id="Trazado_83" data-name="Trazado 83" d="M983.112,6.942a8.493,8.493,0,0,0-.661-2.51c-.293.729-.611,1.444-.923,2.139Z" transform="translate(-76.112 -30.257)" fill="#371a9f"/>
    <path id="Trazado_85" data-name="Trazado 85" d="M1024.667,45.837a20.335,20.335,0,0,1-10.079-15.044,1.133,1.133,0,0,1,1.106-1.145,1.159,1.159,0,0,1,1.141,1.1,17.982,17.982,0,0,0,8.948,13.132,1.126,1.126,0,0,1-1.115,1.952Z" transform="translate(-83.461 -35.863)" fill="#371a9f"/>
    <path id="Trazado_11-2" data-name="Trazado 11" d="M1127.273,143.136a24.4,24.4,0,0,0-5.439-2.6c-4.7-1.586-9.726-1.914-14.686-1.977-6.631-.084-13.536.355-19.338,3.567-3.46,1.916-6.409,4.759-10.1,6.175-3.177,1.219-6.662,1.286-10.064,1.338-18.407.284-24.067,2.925-52.478.81-14.221-1.059-21.333-1.589-25.235-3.124-14.162-5.571-20.1-15.8-26.476-20.434-8.217,7.062-15.7,15.62-18.424,25.933a249.739,249.739,0,0,0,22.149,15.441c6.91,4.452,14.046,9,22.124,10.517,5.489,1.033,11.141.609,16.692-.01,22.824-2.546,45.151-8.308,67.387-14.053,6.229-1.609,12.621-3.293,17.836-7.062,5.492-3.969,9.718-10.235,16.32-11.764a22.306,22.306,0,0,1,6.811-.249,83.38,83.38,0,0,1,11.186,1.665A2.294,2.294,0,0,0,1127.273,143.136Z" transform="translate(-67.999 -57.478)" fill="#5ac8fa"/>
    <path id="Trazado_12-2" data-name="Trazado 12" d="M941.62,101.453a56.36,56.36,0,0,1-9.409-12.642c-1.8-3.277-1.747-3.953-3.33-7.19-3.634-7.431-7.706-15.759-13.7-16.841-7.121-1.285-14.772,8.043-17.911,14.91-.549,1.2-5.6,12.493-.589,23.091,4.224,8.945,13.254,14.4,20.4,21.245,2.027,1.941,3.92,4.016,5.812,6.089l10.344,11.34c.154-.834.346-1.655.561-2.467,2.729-10.312,10.208-18.871,18.424-25.933q.8-.688,1.608-1.359A98.913,98.913,0,0,1,941.62,101.453Z" transform="translate(-55.763 -43.645)" fill="#ff9500"/>
  </g>
</svg>
