<svg xmlns="http://www.w3.org/2000/svg" width="153" height="47.705" viewBox="0 0 153 47.705">
  <g id="Cleverit_logo" transform="translate(-59.812 -50.849)">
    <path id="Trazado_1" data-name="Trazado 1" d="M458.795,50.849H435.9a7.616,7.616,0,0,0-7.616,7.616V90.939a7.616,7.616,0,0,0,7.616,7.616h22.892a7.616,7.616,0,0,0,7.616-7.616V58.465A7.616,7.616,0,0,0,458.795,50.849ZM441.457,88.294h-3.783V67.413h3.783ZM441.4,62.665a2.484,2.484,0,0,1-1.832.729,2.519,2.519,0,0,1-1.832-.709,2.324,2.324,0,0,1-.729-1.733,2.39,2.39,0,0,1,.729-1.753,2.484,2.484,0,0,1,1.832-.729,2.564,2.564,0,0,1,1.832.689,2.265,2.265,0,0,1,.729,1.714A2.437,2.437,0,0,1,441.4,62.665Zm15.976,25.491a8.562,8.562,0,0,1-2.521.374,6.7,6.7,0,0,1-4.886-1.694,6.467,6.467,0,0,1-1.733-4.846V70.525h-3.546V67.413h3.546v-4.57h3.782v4.57H458v3.113h-5.989V81.833a3.665,3.665,0,0,0,.847,2.6,3.153,3.153,0,0,0,2.423.906,4.558,4.558,0,0,0,2.955-.985l1.182,2.719A5.644,5.644,0,0,1,457.374,88.156Z" transform="translate(-253.599)" fill="#371a9f"/>
  </g>
</svg>
