<svg xmlns="http://www.w3.org/2000/svg" width="207.311" height="259.41" viewBox="0 0 207.311 259.41">
  <path id="IT" d="M594.182,50.849H469.7a41.415,41.415,0,0,0-41.416,41.413V268.847A41.415,41.415,0,0,0,469.7,310.259H594.182A41.415,41.415,0,0,0,635.6,268.847V92.261a41.414,41.414,0,0,0-41.413-41.412ZM499.9,254.464H479.338V140.918H499.9ZM499.582,115.1a13.51,13.51,0,0,1-9.964,3.964,13.7,13.7,0,0,1-9.961-3.856,12.635,12.635,0,0,1-3.964-9.425,13,13,0,0,1,3.964-9.534,13.507,13.507,0,0,1,9.961-3.964,13.944,13.944,0,0,1,9.964,3.749,12.321,12.321,0,0,1,3.964,9.321A13.252,13.252,0,0,1,499.582,115.1Zm86.873,138.614a46.557,46.557,0,0,1-13.71,2.034q-17.144,0-26.569-9.213t-9.425-26.351V157.843H517.47V140.918h19.28V116.066h20.566v24.851h32.565v16.926H557.318v61.488q0,9.213,4.606,14.139T575.1,238.4a24.785,24.785,0,0,0,16.068-5.358l6.427,14.784A30.69,30.69,0,0,1,586.455,253.716Z" transform="translate(-428.287 -50.849)" fill="#371a9f"/>
</svg>
