<svg xmlns="http://www.w3.org/2000/svg" width="168.333" height="168.333" viewBox="0 0 168.333 168.333"><defs><style>.a{fill:#371a9f;}.b{fill:#545454;}.c{fill:#52ddd4;}</style></defs><g transform="translate(0 0)"><path class="a" d="M9.2,51.8H91.717l58.38,58.38a83.3,83.3,0,0,1-56.73,22.073A84.362,84.362,0,0,1,9.2,51.8Z" transform="translate(-9.2 36.08)"/><path class="b" d="M19.92,24.8c-1.444,1.857-2.682,3.507-3.92,5.364l42.5,42.5h9.489Z" transform="translate(-1.972 7.381)"/><path class="b" d="M15.794,30.3c-1.031,2.063-2.269,4.126-3.094,6.189L43.231,67.02h9.489Z" transform="translate(-5.48 13.227)"/><path class="b" d="M18.689,52.564,10.025,43.9c-.413,2.888-.619,5.57-.825,8.458h0Z" transform="translate(-9.2 27.683)"/><path class="b" d="M12.463,36.6A73.734,73.734,0,0,0,10.4,43.82l16.5,16.5h9.489Z" transform="translate(-7.925 19.924)"/><path class="b" d="M30.064,16.1A51.083,51.083,0,0,0,24.7,20.02L72.972,68.292V58.8Z" transform="translate(7.275 -1.866)"/><path class="b" d="M43.62,10.4a73.854,73.854,0,0,0-7.22,2.269L60.536,36.805V27.316Z" transform="translate(19.711 -7.925)"/><path class="b" d="M78.074,73.529,24.645,20.1c-1.65,1.444-3.094,3.094-4.745,4.745L72.917,77.862h4.951V73.529Z" transform="translate(2.173 2.386)"/><path class="b" d="M52.158,9.2c-2.888.206-5.776.413-8.458.825L52.777,19.1V9.613Z" transform="translate(27.471 -9.2)"/><path class="b" d="M36.389,12.8,30.2,15.894,67.332,53.027V43.537Z" transform="translate(13.121 -5.374)"/><path class="c" d="M51.8,9.2V91.717l58.38,58.38a83.3,83.3,0,0,0,22.073-56.73A84.362,84.362,0,0,0,51.8,9.2Z" transform="translate(36.08 -9.2)"/></g></svg>