<svg xmlns="http://www.w3.org/2000/svg" width="124.396" height="46.072" viewBox="0 0 124.396 46.072">
  <g id="logo-chilecompra" opacity="0.42">
    <path id="Trazado_1530" data-name="Trazado 1530" d="M72.646,43.307l6.535-1.628a2.983,2.983,0,0,1,3.731,2.879c.451,3.681,1.878,21.734,1.878,21.734s.275,2.078-2.7,3.055l-19.656.075s-3.23.5-3.531-3.531-1.4-16.426-1.4-16.426a3.126,3.126,0,0,1,2.8-3.08c2.93-.6,9.991-2.529,9.991-2.529l.451,2.429-8.313,1.6a2.859,2.859,0,0,0-2.4,2.329l1.127,13.922a2.8,2.8,0,0,0,2.354,2.429l16.326-.5s2.6-.3,2.3-3.455-1.427-16.125-1.427-16.125a1.955,1.955,0,0,0-2.379-1.728l-5.183,1.027Z" transform="translate(-57.497 -33.416)" fill="#737373"/>
    <path id="Trazado_1531" data-name="Trazado 1531" d="M118.323,26.478l.2,2.329,6.16-1.853a3.213,3.213,0,0,0,1.953-3.305L124.783,11.6a3.26,3.26,0,0,0-2.93-2.7l-15.374,1.127a3.208,3.208,0,0,0-2.579,3.255l3.055,15.524a3.351,3.351,0,0,0,3.455,2.379l5.784-1.7-.2-2.379-3.981,1.077s-2.178.651-3.055-1.953l-2.379-11.518a2.7,2.7,0,0,1,2.4-2.88l12.319-.4s1.527-.05,1.853,1.878l1.127,9.465s.025,2.128-1.527,2.579Z" transform="translate(-92.281 -8.9)" fill="#737373"/>
    <rect id="Rect치ngulo_752" data-name="Rect치ngulo 752" width="20.107" height="4.056" transform="translate(38.661 42.016)" fill="#737373"/>
    <rect id="Rect치ngulo_753" data-name="Rect치ngulo 753" width="28.92" height="4.056" transform="translate(58.793 42.016)" fill="#737373"/>
    <g id="Grupo_1429" data-name="Grupo 1429" transform="translate(38.987 14.848)">
      <path id="Trazado_1532" data-name="Trazado 1532" d="M215.128,74.91a6.347,6.347,0,0,1-1.928-.3V68.8h1.678c1.678,0,2.679.726,2.679,2.955C217.557,73.758,216.706,74.91,215.128,74.91Zm-.3-5.559h-.951v4.782a4.856,4.856,0,0,0,1.277.175c1.052,0,1.678-.7,1.678-2.579C216.831,70.027,216.255,69.351,214.828,69.351Z" transform="translate(-213.2 -68.65)" fill="#737373"/>
      <path id="Trazado_1533" data-name="Trazado 1533" d="M234.976,74.659V70.854l-.476-.1V70.3h1.127v4.357Zm-.05-6.059h.726v.7h-.726Z" transform="translate(-229.167 -68.5)" fill="#737373"/>
      <path id="Trazado_1534" data-name="Trazado 1534" d="M246,75.776a1.618,1.618,0,0,0-.551-.075,1.405,1.405,0,0,0-.977.476v3.38H243.8V75.175h.451l.125.551A1.437,1.437,0,0,1,245.5,75.1a1.344,1.344,0,0,1,.551.075Z" transform="translate(-236.138 -73.372)" fill="#737373"/>
      <path id="Trazado_1535" data-name="Trazado 1535" d="M254.976,77.554c0,1.077.551,1.552,1.377,1.552a2.783,2.783,0,0,0,1.352-.426l.175.476a3.115,3.115,0,0,1-1.6.476c-1.2,0-1.978-.8-1.978-2.3,0-1.377.676-2.228,1.878-2.228,1.227,0,1.753.977,1.753,2.078v.376Zm1.177-1.953c-.826,0-1.177.726-1.177,1.477h2.279C257.255,76.327,257,75.6,256.153,75.6Z" transform="translate(-244.009 -73.372)" fill="#737373"/>
      <path id="Trazado_1536" data-name="Trazado 1536" d="M275.655,79.082a3.188,3.188,0,0,1-1.452.376c-1.1,0-1.9-.651-1.9-2.279,0-1.477.8-2.279,1.9-2.279a2.745,2.745,0,0,1,1.427.351l-.2.476a2.308,2.308,0,0,0-1.2-.275c-.776,0-1.252.626-1.252,1.728,0,1.227.476,1.753,1.252,1.753a2.317,2.317,0,0,0,1.252-.376Z" transform="translate(-257.502 -73.222)" fill="#737373"/>
      <path id="Trazado_1537" data-name="Trazado 1537" d="M292.055,79.082a3.188,3.188,0,0,1-1.452.376c-1.1,0-1.9-.651-1.9-2.279,0-1.477.8-2.279,1.9-2.279a2.745,2.745,0,0,1,1.427.351l-.2.476a2.307,2.307,0,0,0-1.2-.275c-.776,0-1.252.626-1.252,1.728,0,1.227.476,1.753,1.252,1.753a2.317,2.317,0,0,0,1.252-.376Z" transform="translate(-269.795 -73.222)" fill="#737373"/>
      <path id="Trazado_1538" data-name="Trazado 1538" d="M305.676,74.659V70.854l-.476-.1V70.3h1.127v4.357ZM305.6,68.6h.726v.7H305.6Z" transform="translate(-282.164 -68.5)" fill="#737373"/>
      <path id="Trazado_1539" data-name="Trazado 1539" d="M317.531,72.181c0,1.477-.7,2.279-1.878,2.279s-1.853-.8-1.853-2.279c0-1.277.6-2.254,1.853-2.254C316.88,69.928,317.531,70.879,317.531,72.181Zm-.676,0c0-1.127-.376-1.753-1.177-1.753-.826,0-1.177.651-1.177,1.753,0,1.077.3,1.778,1.177,1.778C316.5,73.934,316.855,73.333,316.855,72.181Zm-2.128-2.854-.1-.4,1.953-.726.125.5Z" transform="translate(-288.61 -68.2)" fill="#737373"/>
      <path id="Trazado_1540" data-name="Trazado 1540" d="M335.554,79.532V76.9c0-.826-.25-1.277-1-1.277a1.617,1.617,0,0,0-1.077.5v3.405H332.8V75.175h.451l.125.526a1.921,1.921,0,0,1,1.377-.6c1.027,0,1.477.6,1.477,1.7v2.754h-.676Z" transform="translate(-302.853 -73.372)" fill="#737373"/>
    </g>
    <g id="Grupo_1430" data-name="Grupo 1430" transform="translate(38.236 24.213)">
      <path id="Trazado_1541" data-name="Trazado 1541" d="M214.807,117.493c-3.08,0-4.607-2.329-4.607-5.859,0-3.631,1.778-5.734,4.632-5.734a6.085,6.085,0,0,1,3.48.926l-.5,1.027a5.112,5.112,0,0,0-2.9-.826c-2.3,0-3.38,1.828-3.38,4.557,0,2.9,1.127,4.782,3.33,4.782a5.212,5.212,0,0,0,3.1-1.077l.4,1.027A5.927,5.927,0,0,1,214.807,117.493Z" transform="translate(-210.2 -105.825)" fill="#737373"/>
      <path id="Trazado_1542" data-name="Trazado 1542" d="M249.1,117.118V105.6h1.277v3.28a3.821,3.821,0,0,1-.125,1.027,3.417,3.417,0,0,1,2.479-1.152c2,0,2.829,1.127,2.829,3.18v5.158h-1.3V112.16c0-1.527-.6-2.4-1.878-2.4a3.018,3.018,0,0,0-2,.926v6.41H249.1Z" transform="translate(-239.36 -105.6)" fill="#737373"/>
      <path id="Trazado_1543" data-name="Trazado 1543" d="M282.6,117.418v-7.161l-.9-.175v-.826h2.128v8.188H282.6ZM282.476,106h1.352v1.327h-1.352Z" transform="translate(-263.797 -105.9)" fill="#737373"/>
      <path id="Trazado_1544" data-name="Trazado 1544" d="M299.4,114.865V105.6h1.252v9.74c0,.7.326.977,1.227.977h.275v.876a3.791,3.791,0,0,1-.8.1C299.776,117.268,299.4,116.392,299.4,114.865Z" transform="translate(-277.065 -105.6)" fill="#737373"/>
      <path id="Trazado_1545" data-name="Trazado 1545" d="M316.777,122.832c0,2.028,1.027,2.9,2.579,2.9a4.869,4.869,0,0,0,2.529-.826l.326.9a5.752,5.752,0,0,1-2.98.9c-2.229,0-3.731-1.477-3.731-4.307,0-2.579,1.277-4.207,3.505-4.207,2.3,0,3.28,1.853,3.28,3.906v.726Zm2.2-3.656c-1.552,0-2.178,1.377-2.178,2.779h4.282C321.059,120.529,320.583,119.177,318.98,119.177Z" transform="translate(-289.134 -115.045)" fill="#737373"/>
      <path id="Trazado_1546" data-name="Trazado 1546" d="M354.007,117.493c-3.08,0-4.607-2.329-4.607-5.859,0-3.631,1.778-5.734,4.632-5.734a6.086,6.086,0,0,1,3.48.926l-.5,1.027a5.112,5.112,0,0,0-2.9-.826c-2.3,0-3.38,1.828-3.38,4.557,0,2.9,1.127,4.782,3.33,4.782a5.212,5.212,0,0,0,3.1-1.077l.4,1.027A5.927,5.927,0,0,1,354.007,117.493Z" transform="translate(-314.545 -105.825)" fill="#737373"/>
      <path id="Trazado_1547" data-name="Trazado 1547" d="M391.911,122.531c0,2.754-1.327,4.282-3.531,4.282-2.229,0-3.48-1.477-3.48-4.282,0-2.4,1.127-4.232,3.48-4.232C390.659,118.274,391.911,120.077,391.911,122.531Zm-1.3,0c0-2.128-.726-3.28-2.229-3.28-1.527,0-2.2,1.2-2.2,3.28,0,2,.576,3.33,2.2,3.33C389.983,125.836,390.609,124.709,390.609,122.531Z" transform="translate(-341.156 -115.119)" fill="#737373"/>
      <path id="Trazado_1548" data-name="Trazado 1548" d="M426.96,121.405v5.158h-1.277V121.63c0-1.552-.451-2.4-1.828-2.4a2.9,2.9,0,0,0-1.978.926v6.41H420.6v-8.188h.826l.275.977a3.466,3.466,0,0,1,2.479-1.152,2.389,2.389,0,0,1,2.4,1.252,3.566,3.566,0,0,1,2.554-1.252c2,0,2.88,1.127,2.88,3.18v5.158h-1.277v-4.933c0-1.552-.576-2.4-1.978-2.4a2.945,2.945,0,0,0-1.953.926A4.964,4.964,0,0,1,426.96,121.405Z" transform="translate(-367.917 -115.045)" fill="#737373"/>
      <path id="Trazado_1549" data-name="Trazado 1549" d="M475.477,127.264v2.629H474.2V118.55h.977l.2.977a3.314,3.314,0,0,1,2.379-1.127c2.078,0,3.13,1.477,3.13,4.232,0,2.879-1.427,4.282-3.38,4.282a2.9,2.9,0,0,1-2.2-.926A6.31,6.31,0,0,1,475.477,127.264Zm0-2.228a2.677,2.677,0,0,0,1.928.876c1.477,0,2.178-.977,2.178-3.33,0-2.153-.626-3.255-2.1-3.255a2.987,2.987,0,0,0-2.028.951v4.757Z" transform="translate(-408.096 -115.195)" fill="#737373"/>
      <path id="Trazado_1550" data-name="Trazado 1550" d="M512.757,119.552a3.482,3.482,0,0,0-1.052-.15,2.6,2.6,0,0,0-1.828.876v6.335H508.6v-8.188h.851l.225,1.027a2.7,2.7,0,0,1,2.128-1.152,4.523,4.523,0,0,1,1.027.125Z" transform="translate(-433.883 -115.12)" fill="#737373"/>
      <path id="Trazado_1551" data-name="Trazado 1551" d="M534.683,126.563l-.225-1.052a3.208,3.208,0,0,1-2.529,1.227,2.44,2.44,0,0,1-2.629-2.5c0-1.427,1.027-2.329,2.88-2.329h2.128v-.651c0-1.427-.626-2.028-1.853-2.028a6.412,6.412,0,0,0-2.479.526l-.326-.926a7.372,7.372,0,0,1,2.98-.626,2.617,2.617,0,0,1,2.93,2.955v5.383h-.876Zm-.376-3.806H532.38c-1.377,0-1.853.6-1.853,1.427a1.508,1.508,0,0,0,1.728,1.628,2.871,2.871,0,0,0,2.053-1.027Z" transform="translate(-449.4 -115.045)" fill="#737373"/>
    </g>
  </g>
</svg>
