<svg xmlns="http://www.w3.org/2000/svg" width="151.469" height="34.133" viewBox="0 0 151.469 34.133">
  <g id="Metro_de_santiago" data-name="Metro de santiago" opacity="0.42">
    <path id="Trazado_1476" data-name="Trazado 1476" d="M38.67,73.843l5.274,9.528,5.262-9.528-5.262-9.526L38.67,73.843m10.606,0,5.27,9.528,5.266-9.528-5.266-9.526-5.27,9.526m10.611,0,5.27,9.528,5.268-9.528-5.268-9.526-5.27,9.526m-7.11,15.394C43.063,88.528,35.394,82.272,35,74.55a16.422,16.422,0,0,1,.1-2.322C36.16,64.528,44,59.909,50.046,58.9a24.922,24.922,0,0,1,3.891-.4,25.634,25.634,0,0,1,2.95.1c7.448.682,13.627,4.638,16.119,9.978a11.15,11.15,0,0,1,1.022,4.594,14.524,14.524,0,0,1-.167,2.549c-1.11,7.379-8.975,13.3-18.618,13.569-.242.006-.478.011-.713.011-.587,0-1.173-.021-1.753-.063m-4.74-31.564c-8.015,2.113-14.629,8.3-14.629,16.226a13.93,13.93,0,0,0,.269,2.7c1.6,8.145,10.371,14.372,20.944,14.372,11.72,0,21.213-7.642,21.213-17.068S66.341,56.834,54.621,56.834a25.625,25.625,0,0,0-6.584.839" transform="translate(-33.408 -56.834)" fill="#737373"/>
    <path id="Trazado_1477" data-name="Trazado 1477" d="M233.019,61.848a3.451,3.451,0,0,0-3.367,2.055l-4.844,10.026L219.959,63.9a3.417,3.417,0,0,0-3.474-2.055H216a2.407,2.407,0,0,0-2.518,2.624v14.96h3.707v-13.3l4.314,9.029c.783,1.634,1.5,2.12,3.155,2.12h.119a3.1,3.1,0,0,0,3.294-2.045l4.358-9.1v13.3h3.707V64.472a2.427,2.427,0,0,0-2.562-2.624h-.555m11.249-.021c-2.334,0-3,1.16-3,2.939V79.439h14.107V75.915H244.785l0-3.525h9.422V68.872H244.8l-.013-3.526h10.306V61.827H244.268m15.862,0c-1.951,0-2.739,1.314-2.739,2.933v.586h5.783V79.439h4.11V65.346h5.149V61.827h-12.3m18.584,8.38.008-4.861,6.019,0a2.322,2.322,0,0,1,2.637,2.355,2.347,2.347,0,0,1-2.637,2.51l-6.027,0m-.722-8.38c-1.944,0-2.733,1.314-2.733,2.939V79.432h3.528V73.568h3.605l4.3,5.864h4.7l-4.917-6.14a5.7,5.7,0,0,0,4.507-5.593c0-3.246-2.743-5.873-6.634-5.873h-6.351m19.957,8.727c0-3.254,2.113-5.9,6.129-5.9a5.662,5.662,0,0,1,5.927,5.9,5.567,5.567,0,0,1-5.927,5.887c-4.208,0-6.129-2.631-6.129-5.887m-4.17,0c0,5.04,3.822,9.129,10.356,9.129,5.975,0,10.039-4.089,10.039-9.129s-4.319-9.138-10.039-9.138c-6.233,0-10.356,4.095-10.356,9.138" transform="translate(-163.451 -60.143)" fill="#737373"/>
    <path id="Trazado_1478" data-name="Trazado 1478" d="M413.371,146.2a1.45,1.45,0,0,0-1.569,1.31v.254h3.265v6.269h1.83v-6.269h3.261V146.2h-6.787" transform="translate(-306.672 -121.371)" fill="#737373"/>
    <path id="Trazado_1479" data-name="Trazado 1479" d="M214.328,147.774l3.448,0a2.39,2.39,0,1,1,0,4.7h-3.448v-4.7m0-1.567a1.455,1.455,0,0,0-1.571,1.306v6.528h4.7c2.591,0,4.694-1.754,4.694-3.922s-2.1-3.912-4.694-3.912h-3.133" transform="translate(-162.931 -121.376)" fill="#737373"/>
    <path id="Trazado_1480" data-name="Trazado 1480" d="M253.861,146.207a1.446,1.446,0,0,0-1.565,1.306v6.528H259.6v-1.567h-5.741V150.9h5.219V149.34h-5.219v-1.569H259.6v-1.565h-5.741" transform="translate(-191.482 -121.376)" fill="#737373"/>
    <rect id="Rectángulo_748" data-name="Rectángulo 748" width="1.565" height="7.832" transform="translate(115.183 24.83)" fill="#737373"/>
    <path id="Trazado_1481" data-name="Trazado 1481" d="M502.942,146.162c-2.6,0-4.7,1.755-4.7,3.916s2.105,3.928,4.7,3.928h2.088a1.457,1.457,0,0,0,1.573-1.31v-3.4h-3.659v1.569h2.086v1.569h-2.4a2.394,2.394,0,1,1,0-4.711h3.98l0-1.563h-3.661" transform="translate(-369.093 -121.344)" fill="#737373"/>
    <path id="Trazado_1482" data-name="Trazado 1482" d="M381.314,146.162v6.392l-4.379-5.716a1.714,1.714,0,0,0-1.379-.676,1.454,1.454,0,0,0-1.563,1.308v6.538h1.563v-6.4l4.394,5.727a1.7,1.7,0,0,0,1.364.672,1.461,1.461,0,0,0,1.571-1.314v-6.532h-1.571" transform="translate(-279.368 -121.344)" fill="#737373"/>
    <path id="Trazado_1483" data-name="Trazado 1483" d="M338.9,147.545l1.41,3.321H337.5l1.406-3.321m-1.473-.518-2.964,6.981h1.7l.665-1.571h4.148l.663,1.571h1.706l-2.969-6.981a1.691,1.691,0,0,0-2.952,0" transform="translate(-250.823 -121.344)" fill="#737373"/>
    <path id="Trazado_1484" data-name="Trazado 1484" d="M466.255,147.545l1.413,3.321h-2.819l1.406-3.321m-1.477-.518-2.967,6.981h1.7l.67-1.571h4.15l.667,1.571h1.7l-2.969-6.981a1.695,1.695,0,0,0-2.956,0" transform="translate(-342.787 -121.344)" fill="#737373"/>
    <path id="Trazado_1485" data-name="Trazado 1485" d="M302.007,146.162a2.392,2.392,0,1,0,0,4.7h3.025a.8.8,0,1,1,0,1.567h-5.6v1.573l5.288,0a2.392,2.392,0,1,0,0-4.706h-3.023a.872.872,0,0,1-.945-.782.881.881,0,0,1,.945-.791h5.049v-1.563h-4.736" transform="translate(-225.342 -121.344)" fill="#737373"/>
    <path id="Trazado_1486" data-name="Trazado 1486" d="M535.887,149.932l.061-.119,0-.012a3.4,3.4,0,0,1,6.688,0l-.057.121,0,.008a3.4,3.4,0,0,1-6.693,0m-1.471-.131c0,2.253,2.193,4.083,4.9,4.083s4.895-1.829,4.895-4.083-2.193-4.083-4.895-4.083-4.9,1.828-4.9,4.083" transform="translate(-395.22 -121.023)" fill="#737373"/>
    <path id="Trazado_1487" data-name="Trazado 1487" d="M569.67,125.672h.611l.315.087.1.227-.052.173-.148.111-.277.039h-.549m-.254-.851v1.932h.254v-.862h.3l.142.015.117.048.129.129.184.263.254.407h.321l-.329-.526-.215-.259-.157-.094.413-.184.134-.342-.08-.294-.215-.184-.394-.05h-.855" transform="translate(-420.496 -106.393)" fill="#737373"/>
    <path id="Trazado_1488" data-name="Trazado 1488" d="M565.647,124.157a1.589,1.589,0,1,1,1.59,1.586,1.584,1.584,0,0,1-1.59-1.586m-.242,0a1.832,1.832,0,1,0,1.832-1.836,1.832,1.832,0,0,0-1.832,1.836" transform="translate(-417.6 -104.127)" fill="#737373"/>
  </g>
</svg>
