<svg xmlns="http://www.w3.org/2000/svg" width="178.07" height="177.376" viewBox="0 0 178.07 177.376"><defs><style>.a{fill:#371a9f;}.b{fill:#545454;}.c{fill:#d9d9d9;}.d{fill:#52ddd4;}</style></defs><g transform="translate(0 -12.313)"><g transform="translate(0 0)"><path class="a" d="M188.2,332.092l22.589,9.4-9.4-22.589Z" transform="translate(-113.537 -184.646)"/><path class="b" d="M43.008,159.359a5.923,5.923,0,0,0-8.424,0l-5.925,5.925a5.923,5.923,0,0,0,0,8.424l4.212,4.212,14.349-14.4Z" transform="translate(-26.9 -98.009)"/><path class="c" d="M59.749,176.1,45.4,190.449l1.9,1.944,14.4-14.4Z" transform="translate(-36.837 -107.946)"/><path class="a" d="M87.5,232.6h.046l26.014,26.014,14.349-14.349L84.956,201.306v-.046L69.5,185.8,55.1,200.149l32.4,32.4Z" transform="translate(-42.047 -113.156)"/><path class="d" d="M126.4,52.7v75.079l43.65,43.65.046.046.046.046.046.046.046.046.046.046h0a1.319,1.319,0,0,1,.37.648v.046l11.989,28.884v.046h0v.093h0v.046h0v.046h0v.046h0v.046h0v.093h0v.046h0v.185h0v.046h0v.046h0v.046h0v.046h0v.046h0v.046h0v.046h0l-.046.093v.046h0v.046h0v.093h0v.046h0v.046h0v.046h0v.046h0v.046h0v.046h0v.046h0v.046h0v.046h-.509l-.185-.046h0L153.016,190.87h0a1.743,1.743,0,0,1-.694-.417l-.046-.046-.046-.046-.046-.046L128.066,166.2V229.1l130.347.972V52.7Zm57.675,62.119h20A21.363,21.363,0,0,1,167.689,128.1,21.392,21.392,0,0,1,182.27,91.582v21.431A1.778,1.778,0,0,0,184.075,114.819Zm37.632-39.437v35.781H207.728a25.244,25.244,0,0,0-7.267-15.877,24.794,24.794,0,0,0-14.581-7.128V75.335h35.827ZM185.88,91.86a21.286,21.286,0,0,1,18.145,19.3H185.834Z" transform="translate(-80.343 -40.387)"/></g></g></svg>