<svg xmlns="http://www.w3.org/2000/svg" width="140.152" height="21.717" viewBox="0 0 140.152 21.717">
  <g id="SAAM" opacity="0.42">
    <path id="Trazado_1468" data-name="Trazado 1468" d="M8.785,361.571,4,371l27.64-.023L42.417,349.4H31.826l-6.062,12.171Z" transform="translate(-4 -349.377)" fill="#737373"/>
    <path id="Trazado_1469" data-name="Trazado 1469" d="M29.905,354.108,26.7,360.5H42.4l5.551-11.2H40.822l-2.439,4.808Z" transform="translate(-21.427 -349.3)" fill="#737373"/>
    <path id="Trazado_1470" data-name="Trazado 1470" d="M293.737,357.871v-4.018c.047-.743-.488-1.045-1.394-1.092l-9.268.023a.92.92,0,0,0-.906.976v.906c-.209.418-.418.65-.7.7h-2.067c-.465-.07-.65-.116-.883-.7v-.743c.023-1.463,1.394-4.436,3.74-4.622h11.265a4.811,4.811,0,0,1,3.9,3.739V366.7c.07,1.649-2.183,4.158-3.949,4.2H283.029c-2.346-.046-4.436-1.7-4.529-3.786l.023-5.04a4.684,4.684,0,0,1,4.552-4.158Zm-10.545,9.407,9.8.023c.348.07.767-.395.743-1.138V362.47a1.613,1.613,0,0,0-1.556-1.022l-8.71-.023a1.4,1.4,0,0,0-1.324,1.138v3.856c.232.65.6.859,1.045.859" transform="translate(-214.742 -349.3)" fill="#737373"/>
    <path id="Trazado_1471" data-name="Trazado 1471" d="M380.837,357.871v-4.018c.047-.743-.488-1.045-1.394-1.092l-9.268.023a.92.92,0,0,0-.906.976v.906c-.209.418-.418.65-.7.7h-2.067c-.465-.07-.65-.116-.883-.7v-.743c.023-1.463,1.394-4.436,3.74-4.622h11.265a4.811,4.811,0,0,1,3.9,3.739V366.7c.07,1.649-2.183,4.158-3.949,4.2H370.129c-2.346-.046-4.436-1.7-4.529-3.786l.023-5.04a4.684,4.684,0,0,1,4.553-4.158Zm-10.568,9.407,9.8.023c.348.07.766-.395.743-1.138V362.47a1.613,1.613,0,0,0-1.556-1.022l-8.71-.023a1.4,1.4,0,0,0-1.324,1.138v3.856c.232.65.6.859,1.045.859" transform="translate(-281.611 -349.3)" fill="#737373"/>
    <path id="Trazado_1472" data-name="Trazado 1472" d="M453.7,354.487V370.42a.665.665,0,0,0,.6.581l2.508-.023a.534.534,0,0,0,.511-.581l.023-16.189c.023-.813.232-1.277,1.185-1.254h6.736a.993.993,0,0,1,.952,1.185V370.42a.58.58,0,0,0,.534.581h2.532a.523.523,0,0,0,.441-.581l.046-16.305a.965.965,0,0,1,.952-1.161h6.643a1.257,1.257,0,0,1,1.092,1.208v16.282a.683.683,0,0,0,.488.581h2.6c.3-.139.418-.163.465-.581V354.6c-.325-2.671-1.6-4.738-4.692-5.2h-7.107a6.336,6.336,0,0,0-2.114.813h-.465a9.153,9.153,0,0,0-2.183-.813l-6.922.023a4.877,4.877,0,0,0-4.831,5.064" transform="translate(-349.248 -349.377)" fill="#737373"/>
    <path id="Trazado_1473" data-name="Trazado 1473" d="M195.771,352.621l9.384.023a1.366,1.366,0,0,1,.836.952v1.161a.9.9,0,0,0,.767.627h2.021a1.086,1.086,0,0,0,.743-.72l.046-1.51a4.878,4.878,0,0,0-4.251-3.856l-9.895.023a4.714,4.714,0,0,0-4.622,3.832l.023,4.32c.3,2.416,2.253,3.925,5.11,3.9h9.059a1.292,1.292,0,0,1,.929.72l-.046,4.669a1.114,1.114,0,0,1-.929.767h-9.779a.91.91,0,0,1-.952-.72l.023-1.951c.023-.441-.209-.6-.418-.65h-2.508a.534.534,0,0,0-.511.581v1.974a4.629,4.629,0,0,0,3.786,4.251l10.824-.023c1.742.023,3.879-2.09,4.042-4.018l.023-5.2a4.713,4.713,0,0,0-3.879-3.832l-10.429-.023a1.313,1.313,0,0,1-.766-.6v-3.925c.163-.534.627-.79,1.37-.767" transform="translate(-147.412 -349.3)" fill="#737373"/>
    <path id="Trazado_1474" data-name="Trazado 1474" d="M589.723,427.345a2.323,2.323,0,1,1,2.323-2.323,2.33,2.33,0,0,1-2.323,2.323m0-4.25a1.928,1.928,0,1,0,1.928,1.928,1.923,1.923,0,0,0-1.928-1.928" transform="translate(-451.894 -405.652)" fill="#737373"/>
    <path id="Trazado_1475" data-name="Trazado 1475" d="M594.743,428.363a.37.37,0,0,1,.418.348,2.38,2.38,0,0,0,.116.906h.349a4.355,4.355,0,0,1-.093-.72c-.023-.558-.139-.65-.441-.7h0a.572.572,0,0,0,.488-.627.6.6,0,0,0-.65-.674H594v2.718h.348v-1.254Zm-.418-1.161h.534c.279,0,.372.209.372.418,0,.232-.116.464-.372.464h-.511V427.2Z" transform="translate(-456.961 -408.876)" fill="#737373"/>
  </g>
</svg>
