<svg xmlns="http://www.w3.org/2000/svg" width="87.056" height="47.743" viewBox="0 0 87.056 47.743">
  <g id="WOM" opacity="0.42">
    <path id="Trazado_1434" data-name="Trazado 1434" d="M93.376,42.3a.971.971,0,0,1-.617,1.567l-4.48,1.4a1.151,1.151,0,0,1-1.547-.581l-7.082-15c-.194-.359-.5-.265-.454.135l2.418,16.473a1.188,1.188,0,0,1-.93,1.374l-3.242,1.017a1.178,1.178,0,0,1-1.537-.581L68.437,33.214c-.191-.359-.492-.262-.456.133l2.808,16.361a1.176,1.176,0,0,1-.938,1.374L65.379,52.5a.978.978,0,0,1-1.409-.93L61,26a1.2,1.2,0,0,1,.938-1.374l5.3-1.672a1.215,1.215,0,0,1,1.547.591l4.982,8.6c.2.347.494.262.456-.145l-.851-9.9a1.223,1.223,0,0,1,.928-1.374l5.313-1.674a1.2,1.2,0,0,1,1.547.589Z" transform="translate(-6.518 -18.979)" fill="#737373"/>
    <path id="Trazado_1435" data-name="Trazado 1435" d="M39.808,34.8a.975.975,0,0,1,.622-1.57l4.478-1.4a1.169,1.169,0,0,1,1.547.581l7.082,15.015c.194.347.494.25.454-.148L51.574,30.8A1.194,1.194,0,0,1,52.5,29.43l3.231-1.014A1.2,1.2,0,0,1,57.29,29L64.749,43.9c.194.349.492.252.454-.145L62.4,27.389a1.174,1.174,0,0,1,.938-1.374l4.478-1.4a.968.968,0,0,1,1.4.917L72.191,51.1a1.2,1.2,0,0,1-.94,1.363l-5.3,1.674a1.225,1.225,0,0,1-1.549-.589l-4.982-8.6c-.191-.349-.492-.255-.454.145l.851,9.9a1.212,1.212,0,0,1-.94,1.363l-5.3,1.674a1.184,1.184,0,0,1-1.547-.589Z" transform="translate(-39.612 -10.378)" fill="#737373"/>
    <path id="Trazado_1436" data-name="Trazado 1436" d="M52.8,35.672c-.3-2.64-.581-9.867,8.338-12.681s10.245,4.093,10.545,6.733L72.816,39.7c.3,2.633.581,9.87-8.338,12.673S54.24,48.284,53.94,45.652ZM60.163,41.5c.347,3.066.752,4.883,3.537,4s2.76-2.8,2.411-5.882l-.658-5.747C65.1,30.8,64.7,28.98,61.921,29.862s-2.757,2.816-2.408,5.892Z" transform="translate(-19.361 -13.787)" fill="#737373"/>
  </g>
</svg>
