<?xml version="1.0" encoding="utf-8"?>
<!-- Generator: Adobe Illustrator 24.0.2, SVG Export Plug-In . SVG Version: 6.00 Build 0)  -->
<svg version="1.1" xmlns="http://www.w3.org/2000/svg" xmlns:xlink="http://www.w3.org/1999/xlink" x="0px" y="0px"
	 viewBox="0 0 500 500" style="enable-background:new 0 0 500 500;" xml:space="preserve">
<style type="text/css">
	.st0{fill:#FFFFFF;}
	.st1{fill:none;stroke:#000000;stroke-miterlimit:10;}
</style>
<g id="Capa_2">
	<g>
		<g>
			<g>
				<polygon class="st0" points="183,264.2 180.7,258.5 178.1,253.1 176,247.5 173.3,242.2 171.2,236.6 168.8,231.1 166.5,225.6 
					164,220.2 161.6,214.7 159.2,209.2 156.7,203.8 154.6,198.2 152.2,192.7 149.7,187.3 147.4,181.8 145.2,176.2 142.5,170.9 
					140.1,165.4 138,159.8 135.4,154.4 133,149 130.8,143.4 128.3,138 126,132.5 123.5,127 121.5,121.4 119.1,116.1 124.3,113.8 
					129.6,111.3 135,109.2 140.3,106.9 145.7,104.6 150.9,102.1 156.3,100 161.6,97.5 166.9,95.1 172.3,93.1 177.6,90.6 182.9,88.3 
					188.2,85.8 193.6,83.8 198.9,81.3 205.6,80.3 212,82.8 216.3,88.1 218.4,93.6 220.6,99 223.1,104.4 225.3,109.8 227.6,115.2 
					230.4,120.4 232.4,125.9 235,131.2 237.1,136.7 239.6,142 241.7,147.5 244,152.9 246.4,158.3 248.9,163.6 251.3,169 
					253.5,174.4 255.7,179.8 258.4,185.1 260.7,190.5 262.9,196 265.2,201.3 267.4,206.8 269.7,212.2 270.8,218.8 268.5,225.3 
					262.9,229.2 257.7,231.7 252.5,234.2 247,236.2 241.6,238.4 236.5,241.1 231,243.1 225.8,245.7 220.5,248.1 215.1,250.3 
					209.7,252.4 204.4,254.7 199,257 193.7,259.5 188.3,261.6 				"/>
			</g>
			<g>
				<path d="M182.6,265l-2.5-6.2l-2.6-5.4l-2.1-5.6l-2.7-5.4l-2.2-5.6l-2.4-5.5l-2.2-5.6l-2.5-5.4L161,215l-2.4-5.5l-2.5-5.5
					l-2.1-5.6l-2.4-5.5l-2.5-5.4l-2.3-5.6l-2.2-5.5l-2.7-5.3l-2.4-5.5l-2.1-5.6l-2.6-5.4l-2.4-5.5l-2.2-5.6l-2.5-5.4l-2.4-5.5
					l-2.4-5.5l-2-5.6l-2.6-5.9l5.7-2.6l5.3-2.4l5.4-2.1l5.3-2.3l5.4-2.2l5.3-2.6l5.4-2.1l5.2-2.5l5.4-2.4l5.4-2l5.2-2.5l5.3-2.3
					l5.3-2.5l5.4-2l5.3-2.5l7-1l6.7,2.6l4.4,5.5l2.2,5.5l2.2,5.4l2.5,5.3l2.2,5.4l2.3,5.4l2.8,5.3l2,5.5l2.6,5.3l2.2,5.4l2.5,5.4
					l2.1,5.5l2.3,5.4l2.4,5.4l2.5,5.3l2.4,5.4l2.3,5.4l2.2,5.4l2.6,5.3l2.4,5.4l2.2,5.5l2.3,5.4l2.2,5.5l2.4,5.4l0,0.1l1.1,6.8
					l-2.4,6.8l-5.8,4l-5.2,2.5l-5.3,2.5l-5.5,2l-5.3,2.2l-5.2,2.8l-5.5,1.9l-5.2,2.7l-5.3,2.3l-5.4,2.2l-5.4,2.1l-5.3,2.3l-5.4,2.3
					l-5.3,2.5l-5.4,2.1L182.6,265z M178.7,252.9l2.6,5.4l2,5l4.8-2.3l5.4-2.1l5.2-2.5l5.4-2.3l5.3-2.3l5.4-2.1l5.3-2.2l5.3-2.3
					l5.2-2.7l5.5-1.9l5.2-2.8l5.4-2.2l5.4-2l5.2-2.5l5.2-2.5l5.4-3.7l2.2-6.1l-1-6.4l-2.3-5.3l-2.2-5.5l-2.3-5.4l-2.2-5.5l-2.3-5.3
					l-2.6-5.3l-2.2-5.4l-2.3-5.4l-2.4-5.4l-2.5-5.3l-2.4-5.4l-2.3-5.4l-2.1-5.5l-2.5-5.3l-2.2-5.4l-2.6-5.3l-2-5.5l-2.7-5.2
					l-2.3-5.4l-2.2-5.4l-2.5-5.3l-2.2-5.4l-2.1-5.4l-4.1-5.1l-6-2.3l-6.5,1l-5.2,2.4l-5.4,2l-5.2,2.4l-5.3,2.3l-5.3,2.5l-5.4,2
					l-5.3,2.3l-5.3,2.5l-5.4,2.1l-5.2,2.6l-5.4,2.2l-5.3,2.3l-5.4,2.1l-5.3,2.4l-4.6,2.1l2.1,4.8l2,5.6l2.4,5.4l2.4,5.5l2.5,5.4
					l2.2,5.6l2.4,5.4l2.6,5.4l2.1,5.6l2.4,5.4l2.7,5.4l2.2,5.6l2.3,5.5l2.5,5.4l2.4,5.5l2.1,5.6l2.5,5.4l2.4,5.5l2.4,5.5l2.5,5.5
					l2.2,5.5l2.4,5.5l2.2,5.5l2.7,5.4L178.7,252.9z"/>
			</g>
		</g>
		<g>
			<g>
				<polygon class="st0" points="202.4,172.1 199.7,166.3 197.1,160.7 194.3,155.1 191.9,149.4 189,143.9 186.2,138.4 183.9,132.6 
					181.2,126.8 178.2,132.5 175.4,138 172.5,143.5 169.4,148.9 166.6,154.4 163.6,159.9 160.7,165.3 158.2,170.8 163.2,170 
					168.5,169.4 173.7,168.3 173.7,174.6 173.5,180.9 173.3,187.2 173.3,193.4 179.5,193.8 185.9,194 185.7,187.5 186.3,181.2 
					186,174.9 186.2,168.5 191.6,169.7 196.9,170.8 				"/>
			</g>
			<g>
				<path d="M186.5,194.6l-7-0.2l-6.7-0.4l-0.1-6.8l0,0l0.2-6.3l0.2-6.3l0-5.5l-4.5,0.9l-5.3,0.6l-6.2,0.9l3-6.6l2.9-5.5l3-5.5
					l2.8-5.5l3.1-5.3l2.9-5.5l2.8-5.5l3.5-6.9l3.2,7l2.4,5.7l2.7,5.6l2.9,5.5l2.5,5.7l2.7,5.6l2.6,5.6l3.3,6.9l-6.7-1.6l-5.3-1.1
					l-4.7-1l-0.2,5.7l0.2,6.4l-0.5,6.3L186.5,194.6z M173.9,192.9l5.6,0.3l5.7,0.2l-0.1-5.8l0.5-6.3l-0.2-6.3l0.2-7.2l6.1,1.4
					l5.3,1.1l4.2,1l-2.2-4.6l-2.6-5.6l-2.7-5.6l-2.5-5.7l-2.9-5.5l-2.8-5.6l-2.4-5.7l-2.2-4.7l-2.3,4.6l-2.8,5.5l-2.9,5.5l-3.1,5.3
					l-2.8,5.5l-3,5.5l-2.9,5.4l-2,4.4l3.9-0.6l5.3-0.6l5.9-1.2l0,7l-0.2,6.3l-0.2,6.3L173.9,192.9z"/>
			</g>
		</g>
		<g>
			<circle class="st0" cx="202.2" cy="97.4" r="3.3"/>
			<path d="M202.2,101.3c-0.5,0-1-0.1-1.5-0.3c-1-0.4-1.7-1.1-2.2-2.1c-0.4-1-0.4-2,0-3c0.4-1,1.1-1.7,2.1-2.2c1-0.4,2-0.4,3,0
				c1,0.4,1.7,1.1,2.2,2.1c0.4,1,0.4,2,0,3c-0.4,1-1.1,1.7-2.1,2.2l0,0C203.3,101.2,202.7,101.3,202.2,101.3z M202.2,94.7
				c-0.4,0-0.7,0.1-1.1,0.2c-0.7,0.3-1.2,0.8-1.4,1.5c-0.3,0.7-0.3,1.4,0,2.1c0.3,0.7,0.8,1.2,1.5,1.4c0.7,0.3,1.4,0.3,2.1,0l0,0
				c0.7-0.3,1.2-0.8,1.4-1.5c0.3-0.7,0.3-1.4,0-2.1c-0.3-0.7-0.8-1.2-1.5-1.4C202.9,94.7,202.5,94.7,202.2,94.7z"/>
		</g>
		<g>
			<circle class="st0" cx="208.1" cy="110.9" r="3.3"/>
			<path d="M208.1,114.8c-1.5,0-3-0.9-3.6-2.4c-0.9-2,0.1-4.3,2.1-5.2c2-0.9,4.3,0.1,5.2,2.1c0.4,1,0.4,2,0,3
				c-0.4,1-1.1,1.7-2.1,2.2l0,0C209.1,114.7,208.6,114.8,208.1,114.8z M208,108.2c-0.4,0-0.7,0.1-1.1,0.2c-1.4,0.6-2,2.2-1.4,3.6
				c0.6,1.4,2.2,2,3.6,1.4l0,0c0.7-0.3,1.2-0.8,1.4-1.5c0.3-0.7,0.3-1.4,0-2.1c-0.3-0.7-0.8-1.2-1.5-1.4
				C208.7,108.2,208.4,108.2,208,108.2z"/>
		</g>
		<g>
			<circle class="st0" cx="213.9" cy="124.3" r="3.3"/>
			<path d="M213.9,128.3c-1.5,0-3-0.9-3.6-2.4c-0.9-2,0.1-4.3,2.1-5.2c1-0.4,2-0.4,3,0c1,0.4,1.7,1.1,2.2,2.1c0.9,2-0.1,4.3-2.1,5.2
				l0,0C215,128.2,214.4,128.3,213.9,128.3z M213.9,121.6c-0.4,0-0.7,0.1-1.1,0.2c-1.4,0.6-2,2.2-1.4,3.6c0.6,1.4,2.2,2,3.6,1.4
				c1.4-0.6,2-2.2,1.4-3.6c-0.3-0.7-0.8-1.2-1.5-1.4C214.6,121.7,214.2,121.6,213.9,121.6z"/>
		</g>
	</g>
</g>
<g id="Capa_3">
	<g>
		<g>
			<g>
				<polygon class="st0" points="360.5,127.5 356.6,131.9 353.4,136.6 349.6,141 345.9,145.4 342.3,149.8 338.9,154.5 335.1,158.7 
					331.8,163.5 328.2,168 324.7,172.5 320.7,176.7 317.4,181.4 313.7,185.9 309,182 304.2,178.4 299.6,174.5 294.8,170.9 
					290.1,167.1 285.6,163 280.9,159.3 276.1,155.6 271.3,152 266.6,148.2 261.9,144.4 257.3,140.5 252.4,137 247.7,133.2 
					243.2,129.2 246.6,124.7 250.3,120.3 253.8,115.7 257.4,111.3 260.9,106.7 264.6,102.3 268.2,97.8 272,93.5 275.6,89.1 
					278.8,84.3 282.6,80 286,75.4 289.8,70.8 294.5,74.7 299.3,78.4 303.8,82.5 308.7,85.9 313.2,90 317.9,93.7 322.6,97.6 
					327.3,101.3 332.1,104.9 336.9,108.7 341.6,112.4 346.1,116.4 351,120 355.8,123.6 				"/>
			</g>
			<g>
				<path d="M313.8,186.7l-5.2-4.2l-4.8-3.6l-4.6-3.9l-4.8-3.6l-4.7-3.8l-4.5-4l-4.7-3.7l-4.8-3.6l-4.8-3.7l-4.7-3.8l-4.7-3.8
					l-4.5-3.9l-4.9-3.5l-4.7-3.8l-5-4.3l3.8-5.1l3.7-4.4l3.5-4.5l3.7-4.5l3.5-4.5l3.7-4.4l3.6-4.5l3.8-4.3l3.6-4.4l3.3-4.8l3.8-4.3
					l3.4-4.6l4.1-5l5.2,4.3l4.8,3.7l4.4,4l5,3.5l4.4,4.1l4.7,3.7l4.7,3.8l4.7,3.7l4.8,3.6l4.7,3.8l4.8,3.7l4.5,4l4.8,3.6l4.8,3.7
					l5.3,4.3l-4.3,4.8l-3.3,4.8l-3.8,4.3l-3.6,4.4l-3.7,4.4l-3.4,4.7l-3.8,4.2l-3.2,4.8l-7.2,9l-3.9,4.2l-3.3,4.7L313.8,186.7z
					 M304.6,177.9l4.8,3.6l4.3,3.5l3.3-4l3.4-4.7l3.9-4.2l7.2-8.9l3.2-4.8l3.8-4.2l3.4-4.7l3.7-4.4l3.7-4.4l3.7-4.3l3.3-4.8l3.5-3.9
					l-4.3-3.5l-4.8-3.6l-4.9-3.6l-4.5-4l-4.7-3.7l-4.7-3.8l-4.8-3.6l-4.8-3.7l-4.7-3.8l-4.8-3.7l-4.4-4.1l-5-3.4l-4.4-4.1l-4.8-3.7
					l-4.3-3.5l-3.3,4l-3.5,4.6l-3.8,4.3l-3.2,4.8l-3.6,4.4l-3.8,4.3l-3.6,4.5l-3.7,4.4l-3.5,4.5l-3.7,4.5l-3.5,4.6l-3.7,4.4
					l-3.1,4.1l4.1,3.6l4.7,3.8l5,3.5l4.5,4l4.7,3.8l4.7,3.8l4.8,3.7l4.8,3.6l4.8,3.7l4.5,4l4.7,3.8l4.8,3.6L304.6,177.9z"/>
			</g>
		</g>
		<g>
			<g>
				<polyline class="st0" points="260.1,130.2 263.9,125.5 267.9,120.9 271.7,116.1 275.5,111.3 279.2,106.4 283.2,101.8 
					286.8,96.8 290.7,92.2 294.5,87.4 				"/>
			</g>
			<g>
				<polygon points="260.6,130.6 259.6,129.9 263.4,125 267.5,120.5 271.2,115.7 275,110.9 278.7,106 282.7,101.4 286.3,96.4 
					290.2,91.8 294,87 295,87.7 291.2,92.6 287.2,97.2 283.7,102.2 279.7,106.8 276,111.7 272.2,116.5 268.4,121.3 264.4,125.8 				
					"/>
			</g>
		</g>
		<g>
			<g>
				<polyline class="st0" points="269.3,137.6 273.2,132.9 276.8,128 280.5,123.1 284.5,118.5 288.2,113.6 292.2,109 295.9,104.2 
					299.6,99.3 303.7,94.8 				"/>
			</g>
			<g>
				<polygon points="269.7,138 268.8,137.2 272.7,132.5 280,122.7 284.1,118.1 287.7,113.2 291.7,108.6 295.4,103.8 299.2,98.9 
					303.3,94.3 304.2,95.2 300.1,99.7 296.4,104.5 292.7,109.4 288.7,114 285,118.9 281,123.5 273.6,133.3 				"/>
			</g>
		</g>
		<g>
			<g>
				<polyline class="st0" points="278.2,144.8 282.2,140.1 285.9,135.3 289.6,130.4 293.5,125.7 297.4,121 301.2,116.2 305.1,111.5 
					309,106.8 312.5,101.8 				"/>
			</g>
			<g>
				<polygon points="278.7,145.2 277.8,144.4 281.7,139.7 285.4,134.9 289.1,130 293,125.3 297,120.6 300.7,115.8 308.5,106.5 
					312,101.4 313,102.2 309.5,107.2 301.6,116.6 297.9,121.4 294,126.1 290.1,130.8 286.4,135.6 282.7,140.5 				"/>
			</g>
		</g>
		<g>
			<g>
				<polyline class="st0" points="287.6,152.2 291.1,147.2 294.9,142.5 298.8,137.8 302.6,133 306.4,128.2 310.4,123.6 314.2,118.8 
					317.9,113.9 321.6,109.1 				"/>
			</g>
			<g>
				<polygon points="288.1,152.6 287.1,151.9 290.6,146.8 294.4,142.1 298.3,137.4 302.1,132.6 305.9,127.8 309.9,123.2 
					313.7,118.4 317.4,113.6 321.1,108.7 322.1,109.5 318.4,114.3 314.7,119.2 310.9,124 306.9,128.6 303.1,133.4 299.3,138.2 
					295.4,142.9 291.6,147.6 				"/>
			</g>
		</g>
		<g>
			<g>
				<polyline class="st0" points="296.4,159.3 300.5,154.7 304.1,149.9 307.8,145 311.7,140.3 315.6,135.6 319.2,130.7 323.3,126.1 
					327.1,121.3 330.7,116.4 				"/>
			</g>
			<g>
				<polygon points="296.9,159.8 296,158.9 300,154.3 307.3,144.6 311.2,139.9 315.1,135.2 318.8,130.2 322.8,125.6 326.6,121 
					330.2,116 331.2,116.7 327.6,121.7 323.7,126.4 319.7,131 316.1,136 312.2,140.7 308.3,145.4 300.9,155.1 				"/>
			</g>
		</g>
		<g>
			<g>
				<polyline class="st0" points="305.6,166.7 308.9,162.3 312.4,158 316.1,153.8 319.5,149.4 323,145.2 326.5,140.9 329.6,136.3 
									"/>
			</g>
			<g>
				<polygon points="306.1,167 305.1,166.3 308.4,161.9 311.9,157.5 315.6,153.4 319,149.1 326,140.5 329,135.9 330.1,136.6 
					326.9,141.3 319.9,149.8 316.5,154.2 312.9,158.4 309.4,162.7 				"/>
			</g>
		</g>
	</g>
</g>
<g id="Capa_4">
	<g>
		<path d="M383,98.5c-1.5,0-2.9-0.3-3.9-1.5c-0.9-1.1-1-2.7-1-4c0-0.2,0-0.4,0-0.6c-0.1-1.9-0.5-3.4-1.4-4.4
			c-0.8-1.1-2.4-1.9-3.8-1.4l-0.4-1.2c1.7-0.6,3.9,0.2,5.2,1.8c1,1.3,1.5,3,1.6,5.1c0,0.2,0,0.4,0,0.6c0,1.2,0.1,2.4,0.7,3.2
			c1,1.3,3,1.1,4.9,0.9l0.2,1.2C384.4,98.5,383.7,98.5,383,98.5z"/>
	</g>
	<g>
		<path d="M447.4,123.2c-1.5,0-2.8-0.4-3.9-1.1c-1.8-1.2-2.8-3.3-2.5-5.3l1.2,0.2c-0.3,1.4,0.5,3.1,1.9,4c1.3,0.8,3,1.1,4.8,0.7
			c4-0.8,7-4.6,6.6-8.3c-0.1-1.4-0.9-2.9-2.1-3.9c-0.2,0.3-0.5,0.6-0.7,0.9c-1.5,1.8-3,2.7-4.6,2.8c-1.1,0.1-2.3-0.5-3-1.4
			c-0.6-0.7-0.8-1.6-0.6-2.4c0.2-1,1-1.8,2.2-2.3c1.9-0.8,4.1-0.6,6.1,0.5c0.1,0.1,0.2,0.1,0.3,0.2c1.9-3.1,2.7-6.9,2.3-10.5
			l1.2-0.1c0.5,3.9-0.5,8-2.6,11.4c1.5,1.3,2.5,3,2.6,4.8c0.4,4.3-3,8.7-7.6,9.6C448.6,123.1,448,123.2,447.4,123.2z M449.2,107.8
			c-0.7,0-1.3,0.1-1.9,0.4c-0.4,0.2-1.3,0.7-1.5,1.5c-0.2,0.6,0.2,1.1,0.4,1.3c0.5,0.6,1.3,1,2,0.9c1.2-0.1,2.4-0.9,3.7-2.3
			c0.2-0.3,0.5-0.6,0.7-0.9c-0.1,0-0.1-0.1-0.2-0.1C451.3,108.1,450.2,107.8,449.2,107.8z"/>
	</g>
	<g>
		<path d="M464.3,235.8c-0.3,0-0.7-0.1-1-0.2c-1-0.3-1.9-1.1-2.3-2.1c-0.6-1.5-0.2-3.4,0.9-5.1c0.8-1.1,1.7-1.9,2.7-2.7
			c0.3-0.2,0.5-0.5,0.8-0.7c1.6-1.5,2.6-2.8,3.1-4.2c0.6-1.7,0.4-3.6-0.6-4.7c-0.5-0.6-1.4-1-2.3-1.1c-0.7,0-1.4,0.2-1.9,0.6
			l-0.8-0.9c0.7-0.7,1.7-1,2.8-0.9c1.2,0.1,2.4,0.7,3.1,1.5c1.3,1.5,1.6,3.8,0.8,5.9c-0.8,2.1-2.3,3.7-3.5,4.7
			c-0.3,0.2-0.5,0.5-0.8,0.7c-0.9,0.8-1.8,1.6-2.5,2.5c-0.9,1.3-1.2,2.8-0.8,3.9c0.2,0.6,0.8,1.2,1.5,1.4c0.3,0.1,0.9,0.2,1.4-0.1
			l0.7,1C465.4,235.7,464.9,235.8,464.3,235.8z"/>
	</g>
	<g>
		<path d="M478.5,365.8c-1.2-0.9-1.1-2.4-1-3.7c0.1-1.1,0.2-2.1-0.4-2.7c-0.7-0.7-2.1-0.3-3.1,0.4c-0.2,0.1-0.4,0.3-0.6,0.4
			c-1,0.7-2.1,1.5-3.4,1.5c0,0,0,0,0,0c-1.8,0-3.2-1.5-3.9-2.9c-0.3-0.7-0.6-1.4-0.8-2c-0.2-0.7-0.5-1.4-0.8-2.1
			c-1.1-2.1-3.4-3.5-5.8-3.6c-2.4-0.1-4.8,1.2-6,3.3l-1.1-0.6c1.5-2.4,4.2-3.9,7.1-3.9c2.8,0.1,5.5,1.8,6.9,4.3
			c0.4,0.7,0.6,1.5,0.9,2.2c0.2,0.7,0.4,1.3,0.7,1.9c0.5,1.1,1.5,2.2,2.8,2.2c0,0,0,0,0,0c0.9,0,1.8-0.6,2.7-1.3
			c0.2-0.2,0.4-0.3,0.6-0.5c1.3-0.9,3.3-1.5,4.6-0.3c1,1,0.9,2.4,0.8,3.7c-0.1,1.3-0.1,2.2,0.5,2.6L478.5,365.8z"/>
	</g>
	<g>
		<path d="M107.4,390l-0.1-1.2c3.7-0.4,7-3,8.2-6.5c0.6-1.7,0.7-4.1-0.7-5.6c-0.5-0.5-1-0.8-1.7-1.2c-0.4-0.3-0.8-0.5-1.2-0.8
			c-2.1-1.6-3.2-4.4-2.8-7l1.2,0.2c-0.3,2.2,0.6,4.5,2.4,5.9c0.3,0.3,0.7,0.5,1.1,0.7c0.7,0.4,1.3,0.8,1.9,1.4
			c1.8,1.9,1.7,4.8,1,6.9C115.3,386.6,111.5,389.5,107.4,390z"/>
	</g>
	<g>
		<path d="M43.3,263.2l-1.1-0.6l1.1-1.9c-0.6-0.3-1.3-0.3-2-0.4c-1-0.1-2.1-0.2-3-0.8c-1.5-1.1-1.9-3.6-0.7-5.3
			c1-1.4,2.8-2.2,4.8-2.2c0,0,0,0,0,0l0,1.2c0,0,0,0,0,0c-1.6,0-3,0.6-3.8,1.7c-0.7,1-0.7,2.8,0.4,3.6c0.6,0.5,1.5,0.5,2.4,0.6
			c1.1,0.1,2.2,0.2,3.1,0.9l0.4,0.3L43.3,263.2z"/>
	</g>
	<g>
		<path d="M415.4,138.7l-1.1-0.6l1.1-1.9c-0.6-0.3-1.3-0.3-2-0.4c-1-0.1-2.1-0.2-3-0.8c-1.5-1.1-1.9-3.6-0.7-5.3
			c1-1.4,2.8-2.2,4.8-2.2c0,0,0,0,0,0l0,1.2c0,0,0,0,0,0c-1.6,0-3,0.6-3.8,1.7c-0.7,1-0.7,2.8,0.4,3.6c0.6,0.5,1.5,0.5,2.4,0.6
			c1.1,0.1,2.2,0.2,3.1,0.9l0.4,0.3L415.4,138.7z"/>
	</g>
	<g>
		<path d="M188,65.5l-3.9-5.6c-0.1-0.2-0.3-0.5-0.5-0.5c-0.2-0.1-0.4,0-0.7,0.1l-7.3,1.7l-0.1-11.4l1.2,0l0.1,9.8l5.8-1.4
			c0.4-0.1,0.9-0.2,1.4,0c0.5,0.2,0.9,0.7,1.1,1l3.9,5.6L188,65.5z"/>
	</g>
	<g>
		<path d="M92.9,144.5l-1.1-0.6c-2.7-1.5-6-3.4-9.3-3.1l-0.1-1.2c3.3-0.2,6.4,1.3,9,2.7c-0.1-3.6,1.6-7.2,4.5-9.3l0.3-0.2l0.3,0.2
			c2,0.9,4.4,0.9,6.3-0.2l0.6,1.1c-2.1,1.2-4.8,1.3-7.1,0.4c-2.7,2.1-4.2,5.7-3.6,9.1L92.9,144.5z"/>
	</g>
	<g>
		<path d="M431.3,248.6l-1.1-0.6c-2.7-1.5-6-3.4-9.3-3.1l-0.1-1.2c3.3-0.2,6.4,1.3,9,2.7c-0.1-3.6,1.6-7.2,4.5-9.3l0.3-0.2l0.3,0.2
			c2,0.9,4.4,0.9,6.3-0.2l0.6,1.1c-2.1,1.2-4.8,1.3-7.1,0.4c-2.7,2.1-4.2,5.7-3.6,9.1L431.3,248.6z"/>
	</g>
	<g>
		<path d="M40.2,108.5c-0.1-4.5,0.6-8.9,2-13.2c0.8-2.4,1.9-3.7,3.4-4l0.7-0.2l0.1,9.2c0,0.6,0.1,0.7,0.2,0.7c0.1,0,0.2,0,0.5-0.1
			c1.5-0.5,2.9-1.1,4.2-2l0.7,1c-1.4,0.9-2.9,1.6-4.5,2.1c-0.3,0.1-0.9,0.3-1.5,0c-0.8-0.4-0.8-1.4-0.8-1.8l-0.1-7.5
			c-0.7,0.5-1.2,1.4-1.7,2.9c-1.3,4.1-2,8.5-1.9,12.8L40.2,108.5z"/>
	</g>
	<g>
		<path d="M49.5,439.8c-2.6-3.6-8.3-4.5-11.9-2l-1.7,1.2l0.8-1.9c0.8-2,1.1-4.2,0.8-6.4c-0.1-0.8-0.5-1.7-1-2
			c-0.2-0.1-0.4-0.2-0.6-0.1l-0.3-1.2c0.6-0.1,1.1,0,1.6,0.3c0.9,0.6,1.4,1.9,1.5,2.8c0.3,1.8,0.1,3.7-0.3,5.4
			c4.1-1.9,9.5-0.7,12.2,3.1L49.5,439.8z"/>
	</g>
	<g>
		<path d="M460.8,447.1l-0.3-0.6c-0.9-2-2.8-3.5-4.9-4l0.3-1.2c2.2,0.6,4.2,2,5.4,4c2.7-2.2,3.7-6.4,2.2-9.5l-0.4-0.8l3.8-0.5
			l0.2,1.2l-2.2,0.3c1.4,3.8-0.1,8.5-3.5,10.7L460.8,447.1z"/>
	</g>
	<g>
		<path d="M237.4,58l0-7.8c0-0.7,0-1.5,0.4-2.3c0.5-0.9,1.4-1.3,2-1.6c2.2-0.9,4.8-1.1,7.1-0.4l0.6,0.2l-0.2,0.6
			c-0.8,2.4-2.1,4.7-3.6,6.7c1.4-0.1,2.8-0.5,4-1l0.7-0.3l0.1,0.8c0.1,0.3,0.4,0.6,0.8,0.8c0.4,0.2,0.8,0.1,1.1-0.1l0.8,1
			c-0.6,0.5-1.5,0.6-2.3,0.3c-0.6-0.2-1-0.6-1.3-1c-1.7,0.7-3.5,1-5.3,0.9l-1.3,0l0.9-1c1.7-2,3.1-4.3,4-6.7
			c-1.9-0.4-3.9-0.2-5.6,0.5c-0.7,0.3-1.2,0.6-1.4,1.1c-0.3,0.5-0.3,1.1-0.3,1.7l0,7.8L237.4,58z"/>
	</g>
	<g>
		<path d="M419.7,390.1l-2.6-7.5l6.4-2.5l6.1-1.8l6.7-2.5l2.6,7.9l-6.7,2.2l-6.1,1.9L419.7,390.1z M418.7,383.3l1.8,5.2l5.3-1.9
			l6.1-1.9l5.5-1.8l-1.8-5.5l-5.5,2.1l-6.1,1.8L418.7,383.3z"/>
	</g>
	<g>
		<path d="M76.8,346.9l-1.3-9.4l6.2-0.6l5.5-1.3l5.6-0.6l6.2-1l1.5,9.5l-6.4,0.5l-5.5,1.2l-5.6,0.7L76.8,346.9z M76.9,338.6l1,6.9
			l5-0.8l5.5-0.7l5.5-1.2l5.1-0.4l-1.1-7l-5.1,0.8l-5.5,0.6l-5.5,1.3L76.9,338.6z"/>
	</g>
	<g>
		<path d="M80.8,243.5l-5.7-4l-5.6-3.1l-5.5-4l4.1-6.9l5.9,3.8l5.2,3.6l5.9,3.6L80.8,243.5z M70.2,235.4l5.6,3.1l4.7,3.3l3-4.7
			l-4.9-3l-5.2-3.6l-4.8-3.1l-2.9,4.8L70.2,235.4z"/>
	</g>
	<g>
		<path d="M56.6,57.6l-2.8-9l6.1-1.9l5.4-1.2l5.3-2l6-1.5l2.5,8.9l-5.8,2l-5.4,1.4L62.6,56L56.6,57.6z M55.3,49.4l2,6.7l4.9-1.3
			l5.4-1.7l5.4-1.4l4.7-1.6l-1.9-6.7l-4.8,1.2l-5.3,2l-5.4,1.2L55.3,49.4z"/>
	</g>
	<g>
		<path d="M342.9,58.1l0.1-7l-0.3-6.3l0,0l0.1-7.1l8.1,0.3l0,6.8l-0.1,6.3l0.2,7L342.9,58.1z M343.9,44.7l0.3,6.3l-0.1,5.8l5.7,0
			l-0.2-5.7l0.1-6.3l0-5.6l-5.6-0.2L343.9,44.7z"/>
	</g>
	<g>
		<path d="M448.9,64.2l-5.6-7.4l5.1-3.7l4.4-3.5l4.7-3.1l5.1-3.7l5.2,7.8l-4.9,3.5l-4.6,3.2l-4.4,3.4L448.9,64.2z M445.1,57l4.1,5.5
			l4-2.8l4.5-3.4l4.6-3.2l3.9-2.8l-3.8-5.7l-4.1,3l-4.7,3.1l-4.4,3.4L445.1,57z"/>
	</g>
	<g>
		<path d="M449.2,178.2l-2.9-6.3l-2.5-5.8l-2.7-6.5l7.5-2.9l2.9,6.1l2.6,5.8l2.8,6.6L449.2,178.2z M442.7,160.3l2.2,5.3l2.5,5.8
			l2.4,5.2l5.4-2.2l-2.3-5.4l-2.6-5.8l-2.4-5.1L442.7,160.3z"/>
	</g>
	<g>
		<path d="M68.3,190.5c-1.5-2-1.7-4.5-1.8-6.9c-0.1-1.5-0.2-3-0.6-4.4c-1-3.2-3.9-5.7-7.2-6c-1.6-0.2-3.2,0.1-4.8,0.3
			c-2,0.3-4.1,0.6-6.1,0.2c-3.5-0.8-6.5-4.1-8-8.7c-0.6-1.9-1-3.9-1.3-5.8c-0.3-1.9-0.7-3.8-1.3-5.6c-1.3-4.2-4-7.2-7.1-7.9l0.3-1.2
			c3.5,0.9,6.5,4.1,8,8.8c0.6,1.9,1,3.9,1.3,5.8c0.3,1.9,0.7,3.8,1.3,5.7c1.3,4.2,4,7.2,7.1,7.9c1.8,0.4,3.7,0.1,5.7-0.2
			c1.7-0.3,3.4-0.5,5.2-0.3c3.8,0.4,7.2,3.3,8.3,6.9c0.5,1.5,0.5,3.1,0.6,4.7c0.1,2.3,0.2,4.5,1.5,6.2L68.3,190.5z"/>
	</g>
	<g>
		<path d="M94.4,445.5l-1.1-0.5c3-6.2,1.2-13.4-0.7-18.4c-2-5.1-4.5-8.3-7.7-9.8c-2.4-1.1-5.3-1.3-8.1-1.5c-4.1-0.3-8.3-0.6-11-3.8
			c-2.9-3.5-2.1-8.4-1.5-12.8l0.1-0.8c1.1-7.3,0.5-13.1-1.9-17.7c-2.5-4.8-8.4-9.2-14.4-7.8l-0.3-1.2c3-0.7,6.2-0.1,9.2,1.6
			c2.8,1.6,5.1,4,6.6,6.9c2.5,4.8,3.2,10.8,2,18.4l-0.1,0.8c-0.6,4.1-1.3,8.7,1.2,11.8c2.3,2.8,6.1,3.1,10.1,3.3
			c2.9,0.2,5.9,0.4,8.5,1.6c3.5,1.6,6.2,5,8.3,10.4C95.7,431.4,97.5,439,94.4,445.5z"/>
	</g>
	<g>
		<path d="M67.6,296.7c-3.5,0-7-1.5-9.4-4l0.9-0.8c2.7,2.9,6.8,4.2,10.7,3.4c3.8-0.8,7.2-3.7,8.5-7.3c0.4-1.1,0.6-2.2,0.9-3.4
			c0.2-1,0.4-2.1,0.8-3.2c1.4-4.4,5.1-7.9,9.6-9.2c0.7-0.2,1.4-0.3,2.1-0.5c1.3-0.3,2.5-0.5,3.7-1.1c1.1-0.6,2-1.4,2.9-2.3l9.9-9.6
			l0.9,0.9l-9.9,9.6c-0.9,0.9-1.9,1.9-3.1,2.5c-1.3,0.7-2.6,1-4,1.2c-0.7,0.1-1.3,0.3-2,0.4c-4,1.1-7.5,4.4-8.8,8.4
			c-0.3,1-0.5,2-0.7,3c-0.2,1.2-0.5,2.4-0.9,3.5c-1.5,4.1-5.2,7.3-9.4,8.1C69.2,296.6,68.4,296.7,67.6,296.7z"/>
	</g>
	<g>
		<path d="M112.6,92.5c-4.2,0-8.5-1-12.1-2.4c-4.2-1.6-8.7-5.1-7.7-9.6l1.2,0.3c-0.8,3.7,3.2,6.7,6.9,8.2c7.4,2.9,17.7,3.9,24.1-2
			c1.1-1,2-2.1,2.9-3.2c0.7-0.9,1.5-1.8,2.4-2.7c4.1-4.2,9.9-6.3,14.9-8.2l0.4,1.2c-4.9,1.9-10.5,4-14.5,7.9
			c-0.8,0.8-1.6,1.7-2.3,2.6c-0.9,1.1-1.9,2.3-3,3.4C122.2,91.2,117.4,92.5,112.6,92.5z"/>
	</g>
	<g>
		<path d="M277.7,70.2c-2.5,0-5-0.6-7.1-1.9l0.6-1.1c5.5,3.3,13.5,1.7,17.3-3.5c0.8-1,1.4-2.2,2-3.3c1.2-2.1,2.3-4.3,4.4-5.7
			c3.5-2.5,8.1-1.8,12.4-1c0.9,0.2,2.2,0.4,3,1.3c1.1,1.1,1.1,2.7,1,4.1c0,1.2,0,2.3,0.5,3.1l-1,0.7c-0.8-1.1-0.7-2.5-0.7-3.8
			c0-1.3,0-2.5-0.7-3.2c-0.5-0.6-1.4-0.8-2.4-0.9c-4.1-0.8-8.4-1.4-11.5,0.8c-1.8,1.3-2.9,3.2-4,5.3c-0.6,1.2-1.3,2.4-2.1,3.4
			C286.8,68.2,282.2,70.2,277.7,70.2z"/>
	</g>
	<g>
		<path d="M412.4,74.3c-2.8-3.2-3.6-8.3-1.8-12.2c0.2-0.4,0.4-0.8,0.6-1.2c0.5-0.9,0.9-1.8,1.1-2.7c0.2-1.7-0.8-3.4-1.9-5
			c-2.5-3.7-5.1-7.3-7.8-10.8l1-0.8c2.7,3.5,5.4,7.2,7.9,10.9c1.2,1.8,2.3,3.7,2.1,5.8c-0.1,1.2-0.7,2.2-1.2,3.2
			c-0.2,0.4-0.4,0.7-0.6,1.1c-1.6,3.5-0.9,8,1.6,10.9L412.4,74.3z"/>
	</g>
	<g>
		<path d="M439.2,323.8c-2.7-7.2-2.4-12.1,0.9-14.8c0.8-0.7,1.6-1.1,2.5-1.6c1.2-0.6,2.2-1.2,2.9-2.1c1.3-1.8,0.8-4.1,0.3-6.5
			c-0.2-0.9-0.4-1.8-0.4-2.7c-0.5-5.3,2.5-10.9,7.5-13.6c4.6-2.5,10.5-2.7,15.7-0.5c1.1,0.5,2.2,1,3.3,1.6c3.2,1.6,6.2,3.2,9.4,2.4
			l0.3,1.2c-3.6,0.9-7-0.8-10.3-2.5c-1.1-0.5-2.2-1.1-3.2-1.6c-4.9-2.1-10.4-1.9-14.7,0.4c-4.5,2.5-7.4,7.6-6.9,12.4
			c0.1,0.8,0.3,1.7,0.4,2.6c0.5,2.6,1,5.3-0.5,7.5c-0.9,1.2-2.1,1.9-3.4,2.5c-0.8,0.4-1.6,0.9-2.3,1.4c-2.8,2.4-3,6.8-0.5,13.5
			L439.2,323.8z"/>
	</g>
</g>
<g id="Capa_1">
	<g>
		<polygon class="st0" points="224.4,422.2 224.3,428.2 222.5,434 219.9,439.4 216.5,444.3 212.1,448.4 207.3,452 201.9,454.6 
			196.1,456.2 190.1,456.8 184.1,456.4 178.3,454.6 172.8,452.2 167.8,448.7 163.8,444.3 160.3,439.4 157.6,434 156.2,428.2 
			155.5,422.2 156,416.2 157.7,410.4 160.2,404.9 163.6,399.9 167.8,395.6 172.8,392.2 178.3,389.8 184.2,388.4 190.1,387.6 
			196.1,388.3 201.9,389.7 207.4,392.3 212.2,395.9 216.5,400.1 220.1,404.9 222.8,410.3 224.1,416.2 		"/>
	</g>
	<g>
		
			<rect x="148.8" y="300.5" transform="matrix(0.2834 0.959 -0.959 0.2834 506.0417 34.288)" class="st0" width="162.5" height="110.6"/>
		<path d="M199.7,450.1l-46.4-157l0.6-0.2l106.6-31.5l0.2,0.6l46.2,156.5l-0.6,0.2L199.7,450.1z M154.8,293.9l45.7,154.7l104.8-31
			l-45.7-154.7L154.8,293.9z"/>
	</g>
	<g>
	</g>
	<g>
		<g>
			<polyline class="st0" points="284.8,389.5 281.7,394.9 278.9,400.6 275.7,405.9 272.6,411.4 269.4,416.8 			"/>
		</g>
		<g>
			<polygon points="270,417.1 268.9,416.5 272.1,411.1 275.2,405.6 278.4,400.3 281.2,394.6 284.3,389.2 285.4,389.8 282.2,395.2 
				279.5,400.9 276.2,406.3 273.1,411.7 			"/>
		</g>
	</g>
	<g>
		<g>
			<polyline class="st0" points="263.7,395.4 269.1,398.5 274.3,402 279.9,404.9 285.5,407.6 291.1,410.5 			"/>
		</g>
		<g>
			<polygon points="290.8,411.1 285.2,408.1 279.6,405.4 274,402.5 268.8,399.1 263.4,395.9 264,394.8 269.4,398 274.6,401.4 
				280.1,404.4 285.8,407 291.3,410 			"/>
		</g>
	</g>
	<g>
		<path d="M340.6,334l-6.4-1.1l-5.9-0.8l-6-0.6l-5.9-1.1l-5.9-0.8l-5.9-1l-5.9-0.8l-6-0.8l-5.8-1.2l-6-0.5l-5.9-1.1l-5.9-0.9
			l-5.9-1.1l-6-0.5l-5.8-1.3l-6-0.6l-5.9-0.9l-5.9-1.1l-5.9-0.8l-6-0.6l-5.8-1.3l-6-0.6l-5.9-1.1l-5.9-0.8l-5.9-1l-5.9-1.2l-6.7-0.6
			l1.1-6.5l0.8-5.8l0.9-5.8l1-5.7l1.1-5.7l0.8-5.7l0.9-5.7l0.6-5.8l1.1-5.7l0.6-5.8l1-5.7l1.6-11.5l1.2-5.7l0.6-5.9l2.9-6.5l5.8-4.1
			l6.9-0.6l6,0.5l5.7,1.2l5.9,0.6l5.8,1l5.8,1l5.8,0.8l5.8,0.9l5.8,0.8l5.8,0.8l5.8,1l5.9,0.7l5.7,1.2l5.8,0.7l5.9,0.7l5.7,1.3
			l5.8,0.7l5.8,1l5.9,0.6l5.8,1l5.8,1.1l5.8,0.9l5.8,0.6l5.9,0.8l6.3,3.1l4.3,5.6l0.6,7l-0.9,5.8l-0.5,5.8l-1,5.7l-0.9,5.7l-0.7,5.7
			l-1,5.8l-1,5.7l-0.8,5.8l-1,5.7l-0.6,5.8l-0.7,5.8l-0.9,5.8l-1,5.7l-0.9,5.7L340.6,334z M322.5,330.3l5.9,0.6l6,0.8l5.2,0.9
			l0.9-5.1l0.9-5.7l1-5.7l0.9-5.7l0.7-5.7l0.6-5.8l1-5.7l0.8-5.8l1-5.7l1-5.7l0.7-5.7l1-5.8l1-5.7l0.5-5.8l0.9-5.7l-0.5-6.5
			l-3.9-5.1l-5.9-2.9l-5.7-0.8l-5.9-0.6l-5.8-0.9l-5.8-1.1l-5.8-1l-5.9-0.6l-5.8-1l-5.9-0.7l-5.7-1.3l-5.8-0.7l-5.9-0.8l-5.7-1.2
			l-5.8-0.7l-5.8-1l-5.8-0.8l-5.8-0.8l-5.8-0.9l-5.8-0.8l-5.8-1l-5.8-1l-5.9-0.6l-5.7-1.2l-5.8-0.5l-6.5,0.6l-5.3,3.7l-2.7,6
			l-0.6,5.8l-1.2,5.7l-1.6,11.5l-1,5.7l-0.6,5.8l-1.1,5.7l-0.6,5.8l-0.9,5.7l-0.8,5.8l-1.1,5.7l-1,5.7l-0.9,5.7l-0.8,5.8l-0.9,5.2
			l5.5,0.5l5.9,1.2l5.9,1l5.9,0.8l5.9,1.1l6,0.6l5.8,1.3l5.9,0.6l6,0.8l5.9,1.1l5.9,0.9l6,0.6l5.8,1.3l6,0.5l5.9,1.2l5.9,0.9
			l5.9,1.1l6,0.5l5.8,1.3l5.9,0.8l5.9,0.8l5.9,1l5.9,0.8L322.5,330.3z"/>
	</g>
	<g>
		<circle class="st0" cx="209.3" cy="228.5" r="3.3"/>
		<path d="M209.3,232.4c-0.2,0-0.4,0-0.6,0c-1-0.2-2-0.7-2.6-1.6c-0.6-0.8-0.9-1.9-0.7-2.9c0.3-2.1,2.3-3.6,4.5-3.3
			c2.1,0.3,3.6,2.3,3.3,4.5l0,0c-0.2,1-0.7,2-1.6,2.6C210.9,232.2,210.1,232.4,209.3,232.4z M209.3,225.8c-1.3,0-2.5,1-2.7,2.3
			c-0.1,0.7,0.1,1.4,0.5,2s1.1,1,1.8,1.1c0.7,0.1,1.4-0.1,2-0.5c0.6-0.4,1-1.1,1.1-1.8l0,0c0.2-1.5-0.8-2.9-2.3-3.1
			C209.5,225.8,209.4,225.8,209.3,225.8z"/>
	</g>
	<g>
		<circle class="st0" cx="223.8" cy="230.7" r="3.3"/>
		<path d="M223.8,234.7c-0.2,0-0.4,0-0.6,0c-2.1-0.3-3.6-2.3-3.3-4.5c0.2-1,0.7-2,1.6-2.6c0.8-0.6,1.9-0.9,2.9-0.7
			c1,0.2,2,0.7,2.6,1.6c0.6,0.8,0.9,1.9,0.7,2.9c-0.2,1-0.7,2-1.6,2.6C225.4,234.4,224.6,234.7,223.8,234.7z M223.8,228
			c-0.6,0-1.1,0.2-1.6,0.5c-0.6,0.4-1,1.1-1.1,1.8c-0.2,1.5,0.8,2.9,2.3,3.1c0.7,0.1,1.4-0.1,2-0.5c0.6-0.4,1-1.1,1.1-1.8l0,0
			c0.1-0.7-0.1-1.4-0.5-2c-0.4-0.6-1.1-1-1.8-1.1C224.1,228,223.9,228,223.8,228z"/>
	</g>
	<g>
		<circle class="st0" cx="238.3" cy="233" r="3.3"/>
		<path d="M238.3,236.9c-0.2,0-0.4,0-0.6,0c-2.1-0.3-3.6-2.3-3.3-4.5c0.3-2.1,2.3-3.6,4.5-3.3c1,0.2,2,0.7,2.6,1.6
			c0.6,0.8,0.9,1.9,0.7,2.9l0,0c-0.2,1-0.7,2-1.6,2.6C240,236.6,239.2,236.9,238.3,236.9z M238.3,230.2c-1.3,0-2.5,1-2.7,2.3
			c-0.2,1.5,0.8,2.9,2.3,3.1c0.7,0.1,1.4-0.1,2-0.5c0.6-0.4,1-1.1,1.1-1.8l0,0c0.1-0.7-0.1-1.4-0.5-2c-0.4-0.6-1.1-1-1.8-1.1
			C238.6,230.3,238.5,230.2,238.3,230.2z"/>
	</g>
	<g>
		<g>
			<g>
				<polygon class="st0" points="394.7,188 390.4,192.3 386.6,196.9 382.5,201.3 378.6,205.8 374.8,210.4 370.9,214.9 366.9,219.4 
					362.9,223.9 358.8,228.2 354.8,232.6 351.1,237.3 347,241.7 343.1,246.2 339.2,250.7 335.2,255.2 331.3,259.7 327.4,264.2 
					323.4,268.6 319.4,273.1 315.5,277.5 311.5,282 307.7,286.6 303.4,290.8 299.7,295.5 295.5,299.7 291.7,304.4 287.7,308.6 
					283.3,305.1 279,301.3 274.6,297.5 270.5,293.5 266.2,289.7 261.9,285.8 257.7,282 253.3,278.2 248.9,274.4 244.6,270.6 
					240.4,266.7 235.9,263.1 231.8,259.1 227.1,255.6 222.9,251.6 227,247.2 230.8,242.6 235,238.3 239,233.9 242.7,229.2 
					246.7,224.8 250.5,220.2 254.6,215.8 258.7,211.5 262.4,206.7 266.5,202.4 270.5,198 274.4,193.4 278.5,189.1 282.5,184.6 
					286.3,180 290.1,175.4 294.3,171.2 298.1,166.6 302.2,162.2 306.1,157.7 309.9,153 313.9,148.6 317.9,144.2 321.8,139.7 
					326,135.4 329.8,130.9 334,134.7 338.3,138.5 342.7,142.3 347,146.1 351.4,149.8 355.6,153.8 359.9,157.6 364.5,161.1 
					368.8,164.9 372.9,169 377.1,172.9 381.7,176.4 386,180.3 390.1,184.3 				"/>
			</g>
			<g>
				<path d="M287.8,309.5l-4.8-3.9l-4.4-3.7l-4.4-3.8l-4.1-4l-4.3-3.8l-4.2-3.9l-4.3-3.9l-4.4-3.7l-8.7-7.6l-4.2-3.9l-4.5-3.6
					l-4.1-4l-4.6-3.5l-4.7-4.4l4.5-4.9l3.8-4.6l4.2-4.2l3.9-4.4l3.8-4.7l4-4.4l3.8-4.6l4.1-4.4l4.1-4.3l3.7-4.7l4.1-4.4l4-4.4
					l3.8-4.6l4.2-4.3l3.9-4.5l3.8-4.6l3.8-4.7l4.2-4.2l3.8-4.6l4.1-4.3l3.8-4.6l3.8-4.7l4-4.4l4.1-4.4l3.9-4.5l4.1-4.3l4.2-4.9
					l9,8.1l4.4,3.7l4.3,3.8l4.4,3.7l4.2,4l4.2,3.9l4.6,3.5l4.3,3.8l4.1,4l4.2,3.9l4.6,3.5l4.3,3.8l4.1,4l5.1,4.1l-4.7,4.8l-3.9,4.6
					l-4.1,4.4l-3.9,4.5l-3.8,4.6l-3.9,4.5l-3.9,4.5l-4,4.4l-4.1,4.3l-4,4.4l-3.7,4.7l-4.1,4.4l-3.9,4.5l-3.9,4.5l-4,4.5l-3.9,4.5
					l-3.9,4.5l-4,4.5l-4,4.4l-3.9,4.5l-4,4.4l-3.8,4.7l-4.2,4.2l-3.8,4.7l-4.2,4.2l-3.8,4.6L287.8,309.5z M275,297.1l4.3,3.8
					l4.4,3.7l3.9,3.2l3.6-3.8l3.8-4.7l4.2-4.2l3.8-4.7l4.2-4.2l3.8-4.6l4-4.4l3.9-4.5l4-4.4l4-4.5l3.9-4.5l3.9-4.5l4-4.5l3.9-4.5
					l3.9-4.5l4.1-4.4l3.7-4.7l4-4.4l4.1-4.3l4-4.4l3.9-4.5l3.9-4.5l3.8-4.6l3.9-4.6l4.1-4.4l3.9-4.6l3.8-3.9l-4.1-3.3l-4.1-4
					l-4.3-3.8l-4.6-3.5l-4.2-3.9l-4.1-4l-4.3-3.8l-4.6-3.5l-4.3-3.9l-4.2-4l-4.4-3.7l-4.3-3.8l-4.4-3.7l-8-7.2l-3.4,4l-4.1,4.3
					l-3.9,4.5l-4.1,4.4l-4,4.4l-3.7,4.6l-3.9,4.6l-4.1,4.3l-3.9,4.6l-4.2,4.2l-3.7,4.6l-3.9,4.6l-3.9,4.5l-4.2,4.3l-3.8,4.6
					l-4.1,4.4l-4.1,4.3l-3.7,4.7l-4.1,4.4l-4.1,4.3l-3.8,4.6l-4,4.4l-3.8,4.7l-4,4.5l-4.2,4.2l-3.8,4.6l-3.7,4l3.8,3.5l4.6,3.5
					l4.1,4l4.5,3.6l4.2,3.9l8.7,7.5l4.4,3.8l4.3,3.9l4.2,3.9l4.3,3.8L275,297.1z"/>
			</g>
		</g>
		<g>
			<g>
				<polygon points="223.2,252.3 222.8,251.1 228.4,249.5 234,248.1 239.7,247.1 245.2,245.3 250.8,244.2 256.4,242.8 262,241.4 
					267.6,239.8 273.2,238.7 278.8,237.1 284.4,235.8 289.9,234.3 295.5,232.8 301.2,231.6 306.7,230.1 312.4,228.9 317.5,227.6 
					318,222.2 319.1,216.5 319.6,210.8 320,205 321.1,199.4 321.4,193.6 322.4,187.9 322.9,182.2 323.5,176.5 324.3,170.7 
					325.1,165.1 325.7,159.3 326.3,153.6 326.9,147.8 328,142.2 328.4,136.4 329.1,130.7 330.3,130.8 329.6,136.6 329.2,142.4 
					328.2,148 327.6,153.7 326.9,159.5 326.3,165.2 325.5,170.9 324.8,176.6 324.2,182.3 323.7,188.1 322.6,193.8 322.3,199.6 
					321.3,205.2 320.8,210.9 320.3,216.8 319.2,222.4 318.7,228.6 312.6,230.1 307,231.3 301.4,232.8 295.8,234 290.2,235.4 
					284.7,237 279.1,238.3 273.5,239.9 267.8,241 262.3,242.6 256.7,244 251.1,245.4 245.5,246.5 239.9,248.3 234.3,249.3 
					228.7,250.7 				"/>
			</g>
		</g>
	</g>
	<g>
		<g>
			<g>
				<polygon class="st0" points="233.4,344.6 228.3,347.4 223.1,350.7 217.7,353.5 212.5,356.5 207.3,359.6 202.1,362.7 
					196.7,365.5 191.5,368.6 186,371.3 180.9,374.6 175.6,377.4 170.4,380.5 165,383.4 159.7,386.3 154.4,389.5 151.5,384 
					148.3,378.8 145.5,373.4 142.3,368.2 139.3,362.9 136.5,357.4 133.4,352.2 130.6,346.9 135.9,344 141.2,341.1 146.3,337.8 
					151.6,335 156.9,331.9 162.1,328.9 167.5,326.1 172.7,323 178,320.1 183.3,317 188.7,314.3 193.7,310.9 199,308 204.4,305.2 
					209.8,302 212.7,307.5 215.8,312.8 218.5,318.2 221.7,323.4 224.6,328.7 227.6,334.1 230.8,339.3 				"/>
			</g>
			<g>
				<path d="M154.1,390.4l-3.2-6.1l-3.2-5.2l-2.8-5.4l-3.1-5.2l-3-5.3l-2.8-5.4l-3.2-5.2l-3.1-5.9l5.8-3.1l5.3-2.9l5.1-3.3l5.3-2.9
					l5.2-3l5.3-3.1l5.4-2.7l5.2-3.1l5.3-2.9l5.2-3.1l5.4-2.7l5.1-3.4l5.3-2.9l5.4-2.8l5.9-3.5l3.3,6l3,5.3l2.7,5.4l3.2,5.2l2.9,5.3
					l2.9,5.3l3.2,5.2l2.9,5.9l-5.7,3.1l-5.1,3.3L218,354l-5.2,3l-5.2,3.1l-5.2,3.2l-5.4,2.8l-5.3,3.1l-5.4,2.7l-5.1,3.3l-5.3,2.8
					l-5.2,3.1l-5.4,2.9l-5.3,2.9L154.1,390.4z M148.8,378.5l3.2,5.2l2.6,4.9l4.8-2.9l5.3-2.9l5.3-2.9l5.2-3.1l5.3-2.8l5.1-3.3
					l5.4-2.7l5.2-3.1l5.4-2.8l5.2-3.1l5.2-3.1l5.3-3l5.4-2.8l5.1-3.3l4.7-2.6l-2.4-4.8l-3.2-5.2l-2.9-5.3l-2.9-5.3l-3.2-5.2
					l-2.7-5.4l-3-5.3l-2.7-4.9l-4.8,2.9l-5.4,2.8l-5.3,2.9l-5.1,3.4l-5.4,2.7l-5.2,3.1l-5.3,2.9l-5.2,3.2l-5.4,2.7l-5.2,3.1l-5.3,3
					l-5.3,2.9l-5.1,3.3l-5.3,2.9l-4.8,2.6l2.5,4.8l3.2,5.2l2.8,5.4l3,5.3l3.2,5.2L148.8,378.5z"/>
			</g>
		</g>
		<g>
			<g>
				<polygon points="185.9,352.6 179.3,352 173.2,351.5 167.1,350.7 161,350.4 154.9,349.9 148.8,349.2 142.7,348.6 136.6,347.8 
					130.5,347.6 130.5,346.4 136.7,346.6 142.8,347.3 148.9,347.9 155,348.6 161.1,349.2 167.3,349.5 173.3,350.2 179.4,350.8 
					185.2,351.3 187.8,346.2 190.4,340.6 193.2,335.2 195.6,329.4 198.4,324 201.3,318.6 203.8,313 206.6,307.5 209.2,302 
					210.4,302.5 207.7,308 204.9,313.5 202.4,319.1 199.5,324.6 196.7,330 194.3,335.7 191.5,341.2 189,346.7 				"/>
			</g>
		</g>
	</g>
	<g>
		<path d="M199.6,461.9L199.6,461.9l-6.1-0.6l-5.9-1.7l-5.7-2.3l-4.8-3.8l-4.5-4.1l-3.3-5.2l-2.5-5.5l-1.9-5.8l-0.5-6.2l0.9-6.1
			l1.3-5.9l2.5-5.7l3.5-5l4.5-4.3l4.9-3.6l5.7-2.5l5.9-1.6l6.1-0.4l0,0l6.1,0.2l0.1,0l5.9,1.6l0.1,0l5.5,2.7l4.9,3.7l4.5,4.1
			l3.5,5.1l2.3,5.7l1.8,5.8l0.6,6.1l-0.8,6.1l-1.2,6l-2.6,5.6l-3.8,4.9l-4.3,4.3l-5,3.5l-5.4,2.8l-6,1.6L199.6,461.9z M193.7,460.1
			l5.9,0.5l5.9-0.4l5.7-1.5l5.3-2.7l4.8-3.4l4.2-4.2l3.6-4.7l2.5-5.4l1.2-5.8l0.8-5.9l-0.6-5.9l-1.8-5.6l-2.2-5.5l-3.3-4.9l-4.4-4
			l-4.7-3.6l-5.3-2.6l-5.7-1.5l-5.9-0.2l-5.9,0.3l-5.7,1.5l-5.4,2.4l-4.8,3.5l-4.3,4.1l-3.4,4.9l-2.4,5.4l-1.3,5.8l-0.8,5.9l0.5,5.9
			l1.9,5.6l2.5,5.4l3.2,5l4.3,4l4.6,3.7l5.5,2.2L193.7,460.1z"/>
	</g>
	<g>
		<g>
			<polygon points="302,364.5 301.2,370.6 300.5,376.5 299.9,382.4 299,388.2 298.6,394.2 298,400.1 297.1,405.9 296.2,411.8 
				295.7,417.7 295.1,423.6 294.4,429.5 293.4,435.4 292.8,441.3 292.1,447.2 291.3,453 291,458.8 296,456 301.2,453.2 306.3,450.1 
				311.3,446.9 316.5,444 321.6,441.1 326.6,437.9 331.9,435.1 337.1,432.2 342,428.9 347.3,426.3 352.3,423 357.4,420 362.6,417.1 
				367.7,414.1 372.7,411.1 367.2,408.6 361.6,406.3 355.8,404.1 350.1,401.9 344.4,399.4 347.9,394.4 351.1,389.2 354.3,384.1 
				357.7,379.1 361.2,374.1 364.4,369 367.8,364 371.3,358.9 365.9,355.8 361,352.3 356.1,348.9 350.9,345.7 347.8,350.9 
				344.2,355.8 341.1,361 337.5,365.9 334.3,371.1 331.2,376.2 327.5,381.1 324.4,386.3 319.9,382 315.6,377.5 311.1,373.2 
				306.6,368.9 			"/>
		</g>
		<g>
			<path d="M290.3,459.9l0.4-6.9l0.7-5.9l0.8-5.9l0.6-5.9l1-5.8l0.7-5.9l0.6-5.9l0.5-5.9l0.9-5.9l1-5.9l0.6-5.9l0.4-6l0.9-5.9
				l0.6-5.9l0.7-5.9l0.9-7.3l14.6,13.9l4.3,4.5l3.9,3.8l2.8-4.6l3.6-4.8l3.2-5.1l3.2-5.2l3.5-4.9l3.2-5.2l3.5-4.9l3.5-5.7l5.7,3.5
				l5,3.4l4.9,3.5l5.9,3.4l-3.8,5.7l-3.4,5l-3.2,5.1l-3.4,5l-3.4,5l-3.2,5.1l-3.2,5.2l-3.1,4.4l5,2.2l5.7,2.2l5.7,2.2l5.7,2.3l6.6,3
				l-11.2,6.6l-5.2,2.9l-5.1,3l-5,3.4l-5.3,2.6l-5,3.3l-5.2,2.9l-5.3,2.8l-5,3.2l-5.2,2.9l-5.1,2.9l-10.1,6.3l-5.2,2.8L290.3,459.9z
				 M291.9,453.1l-0.3,4.6l4-2.2l5.2-2.8l10.1-6.3l5.2-2.9l5.2-2.9l5-3.2l5.3-2.8l5.1-2.9l5-3.3l5.3-2.6l4.9-3.3l5.1-3l5.2-2.9
				l9.1-5.3l-4.4-2l-5.7-2.3l-5.7-2.2l-5.7-2.2l-6.4-2.8l3.9-5.6l3.2-5.1l3.2-5.2l3.4-5l3.4-5l3.2-5.1l3.4-5l3.1-4.6l-4.8-2.8
				l-4.9-3.5l-4.9-3.4l-4.6-2.8l-2.9,4.7l-3.5,4.9l-3.2,5.2l-3.5,4.9l-3.2,5.1l-3.2,5.2l-3.6,4.8l-3.5,5.8l-5.1-4.8l-4.3-4.5
				l-4.5-4.3l-8.3-7.8l-0.6,4.9l-0.7,5.9l-0.6,5.9l-0.9,5.8l-0.4,5.9l-0.6,6l-1,5.9l-0.9,5.8l-0.5,5.9l-0.6,5.9l-0.7,5.9l-1,5.8
				l-0.6,5.9l-0.8,5.9L291.9,453.1z"/>
		</g>
	</g>
	<g>
		<path d="M211.6,462.1l-5.9-0.1l-5.9-0.3l-5.9,0l-5.9,0.2l-5.9,0l-5.9,0.2l-5.9-0.4l-5.9,0.4l0,0l-5.9-0.2l-5.9,0l-5.9-0.1
			l-6.3,0.1l-0.8-6.4l-0.5-5.9l-0.5-5.9l-0.5-5.9l-0.2-5.9l-0.6-5.9l-0.5-5.9l-0.9-5.9l-0.6-5.9l-0.4-5.9l-0.6-5.9l-0.6-5.9
			l-0.1-5.9l-0.6-5.8l-0.5-5.9l-0.7-5.9l-0.3-5.9l-0.7-5.9l-0.8-5.9l-0.2-5.9l-0.9-5.9l-0.3-5.9l-0.7-5.9l-0.5-5.9l-0.5-5.9
			l-0.3-5.9l-0.8-5.9l-0.5-5.9l-0.2-5.9l-0.9-5.9l-0.2-5.9l-0.6-5.9l-0.5-5.9l-0.8-5.9l-0.2-5.9l-0.7-5.9l-0.5-5.9l-0.7-5.9
			l-0.6-5.9l-0.4-5.9l-0.6-5.9l-0.3-5.9l-0.6-5.9l-0.7-5.9l-0.1-5.9l-0.7-5.8l-0.8-5.9l-0.2-5.9l-0.9-5.9l-0.2-5.9l-0.7-5.8
			l-0.6-6.7l6.7,0l5.9,0.1l5.9-0.1l6,0l6-0.1l0,0l5.9,0.4l5.9-0.3l5.9,0l6-0.1l5.9,0.4l5.9-0.1l0,0l5.9,0.2l5.9-0.1l5.9-0.2l5.9-0.1
			l5.9,0l5.9,0.1l6,0.2l5.9,0.1l5.9-0.4l6,0.2l5.9,0l5.9-0.1l6,0l5.9,0l5.9,0l5.9,0l5.9,0.1l5.9,0l5.9,0.1l6-0.2l0,0l5.9,0.4
			l5.9-0.3l0,0l5.9,0.3l5.9-0.2l5.9,0.2l5.9-0.3l6-0.1l6,0l0,0l5.9,0.3l5.9,0l6,0.1l5.9,0.1l5.9-0.1l11.9-0.1l5.9,0.1l6.7-0.3
			l-0.9,6.6l-0.1,6l-0.7,5.9l-0.7,5.9l-0.3,5.9l-0.9,5.8l-0.5,5.9l-0.3,5.9l-0.6,5.9l-0.3,5.9l-0.7,5.9l-0.7,5.8l-0.2,6l-0.7,5.9
			l-0.7,5.9l-0.4,5.9l-0.8,5.8l-0.5,5.9l-0.4,5.9l-0.3,6l-0.9,5.8l-0.4,5.9l-0.7,5.9l-0.4,5.9l-0.3,5.9l-0.6,5.9l-0.7,5.9l-0.5,5.9
			l-0.8,5.8l-0.5,5.9l-0.5,5.9l-0.6,5.9l-0.4,5.9l-0.6,5.9l-0.4,5.9l-0.7,5.9l-0.6,5.8l-0.1,5.9l-0.5,5.9l-0.8,5.9l-0.7,5.8
			l-0.1,5.9l-0.5,5.9l-0.8,5.8l-0.4,5.9l-0.7,5.9l-0.4,5.9l-0.6,5.9l-0.3,5.9l-0.3,6l-0.9,5.8l-0.5,6.3l-6.3,0.4l0,0l-5.9-0.2
			L353,462l0,0l-5.9-0.2l-5.9-0.1l-5.9,0.3l0,0l-5.9-0.1l-5.9-0.1l-5.9-0.1l-5.9,0.4l0,0l-5.9-0.4l-5.9,0.2l-5.9,0l-5.9-0.1
			l-5.9,0.2l-5.9-0.1l-5.9-0.3l-5.9,0.2l-5.9,0l-5.9-0.2l-5.9,0.1l-5.9,0.1l-5.9,0l-5.9,0.1l-5.9-0.1l-5.9,0.2L211.6,462.1z
			 M205.7,460.8l5.9,0l5.9,0l5.9-0.2l0,0l5.9,0.1l5.9-0.1l5.9,0l5.9-0.1l5.9-0.1l0,0l5.9,0.2l5.9,0l5.9-0.2l0,0l5.9,0.3l5.9,0.1
			l5.9-0.2l5.9,0.1l5.9,0l5.9-0.2l5.9,0.4l5.9-0.4l0,0l5.9,0.1l5.9,0.1l5.9,0.1l5.9-0.3l0,0l5.9,0.1l5.9,0.2l5.9-0.1l5.9,0.2
			l5.2-0.3l0.4-5.3l0.9-5.8l0.3-5.9l0.3-5.9l0.6-5.9l0.4-5.9l0.7-5.9l0.4-5.9l0.8-5.8l0.5-5.9l0.1-6l0.7-5.9l0.8-5.9l0.5-5.9l0.1-6
			l0.6-5.9l0.7-5.9l0.4-5.9l0.6-5.9l0.4-5.9l0.6-5.9l0.5-5.9l0.5-5.9l0.8-5.8l0.4-5.9l0.7-5.9l0.6-5.9l0.3-5.9l0.4-6l0.7-5.8
			l0.4-5.9l0.9-5.8l0.2-5.9l0.4-5.9l0.5-5.9l0.8-5.8l0.4-5.9l0.7-5.9l0.7-5.8l0.2-5.9l0.7-5.9l0.7-5.9l0.3-5.9l0.6-5.9l0.3-5.9
			l0.6-5.9l0.9-5.8l0.3-5.9l0.7-5.9l0.7-5.8l0.1-6l0.7-5.2l-5.3,0.2l0,0l-5.9-0.1l-11.9,0.1l-5.9,0.1l-6-0.1l-5.9-0.1l-5.9,0
			l-5.9-0.3l-5.9,0l-5.9,0.1l-5.9,0.3l-5.9-0.2l-5.9,0.2l0,0l-5.9-0.3l-5.9,0.3l-5.9-0.4l-5.9,0.2l0,0l-5.9-0.1l-5.9,0l-5.9-0.1
			l-5.9,0l-5.9,0l-5.9,0l-5.9,0l-5.9,0.1l-5.9,0l-5.9-0.2l-5.9,0.4l0,0l-5.9-0.1l-5.9-0.2l-5.9-0.1l-5.9,0l-5.9,0.1l-5.9,0.2l-6,0.1
			l-5.9-0.2l-5.9,0.1l-5.9-0.4l-5.9,0.1l-5.9,0l-6,0.3l-5.9-0.4l-5.9,0.1l-5.9,0l-5.9,0.1l-6-0.1l-5.3,0l0.5,5.3l0.7,5.9l0.2,5.9
			l0.9,5.9l0.2,5.9l0.8,5.8l0.7,5.9l0.1,5.9l0.7,5.8l0.6,5.9l0.3,5.9l0.6,5.9l0.4,5.9l0.6,5.9l0.7,5.9l0.5,5.9l0.8,5.9l0.2,5.9
			l0.8,5.9l0.5,5.9l0.6,5.9l0.2,5.9l0.9,5.9l0.2,5.9l0.5,5.9l0.8,5.9l0.3,5.9l0.5,5.9l0.5,5.9l0.7,5.9l0.3,5.9l0.9,5.9l0.2,5.9
			l0.8,5.8l0.7,5.9l0.3,5.9l0.7,5.9l0.5,5.9l0.7,5.9l0.1,5.9l0.6,5.8l0.6,5.9l0.4,5.9l0.6,5.8l0.9,5.9l0.5,5.9l0.6,5.9l0.2,5.9
			l0.5,5.9l0.5,5.9l0.5,5.9l0.7,5.2l5.3,0l5.9,0.1l5.9,0l5.9,0.2l5.9-0.4l0,0l5.9,0.4l5.9-0.2l5.9,0l5.9-0.2l5.9,0L205.7,460.8z"/>
	</g>
	<g>
		<line class="st1" x1="137" y1="168" x2="379" y2="464"/>
		<line class="st1" x1="176.5" y1="161.5" x2="389.5" y2="421.5"/>
		<line class="st1" x1="223.5" y1="162.5" x2="395.5" y2="374.5"/>
		<line class="st1" x1="265.5" y1="162.5" x2="396.5" y2="321.5"/>
		<line class="st1" x1="310.5" y1="162.5" x2="403.5" y2="273.5"/>
		<line class="st1" x1="354.5" y1="161.5" x2="408.5" y2="226.5"/>
		<line class="st1" x1="129.5" y1="213.2" x2="342.5" y2="473.2"/>
		<line class="st1" x1="138.5" y1="274.5" x2="300" y2="472.2"/>
		<line class="st1" x1="142.5" y1="330.7" x2="256.5" y2="467.5"/>
		<line class="st1" x1="149.5" y1="391.5" x2="221.5" y2="467.5"/>
		<line class="st1" x1="401" y1="166.9" x2="159" y2="462.9"/>
		<line class="st1" x1="361.5" y1="160.4" x2="148.5" y2="420.4"/>
		<line class="st1" x1="314.5" y1="161.4" x2="142.5" y2="373.4"/>
		<line class="st1" x1="272.5" y1="161.4" x2="141.5" y2="320.4"/>
		<line class="st1" x1="227.5" y1="161.4" x2="134.5" y2="272.4"/>
		<line class="st1" x1="183.5" y1="160.4" x2="129.5" y2="225.4"/>
		<line class="st1" x1="408.5" y1="212.1" x2="195.5" y2="472.1"/>
		<line class="st1" x1="399.5" y1="273.4" x2="238" y2="471.1"/>
		<line class="st1" x1="395.5" y1="329.6" x2="281.5" y2="466.4"/>
		<line class="st1" x1="388.5" y1="390.4" x2="316.5" y2="466.4"/>
	</g>
</g>
</svg>
