<svg xmlns="http://www.w3.org/2000/svg" width="650.311" height="228.998" viewBox="0 0 650.311 228.998">
  <g id="c_devops-w" transform="translate(0 0)">
    <g id="Grupo_1" data-name="Grupo 1" transform="translate(0 29.739)">
      <g id="Trazado_2" data-name="Trazado 2" transform="translate(0 32.273)">
        <path id="Trazado_4262" data-name="Trazado 4262" d="M28.907,68.173A29.582,29.582,0,0,1,43.482,64.56a27.414,27.414,0,0,1,12.792,2.963,25.427,25.427,0,0,1,9.636,8.889l11.382-7.335A32.256,32.256,0,0,0,63.7,56.008a43.265,43.265,0,0,0-20.043-4.517,46.469,46.469,0,0,0-22.536,5.432A39.531,39.531,0,0,0,5.612,71.835a45,45,0,0,0,0,43.518A40.013,40.013,0,0,0,21.126,130.4a45.963,45.963,0,0,0,22.536,5.468,42.687,42.687,0,0,0,20.043-4.6,32.714,32.714,0,0,0,13.647-13.177L65.969,110.86a25.427,25.427,0,0,1-9.636,8.889,27.571,27.571,0,0,1-12.792,2.963A29.462,29.462,0,0,1,28.967,119.1a25.463,25.463,0,0,1-10.142-10.214,31.148,31.148,0,0,1-3.613-15.357,30.787,30.787,0,0,1,3.613-15.2A25.547,25.547,0,0,1,28.907,68.173Z" transform="translate(-0.002 -51.484)" fill="#fff"/>
      </g>
      <g id="Rectángulo_1" data-name="Rectángulo 1" transform="translate(91.707)">
        <rect id="Rectángulo_1549" data-name="Rectángulo 1549" width="14.972" height="115.715" fill="#fff"/>
      </g>
      <g id="Trazado_3" data-name="Trazado 3" transform="translate(123.669 32.334)">
        <path id="Trazado_4263" data-name="Trazado 4263" d="M165.29,56.913a41.314,41.314,0,0,0-21.127-5.372,42.229,42.229,0,0,0-21.3,5.372,38.664,38.664,0,0,0-14.815,15.044,43.783,43.783,0,0,0-5.372,21.681,43.181,43.181,0,0,0,5.541,21.837,38.291,38.291,0,0,0,15.658,15.032,52.636,52.636,0,0,0,41.88,1.951,36.231,36.231,0,0,0,13.96-9.973l-8.287-9.636a30.642,30.642,0,0,1-23.8,9.9,31.317,31.317,0,0,1-20.356-6.625,25.908,25.908,0,0,1-9.636-17.549h67.054a43.539,43.539,0,0,0,.313-4.517,45.867,45.867,0,0,0-5.227-22.151A37.8,37.8,0,0,0,165.29,56.913ZM117.653,87.82a26.366,26.366,0,0,1,8.431-17.152,27.908,27.908,0,0,1,36.026.072,26.571,26.571,0,0,1,8.5,17.08Z" transform="translate(-102.676 -51.534)" fill="#fff"/>
      </g>
      <g id="Trazado_4" data-name="Trazado 4" transform="translate(206.748 33.099)">
        <path id="Trazado_4264" data-name="Trazado 4264" d="M215.686,118.417,187.308,52.17H171.65l36.135,82.652H223.07L259.2,52.17H244.7Z" transform="translate(-171.65 -52.17)" fill="#fff"/>
      </g>
      <g id="Trazado_5" data-name="Trazado 5" transform="translate(294.598 32.275)">
        <path id="Trazado_4265" data-name="Trazado 4265" d="M307.2,56.923a41.314,41.314,0,0,0-21.163-5.432,42.157,42.157,0,0,0-21.247,5.432,38.616,38.616,0,0,0-14.827,15.044,43.915,43.915,0,0,0-5.372,21.681,43.18,43.18,0,0,0,5.541,21.837,38.29,38.29,0,0,0,15.658,15.032,52.636,52.636,0,0,0,41.928,1.891,36.134,36.134,0,0,0,13.948-9.961l-8.263-9.636a30.63,30.63,0,0,1-23.861,9.985,31.317,31.317,0,0,1-20.356-6.625,25.957,25.957,0,0,1-9.636-17.549h67.078c.181-1.494.277-3.011.313-4.517a46,46,0,0,0-5.227-22.151A37.941,37.941,0,0,0,307.2,56.923ZM259.539,87.83a26.366,26.366,0,0,1,8.492-17.152,27.908,27.908,0,0,1,36.026.072,26.631,26.631,0,0,1,8.48,17.08Z" transform="translate(-244.586 -51.485)" fill="#fff"/>
      </g>
      <g id="Trazado_6" data-name="Trazado 6" transform="translate(393.792 32.335)">
        <path id="Trazado_4266" data-name="Trazado 4266" d="M341.285,66.139V52.252H326.94v82.664H341.9V93.746a28.691,28.691,0,0,1,6.95-20.669,25.222,25.222,0,0,1,19.1-7.227,29.442,29.442,0,0,1,3.421.157V51.553A41.892,41.892,0,0,0,352.824,55.3a25.559,25.559,0,0,0-11.539,10.84Z" transform="translate(-326.94 -51.536)" fill="#fff"/>
      </g>
    </g>
    <path id="Trazado_4267" data-name="Trazado 4267" d="M4.21,187.169V143H16.676a20.066,20.066,0,0,1,10.166,2.553,17.3,17.3,0,0,1,6.841,7.227,23.548,23.548,0,0,1,2.409,10.84v2.819a23.584,23.584,0,0,1-2.409,10.949,16.971,16.971,0,0,1-6.878,7.227,21.488,21.488,0,0,1-10.419,2.578Zm5.769-39.351v34.629H16.11q6.733,0,10.479-4.18t3.746-11.936v-2.578q0-7.528-3.529-11.708a12.639,12.639,0,0,0-10.033-4.228Z" transform="translate(0.858 29.241)" fill="#fff"/>
    <path id="Trazado_4268" data-name="Trazado 4268" d="M53.72,185.954a14.333,14.333,0,0,1-10.84-4.384q-4.192-4.372-4.18-11.72v-1.036a19.766,19.766,0,0,1,1.855-8.721,14.6,14.6,0,0,1,5.227-6.022A13.093,13.093,0,0,1,53.01,151.9a12.322,12.322,0,0,1,9.949,4.216q3.541,4.216,3.541,12.045V170.5H44.277a11.684,11.684,0,0,0,2.843,7.841,8.925,8.925,0,0,0,6.9,2.987,9.8,9.8,0,0,0,5.035-1.2,12.491,12.491,0,0,0,3.613-3.216l3.433,2.674Q61.947,185.966,53.72,185.954Zm-.7-29.414a7.492,7.492,0,0,0-5.709,2.469,12.045,12.045,0,0,0-2.843,6.926H60.9v-.422a10.648,10.648,0,0,0-2.3-6.625,7.046,7.046,0,0,0-5.577-2.349Z" transform="translate(7.911 31.059)" fill="#fff"/>
    <path id="Trazado_4269" data-name="Trazado 4269" d="M80.7,177.63l8.118-25.21h5.733L82.736,185.242H78.508L66.62,152.42h5.733Z" transform="translate(13.62 31.168)" fill="#fff"/>
    <path id="Trazado_4270" data-name="Trazado 4270" d="M132.131,166.614a27.245,27.245,0,0,1-2.18,11.322,16.538,16.538,0,0,1-6.191,7.4,17.068,17.068,0,0,1-24.849-7.3,26.233,26.233,0,0,1-2.3-11V163.82a27.1,27.1,0,0,1,2.216-11.25,17.4,17.4,0,0,1,24.885-7.5,16.513,16.513,0,0,1,6.239,7.432,27.4,27.4,0,0,1,2.18,11.322Zm-5.794-2.855q0-7.865-3.156-12.045a10.407,10.407,0,0,0-8.829-4.192,10.286,10.286,0,0,0-8.684,4.192q-3.156,4.216-3.264,11.671v3.24q0,7.6,3.2,11.961a11.214,11.214,0,0,0,17.549.253q3.083-4.119,3.18-11.792Z" transform="translate(19.752 29.139)" fill="#fff"/>
    <path id="Trazado_4271" data-name="Trazado 4271" d="M163.255,169.307q0,7.48-3.421,12.045a11.009,11.009,0,0,1-9.287,4.577,12.045,12.045,0,0,1-9.407-3.794v15.8h-5.6V152.529h5.119l.277,3.613a11.563,11.563,0,0,1,9.527-4.24,11.166,11.166,0,0,1,9.347,4.457q3.457,4.457,3.445,12.406Zm-5.613-.638a14.454,14.454,0,0,0-2.409-8.769,7.624,7.624,0,0,0-6.492-3.216,8.263,8.263,0,0,0-7.648,4.517v15.658a8.275,8.275,0,0,0,7.709,4.493,7.612,7.612,0,0,0,6.42-3.2Q157.642,174.98,157.642,168.669Z" transform="translate(27.714 31.059)" fill="#fff"/>
    <path id="Trazado_4272" data-name="Trazado 4272" d="M186.216,176.638a4.119,4.119,0,0,0-1.722-3.529,16.249,16.249,0,0,0-6.022-2.168,28.112,28.112,0,0,1-6.757-2.192,9.5,9.5,0,0,1-3.7-3.023,7.227,7.227,0,0,1-1.2-4.192,8.528,8.528,0,0,1,3.409-6.817,13.31,13.31,0,0,1,8.72-2.794A13.743,13.743,0,0,1,188,154.8a9.178,9.178,0,0,1,3.469,7.371h-5.637a5.059,5.059,0,0,0-1.951-3.975,7.383,7.383,0,0,0-4.938-1.662,7.769,7.769,0,0,0-4.818,1.325,4.228,4.228,0,0,0-1.722,3.493,3.4,3.4,0,0,0,1.6,3.059,19.791,19.791,0,0,0,5.818,1.975,30.354,30.354,0,0,1,6.805,2.24,10.045,10.045,0,0,1,3.866,3.144,7.661,7.661,0,0,1,1.2,4.469,8.431,8.431,0,0,1-3.517,7.058,14.719,14.719,0,0,1-9.13,2.65,16.393,16.393,0,0,1-6.854-1.409,11.358,11.358,0,0,1-4.746-3.891,9.419,9.419,0,0,1-1.71-5.42h5.613a5.842,5.842,0,0,0,2.252,4.481,8.817,8.817,0,0,0,5.565,1.65,9.106,9.106,0,0,0,5.119-1.289A3.975,3.975,0,0,0,186.216,176.638Z" transform="translate(33.889 31.063)" fill="#fff"/>
    <g id="Grupo_1808" data-name="Grupo 1808" transform="translate(474.722)">
      <path id="Sustracción_3" data-name="Sustracción 3" d="M-9206.629-2589.514h-101.708a36.71,36.71,0,0,1-14.379-2.9,36.814,36.814,0,0,1-11.743-7.916,36.815,36.815,0,0,1-7.917-11.741,36.7,36.7,0,0,1-2.9-14.379v-101.709a36.7,36.7,0,0,1,2.9-14.379,36.829,36.829,0,0,1,7.917-11.742,36.817,36.817,0,0,1,11.743-7.917,36.706,36.706,0,0,1,14.379-2.9h101.708a36.713,36.713,0,0,1,14.379,2.9,36.821,36.821,0,0,1,11.742,7.917,36.843,36.843,0,0,1,7.916,11.742,36.722,36.722,0,0,1,2.9,14.379v101.709a36.719,36.719,0,0,1-2.9,14.379,36.83,36.83,0,0,1-7.916,11.741,36.818,36.818,0,0,1-11.742,7.916A36.717,36.717,0,0,1-9206.629-2589.514Zm-88.35-110.651a22.859,22.859,0,0,1,16.272,6.742l37.47,37.474a29.814,29.814,0,0,0,21.206,8.783,29.8,29.8,0,0,0,21.21-8.786,30.029,30.029,0,0,0,0-42.416,29.789,29.789,0,0,0-21.207-8.786,29.788,29.788,0,0,0-21.206,8.786c-.192.193-.937.942-1.14,1.147l-.008.007v-5.57a3.5,3.5,0,0,0-3.494-3.492,3.5,3.5,0,0,0-3.492,3.492v14.009a3.5,3.5,0,0,0,3.492,3.492h14.007a3.5,3.5,0,0,0,3.494-3.492,3.5,3.5,0,0,0-3.494-3.492h-5.568l0-.007c.106-.106.373-.375.626-.63l.145-.145.369-.371a22.862,22.862,0,0,1,16.272-6.742,22.851,22.851,0,0,1,16.265,6.737,22.853,22.853,0,0,1,6.74,16.269,22.853,22.853,0,0,1-6.74,16.269,22.85,22.85,0,0,1-16.265,6.737,22.86,22.86,0,0,1-16.272-6.742l-37.472-37.474a29.79,29.79,0,0,0-21.206-8.785,29.8,29.8,0,0,0-21.207,8.785,29.8,29.8,0,0,0-8.785,21.207,29.8,29.8,0,0,0,8.785,21.207,29.794,29.794,0,0,0,21.207,8.784,29.788,29.788,0,0,0,21.206-8.784s0-.014,0-.03a27.353,27.353,0,0,0-2.43-2.618,21.192,21.192,0,0,0-2.5-2.3.013.013,0,0,0-.01,0,22.859,22.859,0,0,1-16.272,6.742,22.849,22.849,0,0,1-16.265-6.737,22.853,22.853,0,0,1-6.74-16.269,22.853,22.853,0,0,1,6.74-16.269A22.851,22.851,0,0,1-9294.979-2700.165Z" transform="translate(9345.278 2765.104)" fill="#fff"/>
    </g>
  </g>
</svg>
